G04 EAGLE Gerber RS-274X export*
G75*
%MOMM*%
%FSLAX34Y34*%
%LPD*%
%INBoard Outline*%
%IPPOS*%
%AMOC8*
5,1,8,0,0,1.08239X$1,22.5*%
G01*
%ADD10C,0.000000*%
%ADD11C,0.254000*%


D10*
X0Y0D02*
X1095250Y0D01*
X1095250Y190400D01*
X0Y190400D01*
X0Y0D01*
X28450Y95250D02*
X28455Y95643D01*
X28469Y96035D01*
X28493Y96427D01*
X28527Y96818D01*
X28570Y97209D01*
X28623Y97598D01*
X28686Y97985D01*
X28757Y98371D01*
X28839Y98756D01*
X28929Y99138D01*
X29030Y99517D01*
X29139Y99895D01*
X29258Y100269D01*
X29385Y100640D01*
X29522Y101008D01*
X29668Y101373D01*
X29823Y101734D01*
X29986Y102091D01*
X30158Y102444D01*
X30339Y102792D01*
X30529Y103136D01*
X30726Y103476D01*
X30932Y103810D01*
X31146Y104139D01*
X31369Y104463D01*
X31599Y104781D01*
X31836Y105094D01*
X32082Y105400D01*
X32335Y105701D01*
X32595Y105995D01*
X32862Y106283D01*
X33136Y106564D01*
X33417Y106838D01*
X33705Y107105D01*
X33999Y107365D01*
X34300Y107618D01*
X34606Y107864D01*
X34919Y108101D01*
X35237Y108331D01*
X35561Y108554D01*
X35890Y108768D01*
X36224Y108974D01*
X36564Y109171D01*
X36908Y109361D01*
X37256Y109542D01*
X37609Y109714D01*
X37966Y109877D01*
X38327Y110032D01*
X38692Y110178D01*
X39060Y110315D01*
X39431Y110442D01*
X39805Y110561D01*
X40183Y110670D01*
X40562Y110771D01*
X40944Y110861D01*
X41329Y110943D01*
X41715Y111014D01*
X42102Y111077D01*
X42491Y111130D01*
X42882Y111173D01*
X43273Y111207D01*
X43665Y111231D01*
X44057Y111245D01*
X44450Y111250D01*
X44843Y111245D01*
X45235Y111231D01*
X45627Y111207D01*
X46018Y111173D01*
X46409Y111130D01*
X46798Y111077D01*
X47185Y111014D01*
X47571Y110943D01*
X47956Y110861D01*
X48338Y110771D01*
X48717Y110670D01*
X49095Y110561D01*
X49469Y110442D01*
X49840Y110315D01*
X50208Y110178D01*
X50573Y110032D01*
X50934Y109877D01*
X51291Y109714D01*
X51644Y109542D01*
X51992Y109361D01*
X52336Y109171D01*
X52676Y108974D01*
X53010Y108768D01*
X53339Y108554D01*
X53663Y108331D01*
X53981Y108101D01*
X54294Y107864D01*
X54600Y107618D01*
X54901Y107365D01*
X55195Y107105D01*
X55483Y106838D01*
X55764Y106564D01*
X56038Y106283D01*
X56305Y105995D01*
X56565Y105701D01*
X56818Y105400D01*
X57064Y105094D01*
X57301Y104781D01*
X57531Y104463D01*
X57754Y104139D01*
X57968Y103810D01*
X58174Y103476D01*
X58371Y103136D01*
X58561Y102792D01*
X58742Y102444D01*
X58914Y102091D01*
X59077Y101734D01*
X59232Y101373D01*
X59378Y101008D01*
X59515Y100640D01*
X59642Y100269D01*
X59761Y99895D01*
X59870Y99517D01*
X59971Y99138D01*
X60061Y98756D01*
X60143Y98371D01*
X60214Y97985D01*
X60277Y97598D01*
X60330Y97209D01*
X60373Y96818D01*
X60407Y96427D01*
X60431Y96035D01*
X60445Y95643D01*
X60450Y95250D01*
X60445Y94857D01*
X60431Y94465D01*
X60407Y94073D01*
X60373Y93682D01*
X60330Y93291D01*
X60277Y92902D01*
X60214Y92515D01*
X60143Y92129D01*
X60061Y91744D01*
X59971Y91362D01*
X59870Y90983D01*
X59761Y90605D01*
X59642Y90231D01*
X59515Y89860D01*
X59378Y89492D01*
X59232Y89127D01*
X59077Y88766D01*
X58914Y88409D01*
X58742Y88056D01*
X58561Y87708D01*
X58371Y87364D01*
X58174Y87024D01*
X57968Y86690D01*
X57754Y86361D01*
X57531Y86037D01*
X57301Y85719D01*
X57064Y85406D01*
X56818Y85100D01*
X56565Y84799D01*
X56305Y84505D01*
X56038Y84217D01*
X55764Y83936D01*
X55483Y83662D01*
X55195Y83395D01*
X54901Y83135D01*
X54600Y82882D01*
X54294Y82636D01*
X53981Y82399D01*
X53663Y82169D01*
X53339Y81946D01*
X53010Y81732D01*
X52676Y81526D01*
X52336Y81329D01*
X51992Y81139D01*
X51644Y80958D01*
X51291Y80786D01*
X50934Y80623D01*
X50573Y80468D01*
X50208Y80322D01*
X49840Y80185D01*
X49469Y80058D01*
X49095Y79939D01*
X48717Y79830D01*
X48338Y79729D01*
X47956Y79639D01*
X47571Y79557D01*
X47185Y79486D01*
X46798Y79423D01*
X46409Y79370D01*
X46018Y79327D01*
X45627Y79293D01*
X45235Y79269D01*
X44843Y79255D01*
X44450Y79250D01*
X44057Y79255D01*
X43665Y79269D01*
X43273Y79293D01*
X42882Y79327D01*
X42491Y79370D01*
X42102Y79423D01*
X41715Y79486D01*
X41329Y79557D01*
X40944Y79639D01*
X40562Y79729D01*
X40183Y79830D01*
X39805Y79939D01*
X39431Y80058D01*
X39060Y80185D01*
X38692Y80322D01*
X38327Y80468D01*
X37966Y80623D01*
X37609Y80786D01*
X37256Y80958D01*
X36908Y81139D01*
X36564Y81329D01*
X36224Y81526D01*
X35890Y81732D01*
X35561Y81946D01*
X35237Y82169D01*
X34919Y82399D01*
X34606Y82636D01*
X34300Y82882D01*
X33999Y83135D01*
X33705Y83395D01*
X33417Y83662D01*
X33136Y83936D01*
X32862Y84217D01*
X32595Y84505D01*
X32335Y84799D01*
X32082Y85100D01*
X31836Y85406D01*
X31599Y85719D01*
X31369Y86037D01*
X31146Y86361D01*
X30932Y86690D01*
X30726Y87024D01*
X30529Y87364D01*
X30339Y87708D01*
X30158Y88056D01*
X29986Y88409D01*
X29823Y88766D01*
X29668Y89127D01*
X29522Y89492D01*
X29385Y89860D01*
X29258Y90231D01*
X29139Y90605D01*
X29030Y90983D01*
X28929Y91362D01*
X28839Y91744D01*
X28757Y92129D01*
X28686Y92515D01*
X28623Y92902D01*
X28570Y93291D01*
X28527Y93682D01*
X28493Y94073D01*
X28469Y94465D01*
X28455Y94857D01*
X28450Y95250D01*
X538480Y95250D02*
X538485Y95655D01*
X538500Y96060D01*
X538525Y96465D01*
X538560Y96868D01*
X538604Y97271D01*
X538659Y97673D01*
X538723Y98073D01*
X538797Y98471D01*
X538881Y98867D01*
X538975Y99262D01*
X539078Y99653D01*
X539191Y100043D01*
X539313Y100429D01*
X539445Y100812D01*
X539586Y101192D01*
X539737Y101568D01*
X539896Y101941D01*
X540065Y102309D01*
X540243Y102673D01*
X540429Y103033D01*
X540625Y103388D01*
X540829Y103738D01*
X541041Y104083D01*
X541262Y104422D01*
X541492Y104757D01*
X541729Y105085D01*
X541974Y105407D01*
X542228Y105724D01*
X542488Y106034D01*
X542757Y106337D01*
X543033Y106634D01*
X543316Y106924D01*
X543606Y107207D01*
X543903Y107483D01*
X544206Y107752D01*
X544516Y108012D01*
X544833Y108266D01*
X545155Y108511D01*
X545483Y108748D01*
X545818Y108978D01*
X546157Y109199D01*
X546502Y109411D01*
X546852Y109615D01*
X547207Y109811D01*
X547567Y109997D01*
X547931Y110175D01*
X548299Y110344D01*
X548672Y110503D01*
X549048Y110654D01*
X549428Y110795D01*
X549811Y110927D01*
X550197Y111049D01*
X550587Y111162D01*
X550978Y111265D01*
X551373Y111359D01*
X551769Y111443D01*
X552167Y111517D01*
X552567Y111581D01*
X552969Y111636D01*
X553372Y111680D01*
X553775Y111715D01*
X554180Y111740D01*
X554585Y111755D01*
X554990Y111760D01*
X555395Y111755D01*
X555800Y111740D01*
X556205Y111715D01*
X556608Y111680D01*
X557011Y111636D01*
X557413Y111581D01*
X557813Y111517D01*
X558211Y111443D01*
X558607Y111359D01*
X559002Y111265D01*
X559393Y111162D01*
X559783Y111049D01*
X560169Y110927D01*
X560552Y110795D01*
X560932Y110654D01*
X561308Y110503D01*
X561681Y110344D01*
X562049Y110175D01*
X562413Y109997D01*
X562773Y109811D01*
X563128Y109615D01*
X563478Y109411D01*
X563823Y109199D01*
X564162Y108978D01*
X564497Y108748D01*
X564825Y108511D01*
X565147Y108266D01*
X565464Y108012D01*
X565774Y107752D01*
X566077Y107483D01*
X566374Y107207D01*
X566664Y106924D01*
X566947Y106634D01*
X567223Y106337D01*
X567492Y106034D01*
X567752Y105724D01*
X568006Y105407D01*
X568251Y105085D01*
X568488Y104757D01*
X568718Y104422D01*
X568939Y104083D01*
X569151Y103738D01*
X569355Y103388D01*
X569551Y103033D01*
X569737Y102673D01*
X569915Y102309D01*
X570084Y101941D01*
X570243Y101568D01*
X570394Y101192D01*
X570535Y100812D01*
X570667Y100429D01*
X570789Y100043D01*
X570902Y99653D01*
X571005Y99262D01*
X571099Y98867D01*
X571183Y98471D01*
X571257Y98073D01*
X571321Y97673D01*
X571376Y97271D01*
X571420Y96868D01*
X571455Y96465D01*
X571480Y96060D01*
X571495Y95655D01*
X571500Y95250D01*
X571495Y94845D01*
X571480Y94440D01*
X571455Y94035D01*
X571420Y93632D01*
X571376Y93229D01*
X571321Y92827D01*
X571257Y92427D01*
X571183Y92029D01*
X571099Y91633D01*
X571005Y91238D01*
X570902Y90847D01*
X570789Y90457D01*
X570667Y90071D01*
X570535Y89688D01*
X570394Y89308D01*
X570243Y88932D01*
X570084Y88559D01*
X569915Y88191D01*
X569737Y87827D01*
X569551Y87467D01*
X569355Y87112D01*
X569151Y86762D01*
X568939Y86417D01*
X568718Y86078D01*
X568488Y85743D01*
X568251Y85415D01*
X568006Y85093D01*
X567752Y84776D01*
X567492Y84466D01*
X567223Y84163D01*
X566947Y83866D01*
X566664Y83576D01*
X566374Y83293D01*
X566077Y83017D01*
X565774Y82748D01*
X565464Y82488D01*
X565147Y82234D01*
X564825Y81989D01*
X564497Y81752D01*
X564162Y81522D01*
X563823Y81301D01*
X563478Y81089D01*
X563128Y80885D01*
X562773Y80689D01*
X562413Y80503D01*
X562049Y80325D01*
X561681Y80156D01*
X561308Y79997D01*
X560932Y79846D01*
X560552Y79705D01*
X560169Y79573D01*
X559783Y79451D01*
X559393Y79338D01*
X559002Y79235D01*
X558607Y79141D01*
X558211Y79057D01*
X557813Y78983D01*
X557413Y78919D01*
X557011Y78864D01*
X556608Y78820D01*
X556205Y78785D01*
X555800Y78760D01*
X555395Y78745D01*
X554990Y78740D01*
X554585Y78745D01*
X554180Y78760D01*
X553775Y78785D01*
X553372Y78820D01*
X552969Y78864D01*
X552567Y78919D01*
X552167Y78983D01*
X551769Y79057D01*
X551373Y79141D01*
X550978Y79235D01*
X550587Y79338D01*
X550197Y79451D01*
X549811Y79573D01*
X549428Y79705D01*
X549048Y79846D01*
X548672Y79997D01*
X548299Y80156D01*
X547931Y80325D01*
X547567Y80503D01*
X547207Y80689D01*
X546852Y80885D01*
X546502Y81089D01*
X546157Y81301D01*
X545818Y81522D01*
X545483Y81752D01*
X545155Y81989D01*
X544833Y82234D01*
X544516Y82488D01*
X544206Y82748D01*
X543903Y83017D01*
X543606Y83293D01*
X543316Y83576D01*
X543033Y83866D01*
X542757Y84163D01*
X542488Y84466D01*
X542228Y84776D01*
X541974Y85093D01*
X541729Y85415D01*
X541492Y85743D01*
X541262Y86078D01*
X541041Y86417D01*
X540829Y86762D01*
X540625Y87112D01*
X540429Y87467D01*
X540243Y87827D01*
X540065Y88191D01*
X539896Y88559D01*
X539737Y88932D01*
X539586Y89308D01*
X539445Y89688D01*
X539313Y90071D01*
X539191Y90457D01*
X539078Y90847D01*
X538975Y91238D01*
X538881Y91633D01*
X538797Y92029D01*
X538723Y92427D01*
X538659Y92827D01*
X538604Y93229D01*
X538560Y93632D01*
X538525Y94035D01*
X538500Y94440D01*
X538485Y94845D01*
X538480Y95250D01*
D11*
X0Y0D02*
X1095250Y0D01*
X1095250Y190400D01*
X0Y190400D01*
X0Y0D01*
X60450Y94726D02*
X60382Y93681D01*
X60245Y92642D01*
X60040Y91615D01*
X59769Y90603D01*
X59433Y89611D01*
X59032Y88643D01*
X58568Y87704D01*
X58045Y86796D01*
X57463Y85925D01*
X56825Y85094D01*
X56134Y84307D01*
X55393Y83566D01*
X54606Y82875D01*
X53775Y82238D01*
X52904Y81656D01*
X51996Y81132D01*
X51057Y80668D01*
X50089Y80267D01*
X49097Y79931D01*
X48085Y79660D01*
X47058Y79455D01*
X46019Y79319D01*
X44974Y79250D01*
X43926Y79250D01*
X42881Y79319D01*
X41842Y79455D01*
X40815Y79660D01*
X39803Y79931D01*
X38811Y80267D01*
X37843Y80668D01*
X36904Y81132D01*
X35996Y81656D01*
X35125Y82238D01*
X34294Y82875D01*
X33507Y83566D01*
X32766Y84307D01*
X32075Y85094D01*
X31438Y85925D01*
X30856Y86796D01*
X30332Y87704D01*
X29868Y88643D01*
X29467Y89611D01*
X29131Y90603D01*
X28860Y91615D01*
X28655Y92642D01*
X28519Y93681D01*
X28450Y94726D01*
X28450Y95774D01*
X28519Y96819D01*
X28655Y97858D01*
X28860Y98885D01*
X29131Y99897D01*
X29467Y100889D01*
X29868Y101857D01*
X30332Y102796D01*
X30856Y103704D01*
X31438Y104575D01*
X32075Y105406D01*
X32766Y106193D01*
X33507Y106934D01*
X34294Y107625D01*
X35125Y108263D01*
X35996Y108845D01*
X36904Y109368D01*
X37843Y109832D01*
X38811Y110233D01*
X39803Y110569D01*
X40815Y110840D01*
X41842Y111045D01*
X42881Y111182D01*
X43926Y111250D01*
X44974Y111250D01*
X46019Y111182D01*
X47058Y111045D01*
X48085Y110840D01*
X49097Y110569D01*
X50089Y110233D01*
X51057Y109832D01*
X51996Y109368D01*
X52904Y108845D01*
X53775Y108263D01*
X54606Y107625D01*
X55393Y106934D01*
X56134Y106193D01*
X56825Y105406D01*
X57463Y104575D01*
X58045Y103704D01*
X58568Y102796D01*
X59032Y101857D01*
X59433Y100889D01*
X59769Y99897D01*
X60040Y98885D01*
X60245Y97858D01*
X60382Y96819D01*
X60450Y95774D01*
X60450Y94726D01*
X555530Y78740D02*
X556609Y78811D01*
X557681Y78952D01*
X558741Y79163D01*
X559785Y79442D01*
X560809Y79790D01*
X561807Y80204D01*
X562777Y80682D01*
X563713Y81222D01*
X564612Y81823D01*
X565469Y82481D01*
X566282Y83194D01*
X567047Y83958D01*
X567759Y84771D01*
X568417Y85628D01*
X569018Y86527D01*
X569558Y87463D01*
X570036Y88433D01*
X570450Y89431D01*
X570798Y90455D01*
X571077Y91499D01*
X571288Y92559D01*
X571429Y93631D01*
X571500Y94710D01*
X571500Y95790D01*
X571429Y96869D01*
X571288Y97941D01*
X571077Y99001D01*
X570798Y100045D01*
X570450Y101069D01*
X570036Y102067D01*
X569558Y103037D01*
X569018Y103973D01*
X568417Y104872D01*
X567759Y105729D01*
X567047Y106542D01*
X566282Y107307D01*
X565469Y108019D01*
X564612Y108677D01*
X563713Y109278D01*
X562777Y109818D01*
X561807Y110296D01*
X560809Y110710D01*
X559785Y111058D01*
X558741Y111337D01*
X557681Y111548D01*
X556609Y111689D01*
X555530Y111760D01*
X554450Y111760D01*
X553371Y111689D01*
X552299Y111548D01*
X551239Y111337D01*
X550195Y111058D01*
X549171Y110710D01*
X548173Y110296D01*
X547203Y109818D01*
X546267Y109278D01*
X545368Y108677D01*
X544511Y108019D01*
X543698Y107307D01*
X542934Y106542D01*
X542221Y105729D01*
X541563Y104872D01*
X540962Y103973D01*
X540422Y103037D01*
X539944Y102067D01*
X539530Y101069D01*
X539182Y100045D01*
X538903Y99001D01*
X538692Y97941D01*
X538551Y96869D01*
X538480Y95790D01*
X538480Y94710D01*
X538551Y93631D01*
X538692Y92559D01*
X538903Y91499D01*
X539182Y90455D01*
X539530Y89431D01*
X539944Y88433D01*
X540422Y87463D01*
X540962Y86527D01*
X541563Y85628D01*
X542221Y84771D01*
X542934Y83958D01*
X543698Y83194D01*
X544511Y82481D01*
X545368Y81823D01*
X546267Y81222D01*
X547203Y80682D01*
X548173Y80204D01*
X549171Y79790D01*
X550195Y79442D01*
X551239Y79163D01*
X552299Y78952D01*
X553371Y78811D01*
X554450Y78740D01*
X555530Y78740D01*
M02*
