G04 EAGLE Gerber RS-274X export*
G75*
%MOMM*%
%FSLAX34Y34*%
%LPD*%
%INSilkscreen Bottom*%
%IPPOS*%
%AMOC8*
5,1,8,0,0,1.08239X$1,22.5*%
G01*
%ADD10C,0.076200*%
%ADD11R,2.870200X0.025400*%
%ADD12R,1.498600X0.025400*%
%ADD13R,0.711200X0.025400*%
%ADD14R,1.803400X0.025400*%
%ADD15R,1.930400X0.025400*%
%ADD16R,2.032000X0.025400*%
%ADD17R,2.133600X0.025400*%
%ADD18R,2.184400X0.025400*%
%ADD19R,2.260600X0.025400*%
%ADD20R,2.311400X0.025400*%
%ADD21R,2.362200X0.025400*%
%ADD22R,2.413000X0.025400*%
%ADD23R,2.463800X0.025400*%
%ADD24R,2.489200X0.025400*%
%ADD25R,2.540000X0.025400*%
%ADD26R,2.565400X0.025400*%
%ADD27R,2.590800X0.025400*%
%ADD28R,2.641600X0.025400*%
%ADD29R,2.667000X0.025400*%
%ADD30R,2.692400X0.025400*%
%ADD31R,2.717800X0.025400*%
%ADD32R,2.743200X0.025400*%
%ADD33R,2.768600X0.025400*%
%ADD34R,2.794000X0.025400*%
%ADD35R,2.819400X0.025400*%
%ADD36R,2.844800X0.025400*%
%ADD37R,0.762000X0.025400*%
%ADD38R,1.244600X0.025400*%
%ADD39R,0.736600X0.025400*%
%ADD40R,1.117600X0.025400*%
%ADD41R,1.041400X0.025400*%
%ADD42R,1.016000X0.025400*%
%ADD43R,0.965200X0.025400*%
%ADD44R,0.939800X0.025400*%
%ADD45R,0.889000X0.025400*%
%ADD46R,0.863600X0.025400*%
%ADD47R,0.838200X0.025400*%
%ADD48R,0.812800X0.025400*%
%ADD49R,0.787400X0.025400*%
%ADD50R,0.685800X0.025400*%
%ADD51R,0.914400X0.025400*%
%ADD52R,0.990600X0.025400*%
%ADD53R,0.660400X0.025400*%
%ADD54R,0.482600X0.025400*%
%ADD55R,0.508000X0.025400*%
%ADD56R,0.533400X0.025400*%
%ADD57R,0.635000X0.025400*%
%ADD58R,0.609600X0.025400*%
%ADD59R,0.584200X0.025400*%
%ADD60R,0.558800X0.025400*%
%ADD61R,1.219200X0.025400*%
%ADD62R,2.616200X0.025400*%
%ADD63R,1.066800X0.025400*%
%ADD64R,2.209800X0.025400*%
%ADD65R,2.057400X0.025400*%
%ADD66R,1.955800X0.025400*%
%ADD67R,1.828800X0.025400*%
%ADD68R,1.574800X0.025400*%
%ADD69R,3.149600X0.025400*%
%ADD70R,1.092200X0.025400*%
%ADD71R,1.270000X0.025400*%
%ADD72R,1.422400X0.025400*%
%ADD73R,1.549400X0.025400*%
%ADD74R,1.676400X0.025400*%
%ADD75R,1.778000X0.025400*%
%ADD76R,1.854200X0.025400*%
%ADD77R,2.082800X0.025400*%
%ADD78R,2.235200X0.025400*%
%ADD79R,2.286000X0.025400*%
%ADD80R,2.336800X0.025400*%
%ADD81R,2.387600X0.025400*%
%ADD82R,2.438400X0.025400*%
%ADD83R,1.168400X0.025400*%
%ADD84R,1.193800X0.025400*%
%ADD85R,1.143000X0.025400*%
%ADD86R,2.514600X0.025400*%
%ADD87R,2.108200X0.025400*%
%ADD88R,1.879600X0.025400*%
%ADD89R,1.295400X0.025400*%
%ADD90R,3.581400X0.025400*%
%ADD91C,0.101600*%
%ADD92C,0.152400*%
%ADD93C,0.203200*%
%ADD94C,0.812800*%


D10*
X1028291Y165862D02*
X1030690Y165862D01*
X1030765Y165864D01*
X1030840Y165870D01*
X1030915Y165880D01*
X1030989Y165893D01*
X1031062Y165911D01*
X1031135Y165932D01*
X1031206Y165958D01*
X1031275Y165986D01*
X1031343Y166019D01*
X1031410Y166055D01*
X1031474Y166094D01*
X1031536Y166137D01*
X1031596Y166183D01*
X1031653Y166232D01*
X1031708Y166283D01*
X1031759Y166338D01*
X1031808Y166395D01*
X1031854Y166455D01*
X1031897Y166517D01*
X1031936Y166582D01*
X1031972Y166648D01*
X1032005Y166716D01*
X1032033Y166785D01*
X1032059Y166856D01*
X1032080Y166929D01*
X1032098Y167002D01*
X1032111Y167076D01*
X1032121Y167151D01*
X1032127Y167226D01*
X1032129Y167301D01*
X1032129Y170180D01*
X1032127Y170255D01*
X1032121Y170330D01*
X1032111Y170405D01*
X1032098Y170479D01*
X1032080Y170552D01*
X1032059Y170625D01*
X1032033Y170696D01*
X1032005Y170765D01*
X1031972Y170833D01*
X1031936Y170900D01*
X1031897Y170964D01*
X1031854Y171026D01*
X1031808Y171086D01*
X1031759Y171143D01*
X1031708Y171198D01*
X1031653Y171249D01*
X1031596Y171298D01*
X1031536Y171344D01*
X1031474Y171387D01*
X1031410Y171426D01*
X1031343Y171462D01*
X1031275Y171495D01*
X1031206Y171523D01*
X1031135Y171549D01*
X1031062Y171570D01*
X1030989Y171588D01*
X1030915Y171601D01*
X1030840Y171611D01*
X1030765Y171617D01*
X1030690Y171619D01*
X1028291Y171619D01*
X1028291Y164423D01*
X1028293Y164348D01*
X1028299Y164273D01*
X1028309Y164198D01*
X1028322Y164124D01*
X1028340Y164051D01*
X1028361Y163978D01*
X1028387Y163907D01*
X1028415Y163838D01*
X1028448Y163770D01*
X1028484Y163704D01*
X1028523Y163639D01*
X1028566Y163577D01*
X1028612Y163517D01*
X1028661Y163460D01*
X1028712Y163405D01*
X1028767Y163354D01*
X1028824Y163305D01*
X1028884Y163259D01*
X1028946Y163216D01*
X1029011Y163177D01*
X1029077Y163141D01*
X1029145Y163108D01*
X1029214Y163080D01*
X1029285Y163054D01*
X1029358Y163033D01*
X1029431Y163015D01*
X1029505Y163002D01*
X1029580Y162992D01*
X1029655Y162986D01*
X1029730Y162984D01*
X1029730Y162983D02*
X1031649Y162983D01*
X1024527Y165862D02*
X1024527Y171619D01*
X1024767Y174018D02*
X1024767Y174498D01*
X1024287Y174498D01*
X1024287Y174018D01*
X1024767Y174018D01*
X1021806Y171619D02*
X1018928Y171619D01*
X1020847Y174498D02*
X1020847Y167301D01*
X1020846Y167301D02*
X1020844Y167226D01*
X1020838Y167151D01*
X1020828Y167076D01*
X1020815Y167002D01*
X1020797Y166929D01*
X1020776Y166856D01*
X1020750Y166785D01*
X1020722Y166716D01*
X1020689Y166648D01*
X1020653Y166582D01*
X1020614Y166517D01*
X1020571Y166455D01*
X1020525Y166395D01*
X1020476Y166338D01*
X1020425Y166283D01*
X1020370Y166232D01*
X1020313Y166183D01*
X1020253Y166137D01*
X1020191Y166094D01*
X1020127Y166055D01*
X1020060Y166019D01*
X1019992Y165986D01*
X1019923Y165958D01*
X1019852Y165932D01*
X1019779Y165911D01*
X1019706Y165893D01*
X1019632Y165880D01*
X1019557Y165870D01*
X1019482Y165864D01*
X1019407Y165862D01*
X1018928Y165862D01*
X1015451Y165862D02*
X1015451Y174498D01*
X1015451Y171619D02*
X1013052Y171619D01*
X1012977Y171617D01*
X1012902Y171611D01*
X1012827Y171601D01*
X1012753Y171588D01*
X1012680Y171570D01*
X1012607Y171549D01*
X1012536Y171523D01*
X1012467Y171495D01*
X1012399Y171462D01*
X1012333Y171426D01*
X1012268Y171387D01*
X1012206Y171344D01*
X1012146Y171298D01*
X1012089Y171249D01*
X1012034Y171198D01*
X1011983Y171143D01*
X1011934Y171086D01*
X1011888Y171026D01*
X1011845Y170964D01*
X1011806Y170900D01*
X1011770Y170833D01*
X1011737Y170765D01*
X1011709Y170696D01*
X1011683Y170625D01*
X1011662Y170552D01*
X1011644Y170479D01*
X1011631Y170405D01*
X1011621Y170330D01*
X1011615Y170255D01*
X1011613Y170180D01*
X1011613Y165862D01*
X1007556Y167301D02*
X1007556Y171619D01*
X1007556Y167301D02*
X1007554Y167226D01*
X1007548Y167151D01*
X1007538Y167076D01*
X1007525Y167002D01*
X1007507Y166929D01*
X1007486Y166856D01*
X1007460Y166785D01*
X1007432Y166716D01*
X1007399Y166648D01*
X1007363Y166582D01*
X1007324Y166517D01*
X1007281Y166455D01*
X1007235Y166395D01*
X1007186Y166338D01*
X1007135Y166283D01*
X1007080Y166232D01*
X1007023Y166183D01*
X1006963Y166137D01*
X1006901Y166094D01*
X1006837Y166055D01*
X1006770Y166019D01*
X1006702Y165986D01*
X1006633Y165958D01*
X1006562Y165932D01*
X1006489Y165911D01*
X1006416Y165893D01*
X1006342Y165880D01*
X1006267Y165870D01*
X1006192Y165864D01*
X1006117Y165862D01*
X1003718Y165862D01*
X1003718Y171619D01*
X999618Y174498D02*
X999618Y165862D01*
X997219Y165862D01*
X997144Y165864D01*
X997069Y165870D01*
X996994Y165880D01*
X996920Y165893D01*
X996847Y165911D01*
X996774Y165932D01*
X996703Y165958D01*
X996634Y165986D01*
X996566Y166019D01*
X996500Y166055D01*
X996435Y166094D01*
X996373Y166137D01*
X996313Y166183D01*
X996256Y166232D01*
X996201Y166283D01*
X996150Y166338D01*
X996101Y166395D01*
X996055Y166455D01*
X996012Y166517D01*
X995973Y166581D01*
X995937Y166648D01*
X995904Y166716D01*
X995876Y166785D01*
X995850Y166856D01*
X995829Y166929D01*
X995811Y167002D01*
X995798Y167076D01*
X995788Y167151D01*
X995782Y167226D01*
X995780Y167301D01*
X995780Y170180D01*
X995782Y170253D01*
X995787Y170326D01*
X995797Y170398D01*
X995809Y170470D01*
X995826Y170541D01*
X995846Y170611D01*
X995870Y170680D01*
X995897Y170747D01*
X995927Y170814D01*
X995961Y170878D01*
X995998Y170941D01*
X996038Y171002D01*
X996081Y171061D01*
X996127Y171117D01*
X996176Y171171D01*
X996228Y171223D01*
X996282Y171272D01*
X996338Y171318D01*
X996397Y171361D01*
X996458Y171401D01*
X996521Y171438D01*
X996585Y171472D01*
X996652Y171502D01*
X996719Y171529D01*
X996788Y171553D01*
X996858Y171573D01*
X996929Y171590D01*
X997001Y171602D01*
X997073Y171612D01*
X997146Y171617D01*
X997219Y171619D01*
X999618Y171619D01*
X992626Y166342D02*
X992626Y165862D01*
X992626Y166342D02*
X992146Y166342D01*
X992146Y165862D01*
X992626Y165862D01*
X987499Y165862D02*
X985580Y165862D01*
X987499Y165862D02*
X987574Y165864D01*
X987649Y165870D01*
X987724Y165880D01*
X987798Y165893D01*
X987871Y165911D01*
X987944Y165932D01*
X988015Y165958D01*
X988084Y165986D01*
X988152Y166019D01*
X988219Y166055D01*
X988283Y166094D01*
X988345Y166137D01*
X988405Y166183D01*
X988462Y166232D01*
X988517Y166283D01*
X988568Y166338D01*
X988617Y166395D01*
X988663Y166455D01*
X988706Y166517D01*
X988745Y166582D01*
X988781Y166648D01*
X988814Y166716D01*
X988842Y166785D01*
X988868Y166856D01*
X988889Y166929D01*
X988907Y167002D01*
X988920Y167076D01*
X988930Y167151D01*
X988936Y167226D01*
X988938Y167301D01*
X988939Y167301D02*
X988939Y170180D01*
X988938Y170180D02*
X988936Y170255D01*
X988930Y170330D01*
X988920Y170405D01*
X988907Y170479D01*
X988889Y170552D01*
X988868Y170625D01*
X988842Y170696D01*
X988814Y170765D01*
X988781Y170833D01*
X988745Y170900D01*
X988706Y170964D01*
X988663Y171026D01*
X988617Y171086D01*
X988568Y171143D01*
X988517Y171198D01*
X988462Y171249D01*
X988405Y171298D01*
X988345Y171344D01*
X988283Y171387D01*
X988219Y171426D01*
X988152Y171462D01*
X988084Y171495D01*
X988015Y171523D01*
X987944Y171549D01*
X987871Y171570D01*
X987798Y171588D01*
X987724Y171601D01*
X987649Y171611D01*
X987574Y171617D01*
X987499Y171619D01*
X985580Y171619D01*
X982464Y169700D02*
X982464Y167781D01*
X982464Y169700D02*
X982462Y169786D01*
X982456Y169872D01*
X982447Y169958D01*
X982433Y170043D01*
X982416Y170127D01*
X982395Y170211D01*
X982370Y170293D01*
X982342Y170374D01*
X982310Y170454D01*
X982274Y170533D01*
X982235Y170609D01*
X982192Y170684D01*
X982147Y170757D01*
X982098Y170828D01*
X982045Y170896D01*
X981990Y170963D01*
X981932Y171026D01*
X981871Y171087D01*
X981808Y171145D01*
X981741Y171200D01*
X981673Y171253D01*
X981602Y171302D01*
X981529Y171347D01*
X981454Y171390D01*
X981378Y171429D01*
X981299Y171465D01*
X981219Y171497D01*
X981138Y171525D01*
X981056Y171550D01*
X980972Y171571D01*
X980888Y171588D01*
X980803Y171602D01*
X980717Y171611D01*
X980631Y171617D01*
X980545Y171619D01*
X980459Y171617D01*
X980373Y171611D01*
X980287Y171602D01*
X980202Y171588D01*
X980118Y171571D01*
X980034Y171550D01*
X979952Y171525D01*
X979871Y171497D01*
X979791Y171465D01*
X979712Y171429D01*
X979636Y171390D01*
X979561Y171347D01*
X979488Y171302D01*
X979417Y171253D01*
X979349Y171200D01*
X979282Y171145D01*
X979219Y171087D01*
X979158Y171026D01*
X979100Y170963D01*
X979045Y170896D01*
X978992Y170828D01*
X978943Y170757D01*
X978898Y170684D01*
X978855Y170609D01*
X978816Y170533D01*
X978780Y170454D01*
X978748Y170374D01*
X978720Y170293D01*
X978695Y170211D01*
X978674Y170127D01*
X978657Y170043D01*
X978643Y169958D01*
X978634Y169872D01*
X978628Y169786D01*
X978626Y169700D01*
X978626Y167781D01*
X978628Y167695D01*
X978634Y167609D01*
X978643Y167523D01*
X978657Y167438D01*
X978674Y167354D01*
X978695Y167270D01*
X978720Y167188D01*
X978748Y167107D01*
X978780Y167027D01*
X978816Y166948D01*
X978855Y166872D01*
X978898Y166797D01*
X978943Y166724D01*
X978992Y166653D01*
X979045Y166585D01*
X979100Y166518D01*
X979158Y166455D01*
X979219Y166394D01*
X979282Y166336D01*
X979349Y166281D01*
X979417Y166228D01*
X979488Y166179D01*
X979561Y166134D01*
X979636Y166091D01*
X979712Y166052D01*
X979791Y166016D01*
X979871Y165984D01*
X979952Y165956D01*
X980034Y165931D01*
X980118Y165910D01*
X980202Y165893D01*
X980287Y165879D01*
X980373Y165870D01*
X980459Y165864D01*
X980545Y165862D01*
X980631Y165864D01*
X980717Y165870D01*
X980803Y165879D01*
X980888Y165893D01*
X980972Y165910D01*
X981056Y165931D01*
X981138Y165956D01*
X981219Y165984D01*
X981299Y166016D01*
X981378Y166052D01*
X981454Y166091D01*
X981529Y166134D01*
X981602Y166179D01*
X981673Y166228D01*
X981741Y166281D01*
X981808Y166336D01*
X981871Y166394D01*
X981932Y166455D01*
X981990Y166518D01*
X982045Y166585D01*
X982098Y166653D01*
X982147Y166724D01*
X982192Y166797D01*
X982235Y166872D01*
X982274Y166948D01*
X982310Y167027D01*
X982342Y167107D01*
X982370Y167188D01*
X982395Y167270D01*
X982416Y167354D01*
X982433Y167438D01*
X982447Y167523D01*
X982456Y167609D01*
X982462Y167695D01*
X982464Y167781D01*
X974683Y165862D02*
X974683Y171619D01*
X970365Y171619D01*
X970290Y171617D01*
X970215Y171611D01*
X970140Y171601D01*
X970066Y171588D01*
X969993Y171570D01*
X969920Y171549D01*
X969849Y171523D01*
X969780Y171495D01*
X969712Y171462D01*
X969646Y171426D01*
X969581Y171387D01*
X969519Y171344D01*
X969459Y171298D01*
X969402Y171249D01*
X969347Y171198D01*
X969296Y171143D01*
X969247Y171086D01*
X969201Y171026D01*
X969158Y170964D01*
X969119Y170900D01*
X969083Y170833D01*
X969050Y170765D01*
X969022Y170696D01*
X968996Y170625D01*
X968975Y170552D01*
X968957Y170479D01*
X968944Y170405D01*
X968934Y170330D01*
X968928Y170255D01*
X968926Y170180D01*
X968926Y165862D01*
X971805Y165862D02*
X971805Y171619D01*
X965266Y164902D02*
X961427Y175458D01*
X956582Y169220D02*
X954423Y169220D01*
X956582Y169220D02*
X956663Y169218D01*
X956744Y169212D01*
X956825Y169202D01*
X956905Y169189D01*
X956984Y169171D01*
X957062Y169150D01*
X957139Y169125D01*
X957215Y169096D01*
X957290Y169064D01*
X957362Y169028D01*
X957433Y168988D01*
X957502Y168945D01*
X957569Y168899D01*
X957633Y168850D01*
X957695Y168798D01*
X957755Y168742D01*
X957811Y168684D01*
X957865Y168624D01*
X957916Y168560D01*
X957964Y168495D01*
X958008Y168427D01*
X958049Y168357D01*
X958087Y168285D01*
X958121Y168212D01*
X958152Y168136D01*
X958179Y168060D01*
X958202Y167982D01*
X958221Y167903D01*
X958237Y167824D01*
X958249Y167743D01*
X958257Y167663D01*
X958261Y167582D01*
X958261Y167500D01*
X958257Y167419D01*
X958249Y167339D01*
X958237Y167258D01*
X958221Y167179D01*
X958202Y167100D01*
X958179Y167022D01*
X958152Y166946D01*
X958121Y166870D01*
X958087Y166797D01*
X958049Y166725D01*
X958008Y166655D01*
X957964Y166587D01*
X957916Y166522D01*
X957865Y166458D01*
X957811Y166398D01*
X957755Y166340D01*
X957695Y166284D01*
X957633Y166232D01*
X957569Y166183D01*
X957502Y166137D01*
X957433Y166094D01*
X957362Y166054D01*
X957290Y166018D01*
X957215Y165986D01*
X957139Y165957D01*
X957062Y165932D01*
X956984Y165911D01*
X956905Y165893D01*
X956825Y165880D01*
X956744Y165870D01*
X956663Y165864D01*
X956582Y165862D01*
X954423Y165862D01*
X954423Y170180D01*
X954425Y170253D01*
X954430Y170326D01*
X954440Y170398D01*
X954452Y170470D01*
X954469Y170541D01*
X954489Y170611D01*
X954513Y170680D01*
X954540Y170747D01*
X954570Y170814D01*
X954604Y170878D01*
X954641Y170941D01*
X954681Y171002D01*
X954724Y171061D01*
X954770Y171117D01*
X954819Y171171D01*
X954871Y171223D01*
X954925Y171272D01*
X954981Y171318D01*
X955040Y171361D01*
X955101Y171401D01*
X955164Y171438D01*
X955228Y171472D01*
X955295Y171502D01*
X955362Y171529D01*
X955431Y171553D01*
X955501Y171573D01*
X955572Y171590D01*
X955644Y171602D01*
X955716Y171612D01*
X955789Y171617D01*
X955862Y171619D01*
X957781Y171619D01*
X951322Y171619D02*
X948443Y171619D01*
X950362Y174498D02*
X950362Y167301D01*
X950360Y167226D01*
X950354Y167151D01*
X950344Y167076D01*
X950331Y167002D01*
X950313Y166929D01*
X950292Y166856D01*
X950266Y166785D01*
X950238Y166716D01*
X950205Y166648D01*
X950169Y166582D01*
X950130Y166517D01*
X950087Y166455D01*
X950041Y166395D01*
X949992Y166338D01*
X949941Y166283D01*
X949886Y166232D01*
X949829Y166183D01*
X949769Y166137D01*
X949707Y166094D01*
X949643Y166055D01*
X949576Y166019D01*
X949508Y165986D01*
X949439Y165958D01*
X949368Y165932D01*
X949295Y165911D01*
X949222Y165893D01*
X949148Y165880D01*
X949073Y165870D01*
X948998Y165864D01*
X948923Y165862D01*
X948443Y165862D01*
X945965Y171619D02*
X943086Y171619D01*
X945005Y174498D02*
X945005Y167301D01*
X945003Y167226D01*
X944997Y167151D01*
X944987Y167076D01*
X944974Y167002D01*
X944956Y166929D01*
X944935Y166856D01*
X944909Y166785D01*
X944881Y166716D01*
X944848Y166648D01*
X944812Y166582D01*
X944773Y166517D01*
X944730Y166455D01*
X944684Y166395D01*
X944635Y166338D01*
X944584Y166283D01*
X944529Y166232D01*
X944472Y166183D01*
X944412Y166137D01*
X944350Y166094D01*
X944286Y166055D01*
X944219Y166019D01*
X944151Y165986D01*
X944082Y165958D01*
X944011Y165932D01*
X943938Y165911D01*
X943865Y165893D01*
X943791Y165880D01*
X943716Y165870D01*
X943641Y165864D01*
X943566Y165862D01*
X943086Y165862D01*
X939891Y167781D02*
X939891Y169700D01*
X939889Y169786D01*
X939883Y169872D01*
X939874Y169958D01*
X939860Y170043D01*
X939843Y170127D01*
X939822Y170211D01*
X939797Y170293D01*
X939769Y170374D01*
X939737Y170454D01*
X939701Y170533D01*
X939662Y170609D01*
X939619Y170684D01*
X939574Y170757D01*
X939525Y170828D01*
X939472Y170896D01*
X939417Y170963D01*
X939359Y171026D01*
X939298Y171087D01*
X939235Y171145D01*
X939168Y171200D01*
X939100Y171253D01*
X939029Y171302D01*
X938956Y171347D01*
X938881Y171390D01*
X938805Y171429D01*
X938726Y171465D01*
X938646Y171497D01*
X938565Y171525D01*
X938483Y171550D01*
X938399Y171571D01*
X938315Y171588D01*
X938230Y171602D01*
X938144Y171611D01*
X938058Y171617D01*
X937972Y171619D01*
X937886Y171617D01*
X937800Y171611D01*
X937714Y171602D01*
X937629Y171588D01*
X937545Y171571D01*
X937461Y171550D01*
X937379Y171525D01*
X937298Y171497D01*
X937218Y171465D01*
X937139Y171429D01*
X937063Y171390D01*
X936988Y171347D01*
X936915Y171302D01*
X936844Y171253D01*
X936776Y171200D01*
X936709Y171145D01*
X936646Y171087D01*
X936585Y171026D01*
X936527Y170963D01*
X936472Y170896D01*
X936419Y170828D01*
X936370Y170757D01*
X936325Y170684D01*
X936282Y170609D01*
X936243Y170533D01*
X936207Y170454D01*
X936175Y170374D01*
X936147Y170293D01*
X936122Y170211D01*
X936101Y170127D01*
X936084Y170043D01*
X936070Y169958D01*
X936061Y169872D01*
X936055Y169786D01*
X936053Y169700D01*
X936053Y167781D01*
X936055Y167695D01*
X936061Y167609D01*
X936070Y167523D01*
X936084Y167438D01*
X936101Y167354D01*
X936122Y167270D01*
X936147Y167188D01*
X936175Y167107D01*
X936207Y167027D01*
X936243Y166948D01*
X936282Y166872D01*
X936325Y166797D01*
X936370Y166724D01*
X936419Y166653D01*
X936472Y166585D01*
X936527Y166518D01*
X936585Y166455D01*
X936646Y166394D01*
X936709Y166336D01*
X936776Y166281D01*
X936844Y166228D01*
X936915Y166179D01*
X936988Y166134D01*
X937063Y166091D01*
X937139Y166052D01*
X937218Y166016D01*
X937298Y165984D01*
X937379Y165956D01*
X937461Y165931D01*
X937545Y165910D01*
X937629Y165893D01*
X937714Y165879D01*
X937800Y165870D01*
X937886Y165864D01*
X937972Y165862D01*
X938058Y165864D01*
X938144Y165870D01*
X938230Y165879D01*
X938315Y165893D01*
X938399Y165910D01*
X938483Y165931D01*
X938565Y165956D01*
X938646Y165984D01*
X938726Y166016D01*
X938805Y166052D01*
X938881Y166091D01*
X938956Y166134D01*
X939029Y166179D01*
X939100Y166228D01*
X939168Y166281D01*
X939235Y166336D01*
X939298Y166394D01*
X939359Y166455D01*
X939417Y166518D01*
X939472Y166585D01*
X939525Y166653D01*
X939574Y166724D01*
X939619Y166797D01*
X939662Y166872D01*
X939701Y166948D01*
X939737Y167027D01*
X939769Y167107D01*
X939797Y167188D01*
X939822Y167270D01*
X939843Y167354D01*
X939860Y167438D01*
X939874Y167523D01*
X939883Y167609D01*
X939889Y167695D01*
X939891Y167781D01*
X932674Y171619D02*
X931235Y165862D01*
X929796Y169700D01*
X928356Y165862D01*
X926917Y171619D01*
X921903Y169220D02*
X919744Y169220D01*
X921903Y169220D02*
X921984Y169218D01*
X922065Y169212D01*
X922146Y169202D01*
X922226Y169189D01*
X922305Y169171D01*
X922383Y169150D01*
X922460Y169125D01*
X922536Y169096D01*
X922611Y169064D01*
X922683Y169028D01*
X922754Y168988D01*
X922823Y168945D01*
X922890Y168899D01*
X922954Y168850D01*
X923016Y168798D01*
X923076Y168742D01*
X923132Y168684D01*
X923186Y168624D01*
X923237Y168560D01*
X923285Y168495D01*
X923329Y168427D01*
X923370Y168357D01*
X923408Y168285D01*
X923442Y168212D01*
X923473Y168136D01*
X923500Y168060D01*
X923523Y167982D01*
X923542Y167903D01*
X923558Y167824D01*
X923570Y167743D01*
X923578Y167663D01*
X923582Y167582D01*
X923582Y167500D01*
X923578Y167419D01*
X923570Y167339D01*
X923558Y167258D01*
X923542Y167179D01*
X923523Y167100D01*
X923500Y167022D01*
X923473Y166946D01*
X923442Y166870D01*
X923408Y166797D01*
X923370Y166725D01*
X923329Y166655D01*
X923285Y166587D01*
X923237Y166522D01*
X923186Y166458D01*
X923132Y166398D01*
X923076Y166340D01*
X923016Y166284D01*
X922954Y166232D01*
X922890Y166183D01*
X922823Y166137D01*
X922754Y166094D01*
X922683Y166054D01*
X922611Y166018D01*
X922536Y165986D01*
X922460Y165957D01*
X922383Y165932D01*
X922305Y165911D01*
X922226Y165893D01*
X922146Y165880D01*
X922065Y165870D01*
X921984Y165864D01*
X921903Y165862D01*
X919744Y165862D01*
X919744Y170180D01*
X919745Y170180D02*
X919747Y170253D01*
X919752Y170326D01*
X919762Y170398D01*
X919774Y170470D01*
X919791Y170541D01*
X919811Y170611D01*
X919835Y170680D01*
X919862Y170747D01*
X919892Y170814D01*
X919926Y170878D01*
X919963Y170941D01*
X920003Y171002D01*
X920046Y171061D01*
X920092Y171117D01*
X920141Y171171D01*
X920193Y171223D01*
X920247Y171272D01*
X920303Y171318D01*
X920362Y171361D01*
X920423Y171401D01*
X920486Y171438D01*
X920550Y171472D01*
X920617Y171502D01*
X920684Y171529D01*
X920753Y171553D01*
X920823Y171573D01*
X920894Y171590D01*
X920966Y171602D01*
X921038Y171612D01*
X921111Y171617D01*
X921184Y171619D01*
X923103Y171619D01*
X916643Y171619D02*
X913764Y171619D01*
X915684Y174498D02*
X915684Y167301D01*
X915683Y167301D02*
X915681Y167226D01*
X915675Y167151D01*
X915665Y167076D01*
X915652Y167002D01*
X915634Y166929D01*
X915613Y166856D01*
X915587Y166785D01*
X915559Y166716D01*
X915526Y166648D01*
X915490Y166582D01*
X915451Y166517D01*
X915408Y166455D01*
X915362Y166395D01*
X915313Y166338D01*
X915262Y166283D01*
X915207Y166232D01*
X915150Y166183D01*
X915090Y166137D01*
X915028Y166094D01*
X914964Y166055D01*
X914897Y166019D01*
X914829Y165986D01*
X914760Y165958D01*
X914689Y165932D01*
X914616Y165911D01*
X914543Y165893D01*
X914469Y165880D01*
X914394Y165870D01*
X914319Y165864D01*
X914244Y165862D01*
X913764Y165862D01*
X911286Y171619D02*
X908408Y171619D01*
X910327Y174498D02*
X910327Y167301D01*
X910326Y167301D02*
X910324Y167226D01*
X910318Y167151D01*
X910308Y167076D01*
X910295Y167002D01*
X910277Y166929D01*
X910256Y166856D01*
X910230Y166785D01*
X910202Y166716D01*
X910169Y166648D01*
X910133Y166582D01*
X910094Y166517D01*
X910051Y166455D01*
X910005Y166395D01*
X909956Y166338D01*
X909905Y166283D01*
X909850Y166232D01*
X909793Y166183D01*
X909733Y166137D01*
X909671Y166094D01*
X909607Y166055D01*
X909540Y166019D01*
X909472Y165986D01*
X909403Y165958D01*
X909332Y165932D01*
X909259Y165911D01*
X909186Y165893D01*
X909112Y165880D01*
X909037Y165870D01*
X908962Y165864D01*
X908887Y165862D01*
X908408Y165862D01*
X905495Y164902D02*
X901656Y175458D01*
X898501Y171619D02*
X898501Y165862D01*
X898740Y174018D02*
X898740Y174498D01*
X898261Y174498D01*
X898261Y174018D01*
X898740Y174018D01*
X892340Y174498D02*
X892248Y174496D01*
X892157Y174490D01*
X892066Y174481D01*
X891975Y174467D01*
X891885Y174450D01*
X891796Y174428D01*
X891708Y174403D01*
X891621Y174375D01*
X891535Y174342D01*
X891451Y174306D01*
X891368Y174267D01*
X891287Y174224D01*
X891208Y174177D01*
X891131Y174128D01*
X891056Y174075D01*
X890984Y174019D01*
X890914Y173960D01*
X890846Y173898D01*
X890781Y173833D01*
X890719Y173765D01*
X890660Y173695D01*
X890604Y173623D01*
X890551Y173548D01*
X890502Y173471D01*
X890455Y173392D01*
X890412Y173311D01*
X890373Y173228D01*
X890337Y173144D01*
X890304Y173058D01*
X890276Y172971D01*
X890251Y172883D01*
X890229Y172794D01*
X890212Y172704D01*
X890198Y172613D01*
X890189Y172522D01*
X890183Y172431D01*
X890181Y172339D01*
X892340Y174498D02*
X892443Y174496D01*
X892545Y174490D01*
X892647Y174481D01*
X892749Y174468D01*
X892850Y174451D01*
X892951Y174430D01*
X893050Y174406D01*
X893149Y174377D01*
X893246Y174346D01*
X893343Y174310D01*
X893438Y174272D01*
X893531Y174229D01*
X893623Y174183D01*
X893713Y174134D01*
X893801Y174082D01*
X893888Y174026D01*
X893972Y173967D01*
X894053Y173906D01*
X894133Y173841D01*
X894210Y173773D01*
X894285Y173702D01*
X894356Y173629D01*
X894425Y173553D01*
X894492Y173475D01*
X894555Y173394D01*
X894615Y173311D01*
X894672Y173226D01*
X894726Y173139D01*
X894777Y173049D01*
X894824Y172958D01*
X894868Y172866D01*
X894909Y172771D01*
X894946Y172676D01*
X894979Y172579D01*
X890901Y170660D02*
X890834Y170726D01*
X890770Y170795D01*
X890709Y170866D01*
X890651Y170940D01*
X890596Y171016D01*
X890544Y171094D01*
X890495Y171174D01*
X890449Y171256D01*
X890407Y171340D01*
X890368Y171426D01*
X890333Y171513D01*
X890302Y171601D01*
X890274Y171691D01*
X890249Y171781D01*
X890228Y171873D01*
X890211Y171965D01*
X890198Y172058D01*
X890189Y172151D01*
X890183Y172245D01*
X890181Y172339D01*
X890901Y170660D02*
X894979Y165862D01*
X890181Y165862D01*
X885155Y165862D02*
X883236Y165862D01*
X885155Y165862D02*
X885230Y165864D01*
X885305Y165870D01*
X885380Y165880D01*
X885454Y165893D01*
X885527Y165911D01*
X885600Y165932D01*
X885671Y165958D01*
X885740Y165986D01*
X885808Y166019D01*
X885875Y166055D01*
X885939Y166094D01*
X886001Y166137D01*
X886061Y166183D01*
X886118Y166232D01*
X886173Y166283D01*
X886224Y166338D01*
X886273Y166395D01*
X886319Y166455D01*
X886362Y166517D01*
X886401Y166582D01*
X886437Y166648D01*
X886470Y166716D01*
X886498Y166785D01*
X886524Y166856D01*
X886545Y166929D01*
X886563Y167002D01*
X886576Y167076D01*
X886586Y167151D01*
X886592Y167226D01*
X886594Y167301D01*
X886595Y167301D02*
X886595Y170180D01*
X886594Y170180D02*
X886592Y170255D01*
X886586Y170330D01*
X886576Y170405D01*
X886563Y170479D01*
X886545Y170552D01*
X886524Y170625D01*
X886498Y170696D01*
X886470Y170765D01*
X886437Y170833D01*
X886401Y170900D01*
X886362Y170964D01*
X886319Y171026D01*
X886273Y171086D01*
X886224Y171143D01*
X886173Y171198D01*
X886118Y171249D01*
X886061Y171298D01*
X886001Y171344D01*
X885939Y171387D01*
X885875Y171426D01*
X885808Y171462D01*
X885740Y171495D01*
X885671Y171523D01*
X885600Y171549D01*
X885527Y171570D01*
X885454Y171588D01*
X885380Y171601D01*
X885305Y171611D01*
X885230Y171617D01*
X885155Y171619D01*
X883236Y171619D01*
X877397Y174498D02*
X877305Y174496D01*
X877214Y174490D01*
X877123Y174481D01*
X877032Y174467D01*
X876942Y174450D01*
X876853Y174428D01*
X876765Y174403D01*
X876678Y174375D01*
X876592Y174342D01*
X876508Y174306D01*
X876425Y174267D01*
X876344Y174224D01*
X876265Y174177D01*
X876188Y174128D01*
X876113Y174075D01*
X876041Y174019D01*
X875971Y173960D01*
X875903Y173898D01*
X875838Y173833D01*
X875776Y173765D01*
X875717Y173695D01*
X875661Y173623D01*
X875608Y173548D01*
X875559Y173471D01*
X875512Y173392D01*
X875469Y173311D01*
X875430Y173228D01*
X875394Y173144D01*
X875361Y173058D01*
X875333Y172971D01*
X875308Y172883D01*
X875286Y172794D01*
X875269Y172704D01*
X875255Y172613D01*
X875246Y172522D01*
X875240Y172431D01*
X875238Y172339D01*
X877397Y174498D02*
X877500Y174496D01*
X877602Y174490D01*
X877704Y174481D01*
X877806Y174468D01*
X877907Y174451D01*
X878008Y174430D01*
X878107Y174406D01*
X878206Y174377D01*
X878303Y174346D01*
X878400Y174310D01*
X878495Y174272D01*
X878588Y174229D01*
X878680Y174183D01*
X878770Y174134D01*
X878858Y174082D01*
X878945Y174026D01*
X879029Y173967D01*
X879110Y173906D01*
X879190Y173841D01*
X879267Y173773D01*
X879342Y173702D01*
X879413Y173629D01*
X879482Y173553D01*
X879549Y173475D01*
X879612Y173394D01*
X879672Y173311D01*
X879729Y173226D01*
X879783Y173139D01*
X879834Y173049D01*
X879881Y172958D01*
X879925Y172866D01*
X879966Y172771D01*
X880003Y172676D01*
X880036Y172579D01*
X875958Y170660D02*
X875891Y170726D01*
X875827Y170795D01*
X875766Y170866D01*
X875708Y170940D01*
X875653Y171016D01*
X875601Y171094D01*
X875552Y171174D01*
X875506Y171256D01*
X875464Y171340D01*
X875425Y171426D01*
X875390Y171513D01*
X875359Y171601D01*
X875331Y171691D01*
X875306Y171781D01*
X875285Y171873D01*
X875268Y171965D01*
X875255Y172058D01*
X875246Y172151D01*
X875240Y172245D01*
X875238Y172339D01*
X875958Y170660D02*
X880036Y165862D01*
X875238Y165862D01*
X871212Y165862D02*
X871212Y171619D01*
X866894Y171619D01*
X866819Y171617D01*
X866744Y171611D01*
X866669Y171601D01*
X866595Y171588D01*
X866522Y171570D01*
X866449Y171549D01*
X866378Y171523D01*
X866309Y171495D01*
X866241Y171462D01*
X866175Y171426D01*
X866110Y171387D01*
X866048Y171344D01*
X865988Y171298D01*
X865931Y171249D01*
X865876Y171198D01*
X865825Y171143D01*
X865776Y171086D01*
X865730Y171026D01*
X865687Y170964D01*
X865648Y170900D01*
X865612Y170833D01*
X865579Y170765D01*
X865551Y170696D01*
X865525Y170625D01*
X865504Y170552D01*
X865486Y170479D01*
X865473Y170405D01*
X865463Y170330D01*
X865457Y170255D01*
X865455Y170180D01*
X865454Y170180D02*
X865454Y165862D01*
X868333Y165862D02*
X868333Y171619D01*
X861567Y171619D02*
X861567Y165862D01*
X861806Y174018D02*
X861806Y174498D01*
X861327Y174498D01*
X861327Y174018D01*
X861806Y174018D01*
X854335Y174498D02*
X854335Y165862D01*
X856733Y165862D01*
X856808Y165864D01*
X856883Y165870D01*
X856958Y165880D01*
X857032Y165893D01*
X857105Y165911D01*
X857178Y165932D01*
X857249Y165958D01*
X857318Y165986D01*
X857386Y166019D01*
X857453Y166055D01*
X857517Y166094D01*
X857579Y166137D01*
X857639Y166183D01*
X857696Y166232D01*
X857751Y166283D01*
X857802Y166338D01*
X857851Y166395D01*
X857897Y166455D01*
X857940Y166517D01*
X857979Y166582D01*
X858015Y166648D01*
X858048Y166716D01*
X858076Y166785D01*
X858102Y166856D01*
X858123Y166929D01*
X858141Y167002D01*
X858154Y167076D01*
X858164Y167151D01*
X858170Y167226D01*
X858172Y167301D01*
X858173Y167301D02*
X858173Y170180D01*
X858172Y170180D02*
X858170Y170255D01*
X858164Y170330D01*
X858154Y170405D01*
X858141Y170479D01*
X858123Y170552D01*
X858102Y170625D01*
X858076Y170696D01*
X858048Y170765D01*
X858015Y170833D01*
X857979Y170900D01*
X857940Y170964D01*
X857897Y171026D01*
X857851Y171086D01*
X857802Y171143D01*
X857751Y171198D01*
X857696Y171249D01*
X857639Y171298D01*
X857579Y171344D01*
X857517Y171387D01*
X857453Y171426D01*
X857386Y171462D01*
X857318Y171495D01*
X857249Y171523D01*
X857178Y171549D01*
X857105Y171570D01*
X857032Y171588D01*
X856958Y171601D01*
X856883Y171611D01*
X856808Y171617D01*
X856733Y171619D01*
X854335Y171619D01*
X850571Y171619D02*
X850571Y165862D01*
X850811Y174018D02*
X850811Y174498D01*
X850331Y174498D01*
X850331Y174018D01*
X850811Y174018D01*
X406922Y37307D02*
X406922Y35741D01*
X406922Y37307D02*
X401701Y37307D01*
X401701Y34174D01*
X401703Y34085D01*
X401709Y33997D01*
X401718Y33909D01*
X401731Y33821D01*
X401748Y33734D01*
X401768Y33648D01*
X401793Y33563D01*
X401820Y33478D01*
X401852Y33395D01*
X401886Y33314D01*
X401925Y33234D01*
X401966Y33156D01*
X402011Y33079D01*
X402059Y33005D01*
X402110Y32932D01*
X402164Y32862D01*
X402222Y32795D01*
X402282Y32729D01*
X402344Y32667D01*
X402410Y32607D01*
X402477Y32549D01*
X402547Y32495D01*
X402620Y32444D01*
X402694Y32396D01*
X402771Y32351D01*
X402849Y32310D01*
X402929Y32271D01*
X403010Y32237D01*
X403093Y32205D01*
X403178Y32178D01*
X403263Y32153D01*
X403349Y32133D01*
X403436Y32116D01*
X403524Y32103D01*
X403612Y32094D01*
X403700Y32088D01*
X403789Y32086D01*
X409011Y32086D01*
X409102Y32088D01*
X409193Y32094D01*
X409284Y32104D01*
X409374Y32118D01*
X409463Y32135D01*
X409551Y32157D01*
X409639Y32183D01*
X409725Y32212D01*
X409810Y32245D01*
X409893Y32282D01*
X409975Y32322D01*
X410055Y32366D01*
X410133Y32413D01*
X410209Y32464D01*
X410282Y32517D01*
X410353Y32574D01*
X410422Y32635D01*
X410487Y32698D01*
X410550Y32763D01*
X410610Y32832D01*
X410668Y32903D01*
X410721Y32976D01*
X410772Y33052D01*
X410819Y33130D01*
X410863Y33210D01*
X410903Y33292D01*
X410940Y33375D01*
X410973Y33460D01*
X411002Y33546D01*
X411028Y33634D01*
X411050Y33722D01*
X411067Y33811D01*
X411081Y33901D01*
X411091Y33992D01*
X411097Y34083D01*
X411099Y34174D01*
X411099Y37307D01*
X411099Y41839D02*
X401701Y41839D01*
X401701Y47061D02*
X411099Y41839D01*
X411099Y47061D02*
X401701Y47061D01*
X401701Y51593D02*
X411099Y51593D01*
X411099Y54204D01*
X411097Y54304D01*
X411091Y54404D01*
X411082Y54503D01*
X411068Y54603D01*
X411051Y54701D01*
X411030Y54799D01*
X411006Y54896D01*
X410977Y54992D01*
X410945Y55087D01*
X410910Y55180D01*
X410871Y55272D01*
X410828Y55363D01*
X410782Y55451D01*
X410732Y55538D01*
X410680Y55623D01*
X410624Y55706D01*
X410565Y55787D01*
X410502Y55865D01*
X410437Y55941D01*
X410369Y56015D01*
X410299Y56085D01*
X410225Y56153D01*
X410149Y56218D01*
X410071Y56281D01*
X409990Y56340D01*
X409907Y56396D01*
X409822Y56448D01*
X409735Y56498D01*
X409647Y56544D01*
X409556Y56587D01*
X409464Y56626D01*
X409371Y56661D01*
X409276Y56693D01*
X409180Y56722D01*
X409083Y56746D01*
X408985Y56767D01*
X408887Y56784D01*
X408787Y56798D01*
X408688Y56807D01*
X408588Y56813D01*
X408488Y56815D01*
X408488Y56814D02*
X404312Y56814D01*
X404312Y56815D02*
X404212Y56813D01*
X404112Y56807D01*
X404013Y56798D01*
X403913Y56784D01*
X403815Y56767D01*
X403717Y56746D01*
X403620Y56722D01*
X403524Y56693D01*
X403429Y56661D01*
X403336Y56626D01*
X403244Y56587D01*
X403153Y56544D01*
X403065Y56498D01*
X402978Y56448D01*
X402893Y56396D01*
X402810Y56340D01*
X402729Y56281D01*
X402651Y56218D01*
X402575Y56153D01*
X402501Y56085D01*
X402431Y56015D01*
X402363Y55941D01*
X402298Y55865D01*
X402235Y55787D01*
X402176Y55706D01*
X402120Y55623D01*
X402068Y55538D01*
X402018Y55451D01*
X401972Y55363D01*
X401929Y55272D01*
X401890Y55180D01*
X401855Y55087D01*
X401823Y54992D01*
X401794Y54896D01*
X401770Y54799D01*
X401749Y54701D01*
X401732Y54603D01*
X401718Y54503D01*
X401709Y54404D01*
X401703Y54304D01*
X401701Y54204D01*
X401701Y51593D01*
X904198Y19022D02*
X910463Y19022D01*
X900187Y22677D02*
X897577Y24765D01*
X897577Y15367D01*
X900187Y15367D02*
X894966Y15367D01*
X885822Y22416D02*
X885824Y22511D01*
X885830Y22605D01*
X885839Y22699D01*
X885852Y22793D01*
X885869Y22886D01*
X885890Y22978D01*
X885915Y23070D01*
X885943Y23160D01*
X885975Y23249D01*
X886010Y23337D01*
X886049Y23423D01*
X886091Y23508D01*
X886137Y23591D01*
X886186Y23672D01*
X886238Y23751D01*
X886293Y23828D01*
X886352Y23902D01*
X886413Y23974D01*
X886477Y24044D01*
X886544Y24111D01*
X886614Y24175D01*
X886686Y24236D01*
X886760Y24295D01*
X886837Y24350D01*
X886916Y24402D01*
X886997Y24451D01*
X887080Y24497D01*
X887165Y24539D01*
X887251Y24578D01*
X887339Y24613D01*
X887428Y24645D01*
X887518Y24673D01*
X887610Y24698D01*
X887702Y24719D01*
X887795Y24736D01*
X887889Y24749D01*
X887983Y24758D01*
X888077Y24764D01*
X888172Y24766D01*
X888172Y24765D02*
X888280Y24763D01*
X888389Y24757D01*
X888497Y24747D01*
X888604Y24734D01*
X888711Y24716D01*
X888818Y24695D01*
X888923Y24670D01*
X889028Y24641D01*
X889131Y24609D01*
X889233Y24572D01*
X889334Y24532D01*
X889433Y24489D01*
X889531Y24442D01*
X889627Y24391D01*
X889721Y24337D01*
X889813Y24280D01*
X889903Y24219D01*
X889991Y24155D01*
X890076Y24089D01*
X890159Y24019D01*
X890239Y23946D01*
X890317Y23870D01*
X890392Y23792D01*
X890464Y23711D01*
X890533Y23627D01*
X890599Y23541D01*
X890662Y23453D01*
X890721Y23362D01*
X890778Y23270D01*
X890831Y23175D01*
X890880Y23078D01*
X890926Y22980D01*
X890969Y22881D01*
X891008Y22779D01*
X891043Y22677D01*
X886605Y20588D02*
X886536Y20657D01*
X886470Y20728D01*
X886406Y20801D01*
X886345Y20877D01*
X886287Y20956D01*
X886233Y21036D01*
X886181Y21119D01*
X886133Y21203D01*
X886087Y21289D01*
X886046Y21377D01*
X886007Y21467D01*
X885972Y21558D01*
X885941Y21650D01*
X885913Y21743D01*
X885889Y21837D01*
X885869Y21932D01*
X885852Y22028D01*
X885839Y22125D01*
X885830Y22222D01*
X885824Y22319D01*
X885822Y22416D01*
X886605Y20588D02*
X891043Y15367D01*
X885822Y15367D01*
X879289Y15367D02*
X882422Y24765D01*
X876156Y24765D02*
X879289Y15367D01*
X429189Y39192D02*
X429100Y39190D01*
X429012Y39184D01*
X428924Y39175D01*
X428836Y39162D01*
X428749Y39145D01*
X428663Y39125D01*
X428578Y39100D01*
X428493Y39073D01*
X428410Y39041D01*
X428329Y39007D01*
X428249Y38968D01*
X428171Y38927D01*
X428094Y38882D01*
X428020Y38834D01*
X427947Y38783D01*
X427877Y38729D01*
X427810Y38671D01*
X427744Y38611D01*
X427682Y38549D01*
X427622Y38483D01*
X427564Y38416D01*
X427510Y38346D01*
X427459Y38273D01*
X427411Y38199D01*
X427366Y38122D01*
X427325Y38044D01*
X427286Y37964D01*
X427252Y37883D01*
X427220Y37800D01*
X427193Y37715D01*
X427168Y37630D01*
X427148Y37544D01*
X427131Y37457D01*
X427118Y37369D01*
X427109Y37281D01*
X427103Y37193D01*
X427101Y37104D01*
X427103Y36975D01*
X427109Y36846D01*
X427118Y36717D01*
X427131Y36589D01*
X427148Y36461D01*
X427169Y36334D01*
X427193Y36207D01*
X427221Y36081D01*
X427253Y35956D01*
X427288Y35832D01*
X427327Y35709D01*
X427370Y35587D01*
X427416Y35467D01*
X427466Y35348D01*
X427519Y35230D01*
X427575Y35114D01*
X427635Y35000D01*
X427698Y34887D01*
X427765Y34777D01*
X427834Y34668D01*
X427907Y34562D01*
X427983Y34457D01*
X428062Y34355D01*
X428144Y34256D01*
X428228Y34158D01*
X428316Y34063D01*
X428406Y33971D01*
X434411Y34232D02*
X434500Y34234D01*
X434588Y34240D01*
X434676Y34249D01*
X434764Y34262D01*
X434851Y34279D01*
X434937Y34299D01*
X435022Y34324D01*
X435107Y34351D01*
X435190Y34383D01*
X435271Y34417D01*
X435351Y34456D01*
X435429Y34497D01*
X435506Y34542D01*
X435580Y34590D01*
X435653Y34641D01*
X435723Y34695D01*
X435790Y34753D01*
X435856Y34813D01*
X435918Y34875D01*
X435978Y34941D01*
X436036Y35008D01*
X436090Y35078D01*
X436141Y35151D01*
X436189Y35225D01*
X436234Y35302D01*
X436275Y35380D01*
X436314Y35460D01*
X436348Y35541D01*
X436380Y35624D01*
X436407Y35709D01*
X436432Y35794D01*
X436452Y35880D01*
X436469Y35967D01*
X436482Y36055D01*
X436491Y36143D01*
X436497Y36231D01*
X436499Y36320D01*
X436497Y36440D01*
X436492Y36560D01*
X436482Y36680D01*
X436470Y36799D01*
X436453Y36918D01*
X436433Y37036D01*
X436409Y37154D01*
X436382Y37270D01*
X436351Y37386D01*
X436317Y37501D01*
X436279Y37615D01*
X436237Y37728D01*
X436192Y37839D01*
X436144Y37949D01*
X436093Y38057D01*
X436038Y38164D01*
X435980Y38269D01*
X435918Y38372D01*
X435854Y38473D01*
X435786Y38573D01*
X435716Y38670D01*
X432584Y35276D02*
X432632Y35198D01*
X432684Y35122D01*
X432738Y35049D01*
X432796Y34978D01*
X432857Y34909D01*
X432921Y34843D01*
X432988Y34780D01*
X433057Y34720D01*
X433129Y34663D01*
X433203Y34609D01*
X433280Y34559D01*
X433359Y34511D01*
X433439Y34468D01*
X433522Y34427D01*
X433606Y34391D01*
X433691Y34358D01*
X433778Y34329D01*
X433867Y34303D01*
X433956Y34281D01*
X434046Y34264D01*
X434136Y34250D01*
X434228Y34240D01*
X434319Y34234D01*
X434411Y34232D01*
X431016Y38148D02*
X430968Y38226D01*
X430916Y38302D01*
X430862Y38375D01*
X430804Y38446D01*
X430743Y38515D01*
X430679Y38581D01*
X430612Y38644D01*
X430543Y38704D01*
X430471Y38761D01*
X430397Y38815D01*
X430320Y38865D01*
X430241Y38913D01*
X430161Y38956D01*
X430078Y38997D01*
X429994Y39033D01*
X429909Y39066D01*
X429822Y39095D01*
X429733Y39121D01*
X429644Y39143D01*
X429554Y39160D01*
X429464Y39174D01*
X429372Y39184D01*
X429281Y39190D01*
X429189Y39192D01*
X431017Y38148D02*
X432583Y35276D01*
X427101Y44873D02*
X427101Y46961D01*
X427101Y44873D02*
X427103Y44784D01*
X427109Y44696D01*
X427118Y44608D01*
X427131Y44520D01*
X427148Y44433D01*
X427168Y44347D01*
X427193Y44262D01*
X427220Y44177D01*
X427252Y44094D01*
X427286Y44013D01*
X427325Y43933D01*
X427366Y43855D01*
X427411Y43778D01*
X427459Y43704D01*
X427510Y43631D01*
X427564Y43561D01*
X427622Y43494D01*
X427682Y43428D01*
X427744Y43366D01*
X427810Y43306D01*
X427877Y43248D01*
X427947Y43194D01*
X428020Y43143D01*
X428094Y43095D01*
X428171Y43050D01*
X428249Y43009D01*
X428329Y42970D01*
X428410Y42936D01*
X428493Y42904D01*
X428578Y42877D01*
X428663Y42852D01*
X428749Y42832D01*
X428836Y42815D01*
X428924Y42802D01*
X429012Y42793D01*
X429100Y42787D01*
X429189Y42785D01*
X429189Y42784D02*
X434411Y42784D01*
X434411Y42785D02*
X434502Y42787D01*
X434593Y42793D01*
X434684Y42803D01*
X434774Y42817D01*
X434863Y42834D01*
X434951Y42856D01*
X435039Y42882D01*
X435125Y42911D01*
X435210Y42944D01*
X435293Y42981D01*
X435375Y43021D01*
X435455Y43065D01*
X435533Y43112D01*
X435609Y43163D01*
X435682Y43216D01*
X435753Y43273D01*
X435822Y43334D01*
X435887Y43397D01*
X435950Y43462D01*
X436010Y43531D01*
X436068Y43602D01*
X436121Y43675D01*
X436172Y43751D01*
X436219Y43829D01*
X436263Y43909D01*
X436303Y43991D01*
X436340Y44074D01*
X436373Y44159D01*
X436402Y44245D01*
X436428Y44333D01*
X436450Y44421D01*
X436467Y44510D01*
X436481Y44600D01*
X436491Y44691D01*
X436497Y44782D01*
X436499Y44873D01*
X436499Y46961D01*
X436499Y50752D02*
X427101Y50752D01*
X427101Y54929D01*
X452501Y35415D02*
X452503Y35504D01*
X452509Y35592D01*
X452518Y35680D01*
X452531Y35768D01*
X452548Y35855D01*
X452568Y35941D01*
X452593Y36026D01*
X452620Y36111D01*
X452652Y36194D01*
X452686Y36275D01*
X452725Y36355D01*
X452766Y36433D01*
X452811Y36510D01*
X452859Y36584D01*
X452910Y36657D01*
X452964Y36727D01*
X453022Y36794D01*
X453082Y36860D01*
X453144Y36922D01*
X453210Y36982D01*
X453277Y37040D01*
X453347Y37094D01*
X453420Y37145D01*
X453494Y37193D01*
X453571Y37238D01*
X453649Y37279D01*
X453729Y37318D01*
X453810Y37352D01*
X453893Y37384D01*
X453978Y37411D01*
X454063Y37436D01*
X454149Y37456D01*
X454236Y37473D01*
X454324Y37486D01*
X454412Y37495D01*
X454500Y37501D01*
X454589Y37503D01*
X452501Y35415D02*
X452503Y35286D01*
X452509Y35157D01*
X452518Y35028D01*
X452531Y34900D01*
X452548Y34772D01*
X452569Y34645D01*
X452593Y34518D01*
X452621Y34392D01*
X452653Y34267D01*
X452688Y34143D01*
X452727Y34020D01*
X452770Y33898D01*
X452816Y33778D01*
X452866Y33659D01*
X452919Y33541D01*
X452975Y33425D01*
X453035Y33311D01*
X453098Y33198D01*
X453165Y33088D01*
X453234Y32979D01*
X453307Y32873D01*
X453383Y32768D01*
X453462Y32666D01*
X453544Y32567D01*
X453628Y32469D01*
X453716Y32374D01*
X453806Y32282D01*
X459811Y32544D02*
X459900Y32546D01*
X459988Y32552D01*
X460076Y32561D01*
X460164Y32574D01*
X460251Y32591D01*
X460337Y32611D01*
X460422Y32636D01*
X460507Y32663D01*
X460590Y32695D01*
X460671Y32729D01*
X460751Y32768D01*
X460829Y32809D01*
X460906Y32854D01*
X460980Y32902D01*
X461053Y32953D01*
X461123Y33007D01*
X461190Y33065D01*
X461256Y33125D01*
X461318Y33187D01*
X461378Y33253D01*
X461436Y33320D01*
X461490Y33390D01*
X461541Y33463D01*
X461589Y33537D01*
X461634Y33614D01*
X461675Y33692D01*
X461714Y33772D01*
X461748Y33853D01*
X461780Y33936D01*
X461807Y34021D01*
X461832Y34106D01*
X461852Y34192D01*
X461869Y34279D01*
X461882Y34367D01*
X461891Y34455D01*
X461897Y34543D01*
X461899Y34632D01*
X461899Y34631D02*
X461897Y34751D01*
X461892Y34871D01*
X461882Y34991D01*
X461870Y35110D01*
X461853Y35229D01*
X461833Y35347D01*
X461809Y35465D01*
X461782Y35581D01*
X461751Y35697D01*
X461717Y35812D01*
X461679Y35926D01*
X461637Y36039D01*
X461592Y36150D01*
X461544Y36260D01*
X461493Y36368D01*
X461438Y36475D01*
X461380Y36580D01*
X461318Y36683D01*
X461254Y36784D01*
X461186Y36884D01*
X461116Y36981D01*
X457984Y33587D02*
X458032Y33509D01*
X458084Y33433D01*
X458138Y33360D01*
X458196Y33289D01*
X458257Y33220D01*
X458321Y33154D01*
X458388Y33091D01*
X458457Y33031D01*
X458529Y32974D01*
X458603Y32920D01*
X458680Y32870D01*
X458759Y32822D01*
X458839Y32779D01*
X458922Y32738D01*
X459006Y32702D01*
X459091Y32669D01*
X459178Y32640D01*
X459267Y32614D01*
X459356Y32592D01*
X459446Y32575D01*
X459536Y32561D01*
X459628Y32551D01*
X459719Y32545D01*
X459811Y32543D01*
X456416Y36459D02*
X456368Y36537D01*
X456316Y36613D01*
X456262Y36686D01*
X456204Y36757D01*
X456143Y36826D01*
X456079Y36892D01*
X456012Y36955D01*
X455943Y37015D01*
X455871Y37072D01*
X455797Y37126D01*
X455720Y37176D01*
X455641Y37224D01*
X455561Y37267D01*
X455478Y37308D01*
X455394Y37344D01*
X455309Y37377D01*
X455222Y37406D01*
X455133Y37432D01*
X455044Y37454D01*
X454954Y37471D01*
X454864Y37485D01*
X454772Y37495D01*
X454681Y37501D01*
X454589Y37503D01*
X456417Y36459D02*
X457983Y33587D01*
X461899Y41426D02*
X452501Y41426D01*
X461899Y41426D02*
X461899Y44037D01*
X461897Y44137D01*
X461891Y44237D01*
X461882Y44336D01*
X461868Y44436D01*
X461851Y44534D01*
X461830Y44632D01*
X461806Y44729D01*
X461777Y44825D01*
X461745Y44920D01*
X461710Y45013D01*
X461671Y45105D01*
X461628Y45196D01*
X461582Y45284D01*
X461532Y45371D01*
X461480Y45456D01*
X461424Y45539D01*
X461365Y45620D01*
X461302Y45698D01*
X461237Y45774D01*
X461169Y45848D01*
X461099Y45918D01*
X461025Y45986D01*
X460949Y46051D01*
X460871Y46114D01*
X460790Y46173D01*
X460707Y46229D01*
X460622Y46281D01*
X460535Y46331D01*
X460447Y46377D01*
X460356Y46420D01*
X460264Y46459D01*
X460171Y46494D01*
X460076Y46526D01*
X459980Y46555D01*
X459883Y46579D01*
X459785Y46600D01*
X459687Y46617D01*
X459587Y46631D01*
X459488Y46640D01*
X459388Y46646D01*
X459288Y46648D01*
X459288Y46647D02*
X455112Y46647D01*
X455112Y46648D02*
X455012Y46646D01*
X454912Y46640D01*
X454813Y46631D01*
X454713Y46617D01*
X454615Y46600D01*
X454517Y46579D01*
X454420Y46555D01*
X454324Y46526D01*
X454229Y46494D01*
X454136Y46459D01*
X454044Y46420D01*
X453953Y46377D01*
X453865Y46331D01*
X453778Y46281D01*
X453693Y46229D01*
X453610Y46173D01*
X453529Y46114D01*
X453451Y46051D01*
X453375Y45986D01*
X453301Y45918D01*
X453231Y45848D01*
X453163Y45774D01*
X453098Y45698D01*
X453035Y45620D01*
X452976Y45539D01*
X452920Y45456D01*
X452868Y45371D01*
X452818Y45284D01*
X452772Y45196D01*
X452729Y45105D01*
X452690Y45013D01*
X452655Y44920D01*
X452623Y44825D01*
X452594Y44729D01*
X452570Y44632D01*
X452549Y44534D01*
X452532Y44436D01*
X452518Y44336D01*
X452509Y44237D01*
X452503Y44137D01*
X452501Y44037D01*
X452501Y41426D01*
X452501Y50353D02*
X461899Y53485D01*
X452501Y56618D01*
X454851Y55835D02*
X454851Y51136D01*
D11*
X938276Y14224D03*
D12*
X988822Y14224D03*
D11*
X1023874Y14224D03*
D13*
X1053465Y14224D03*
X1079627Y14224D03*
D11*
X938276Y14478D03*
D14*
X987298Y14478D03*
D11*
X1023874Y14478D03*
D13*
X1053465Y14478D03*
X1079627Y14478D03*
D11*
X938276Y14732D03*
D15*
X986663Y14732D03*
D11*
X1023874Y14732D03*
D13*
X1053465Y14732D03*
X1079627Y14732D03*
D11*
X938276Y14986D03*
D16*
X986155Y14986D03*
D11*
X1023874Y14986D03*
D13*
X1053465Y14986D03*
X1079627Y14986D03*
D11*
X938276Y15240D03*
D17*
X985647Y15240D03*
D11*
X1023874Y15240D03*
D13*
X1053465Y15240D03*
X1079627Y15240D03*
D11*
X938276Y15494D03*
D18*
X985393Y15494D03*
D11*
X1023874Y15494D03*
D13*
X1053465Y15494D03*
X1079627Y15494D03*
D11*
X938276Y15748D03*
D19*
X985012Y15748D03*
D11*
X1023874Y15748D03*
D13*
X1053465Y15748D03*
X1079627Y15748D03*
D11*
X938276Y16002D03*
D20*
X984758Y16002D03*
D11*
X1023874Y16002D03*
D13*
X1053465Y16002D03*
X1079627Y16002D03*
D11*
X938276Y16256D03*
D21*
X984504Y16256D03*
D11*
X1023874Y16256D03*
D13*
X1053465Y16256D03*
X1079627Y16256D03*
D11*
X938276Y16510D03*
D22*
X984250Y16510D03*
D11*
X1023874Y16510D03*
D13*
X1053465Y16510D03*
X1079627Y16510D03*
D11*
X938276Y16764D03*
D23*
X983996Y16764D03*
D11*
X1023874Y16764D03*
D13*
X1053465Y16764D03*
X1079627Y16764D03*
D11*
X938276Y17018D03*
D24*
X983869Y17018D03*
D11*
X1023874Y17018D03*
D13*
X1053465Y17018D03*
X1079627Y17018D03*
D11*
X938276Y17272D03*
D25*
X983615Y17272D03*
D11*
X1023874Y17272D03*
D13*
X1053465Y17272D03*
X1079627Y17272D03*
D11*
X938276Y17526D03*
D26*
X983488Y17526D03*
D11*
X1023874Y17526D03*
D13*
X1053465Y17526D03*
X1079627Y17526D03*
D11*
X938276Y17780D03*
D27*
X983361Y17780D03*
D11*
X1023874Y17780D03*
D13*
X1053465Y17780D03*
X1079627Y17780D03*
D11*
X938276Y18034D03*
D28*
X983107Y18034D03*
D11*
X1023874Y18034D03*
D13*
X1053465Y18034D03*
X1079627Y18034D03*
D11*
X938276Y18288D03*
D29*
X982980Y18288D03*
D11*
X1023874Y18288D03*
D13*
X1053465Y18288D03*
X1079627Y18288D03*
D11*
X938276Y18542D03*
D30*
X982853Y18542D03*
D11*
X1023874Y18542D03*
D13*
X1053465Y18542D03*
X1079627Y18542D03*
D11*
X938276Y18796D03*
D31*
X982726Y18796D03*
D11*
X1023874Y18796D03*
D13*
X1053465Y18796D03*
X1079627Y18796D03*
D11*
X938276Y19050D03*
D32*
X982599Y19050D03*
D11*
X1023874Y19050D03*
D13*
X1053465Y19050D03*
X1079627Y19050D03*
D11*
X938276Y19304D03*
D33*
X982472Y19304D03*
D11*
X1023874Y19304D03*
D13*
X1053465Y19304D03*
X1079627Y19304D03*
D11*
X938276Y19558D03*
D34*
X982345Y19558D03*
D11*
X1023874Y19558D03*
D13*
X1053465Y19558D03*
X1079627Y19558D03*
D11*
X938276Y19812D03*
D35*
X982218Y19812D03*
D11*
X1023874Y19812D03*
D13*
X1053465Y19812D03*
X1079627Y19812D03*
D11*
X938276Y20066D03*
D35*
X982218Y20066D03*
D11*
X1023874Y20066D03*
D13*
X1053465Y20066D03*
X1079627Y20066D03*
D11*
X938276Y20320D03*
D36*
X982091Y20320D03*
D11*
X1023874Y20320D03*
D13*
X1053465Y20320D03*
X1079627Y20320D03*
D37*
X938149Y20574D03*
D38*
X973836Y20574D03*
D39*
X992632Y20574D03*
D37*
X1023747Y20574D03*
D13*
X1053465Y20574D03*
X1079627Y20574D03*
D37*
X938149Y20828D03*
D40*
X973201Y20828D03*
D39*
X992632Y20828D03*
D37*
X1023747Y20828D03*
D13*
X1053465Y20828D03*
X1079627Y20828D03*
D37*
X938149Y21082D03*
D41*
X972566Y21082D03*
D39*
X992632Y21082D03*
D37*
X1023747Y21082D03*
D13*
X1053465Y21082D03*
X1079627Y21082D03*
D37*
X938149Y21336D03*
D42*
X972185Y21336D03*
D39*
X992632Y21336D03*
D37*
X1023747Y21336D03*
D13*
X1053465Y21336D03*
X1079627Y21336D03*
D37*
X938149Y21590D03*
D43*
X971931Y21590D03*
D39*
X992632Y21590D03*
D37*
X1023747Y21590D03*
D13*
X1053465Y21590D03*
X1079627Y21590D03*
D37*
X938149Y21844D03*
D44*
X971550Y21844D03*
D39*
X992632Y21844D03*
D37*
X1023747Y21844D03*
D13*
X1053465Y21844D03*
X1079627Y21844D03*
D37*
X938149Y22098D03*
D45*
X971296Y22098D03*
D39*
X992632Y22098D03*
D37*
X1023747Y22098D03*
D13*
X1053465Y22098D03*
X1079627Y22098D03*
D37*
X938149Y22352D03*
D45*
X971042Y22352D03*
D39*
X992632Y22352D03*
D37*
X1023747Y22352D03*
D13*
X1053465Y22352D03*
X1079627Y22352D03*
D37*
X938149Y22606D03*
D46*
X970915Y22606D03*
D39*
X992632Y22606D03*
D37*
X1023747Y22606D03*
D13*
X1053465Y22606D03*
X1079627Y22606D03*
D37*
X938149Y22860D03*
D46*
X970661Y22860D03*
D39*
X992632Y22860D03*
D37*
X1023747Y22860D03*
D13*
X1053465Y22860D03*
X1079627Y22860D03*
D37*
X938149Y23114D03*
D47*
X970534Y23114D03*
D39*
X992632Y23114D03*
D37*
X1023747Y23114D03*
D13*
X1053465Y23114D03*
X1079627Y23114D03*
D37*
X938149Y23368D03*
D47*
X970280Y23368D03*
D39*
X992632Y23368D03*
D37*
X1023747Y23368D03*
D13*
X1053465Y23368D03*
X1079627Y23368D03*
D37*
X938149Y23622D03*
D48*
X970153Y23622D03*
D39*
X992632Y23622D03*
D37*
X1023747Y23622D03*
D13*
X1053465Y23622D03*
X1079627Y23622D03*
D37*
X938149Y23876D03*
D49*
X970026Y23876D03*
D39*
X992632Y23876D03*
D37*
X1023747Y23876D03*
D13*
X1053465Y23876D03*
X1079627Y23876D03*
D37*
X938149Y24130D03*
D48*
X969899Y24130D03*
D39*
X992632Y24130D03*
D37*
X1023747Y24130D03*
D13*
X1053465Y24130D03*
X1079627Y24130D03*
D37*
X938149Y24384D03*
D49*
X969772Y24384D03*
D39*
X992632Y24384D03*
D37*
X1023747Y24384D03*
D13*
X1053465Y24384D03*
X1079627Y24384D03*
D37*
X938149Y24638D03*
X969645Y24638D03*
D39*
X992632Y24638D03*
D37*
X1023747Y24638D03*
D13*
X1053465Y24638D03*
X1079627Y24638D03*
D37*
X938149Y24892D03*
D49*
X969518Y24892D03*
D39*
X992632Y24892D03*
D37*
X1023747Y24892D03*
D13*
X1053465Y24892D03*
X1079627Y24892D03*
D37*
X938149Y25146D03*
X969391Y25146D03*
D39*
X992632Y25146D03*
D37*
X1023747Y25146D03*
D13*
X1053465Y25146D03*
X1079627Y25146D03*
D37*
X938149Y25400D03*
X969391Y25400D03*
D39*
X992632Y25400D03*
D37*
X1023747Y25400D03*
D13*
X1053465Y25400D03*
X1079627Y25400D03*
D37*
X938149Y25654D03*
X969391Y25654D03*
D39*
X992632Y25654D03*
D37*
X1023747Y25654D03*
D13*
X1053465Y25654D03*
X1079627Y25654D03*
D37*
X938149Y25908D03*
X969137Y25908D03*
D39*
X992632Y25908D03*
D37*
X1023747Y25908D03*
D13*
X1053465Y25908D03*
X1079627Y25908D03*
D37*
X938149Y26162D03*
X969137Y26162D03*
D39*
X992632Y26162D03*
D37*
X1023747Y26162D03*
D13*
X1053465Y26162D03*
X1079627Y26162D03*
D37*
X938149Y26416D03*
X969137Y26416D03*
D39*
X992632Y26416D03*
D37*
X1023747Y26416D03*
D13*
X1053465Y26416D03*
X1079627Y26416D03*
D37*
X938149Y26670D03*
X969137Y26670D03*
D39*
X992632Y26670D03*
D37*
X1023747Y26670D03*
D13*
X1053465Y26670D03*
X1079627Y26670D03*
D37*
X938149Y26924D03*
D39*
X969010Y26924D03*
X992632Y26924D03*
D37*
X1023747Y26924D03*
D13*
X1053465Y26924D03*
X1079627Y26924D03*
D37*
X938149Y27178D03*
D39*
X969010Y27178D03*
X992632Y27178D03*
D37*
X1023747Y27178D03*
D13*
X1053465Y27178D03*
X1079627Y27178D03*
D37*
X938149Y27432D03*
D39*
X969010Y27432D03*
X992632Y27432D03*
D37*
X1023747Y27432D03*
D13*
X1053465Y27432D03*
X1079627Y27432D03*
D37*
X938149Y27686D03*
X968883Y27686D03*
D39*
X992632Y27686D03*
D37*
X1023747Y27686D03*
D13*
X1053465Y27686D03*
X1079627Y27686D03*
D37*
X938149Y27940D03*
X968883Y27940D03*
D39*
X992632Y27940D03*
D37*
X1023747Y27940D03*
D13*
X1053465Y27940D03*
X1079627Y27940D03*
D37*
X938149Y28194D03*
X968883Y28194D03*
D39*
X992632Y28194D03*
D37*
X1023747Y28194D03*
D13*
X1053465Y28194D03*
X1079627Y28194D03*
D37*
X938149Y28448D03*
X968883Y28448D03*
D39*
X992632Y28448D03*
D37*
X1023747Y28448D03*
D13*
X1053465Y28448D03*
X1079627Y28448D03*
D37*
X938149Y28702D03*
X968883Y28702D03*
D39*
X992632Y28702D03*
D37*
X1023747Y28702D03*
D13*
X1053465Y28702D03*
X1079627Y28702D03*
D37*
X938149Y28956D03*
X968883Y28956D03*
D39*
X992632Y28956D03*
D37*
X1023747Y28956D03*
D13*
X1053465Y28956D03*
X1079627Y28956D03*
D37*
X938149Y29210D03*
X968883Y29210D03*
D39*
X992632Y29210D03*
D37*
X1023747Y29210D03*
D13*
X1053465Y29210D03*
X1079627Y29210D03*
D37*
X938149Y29464D03*
X968883Y29464D03*
D39*
X992632Y29464D03*
D37*
X1023747Y29464D03*
D13*
X1053465Y29464D03*
X1079627Y29464D03*
D37*
X938149Y29718D03*
X968883Y29718D03*
D39*
X992632Y29718D03*
D37*
X1023747Y29718D03*
D13*
X1053465Y29718D03*
X1079627Y29718D03*
D37*
X938149Y29972D03*
X968883Y29972D03*
D39*
X992632Y29972D03*
D37*
X1023747Y29972D03*
D13*
X1053465Y29972D03*
X1079627Y29972D03*
D37*
X938149Y30226D03*
X968883Y30226D03*
D39*
X992632Y30226D03*
D37*
X1023747Y30226D03*
D13*
X1053465Y30226D03*
X1079627Y30226D03*
D37*
X938149Y30480D03*
X968883Y30480D03*
D39*
X992632Y30480D03*
D37*
X1023747Y30480D03*
D13*
X1053465Y30480D03*
X1079627Y30480D03*
D37*
X938149Y30734D03*
X968883Y30734D03*
D39*
X992632Y30734D03*
D37*
X1023747Y30734D03*
D13*
X1053465Y30734D03*
X1079627Y30734D03*
D37*
X938149Y30988D03*
X968883Y30988D03*
D39*
X992632Y30988D03*
D37*
X1023747Y30988D03*
D13*
X1053465Y30988D03*
X1079627Y30988D03*
D37*
X938149Y31242D03*
X968883Y31242D03*
D39*
X992632Y31242D03*
D37*
X1023747Y31242D03*
D13*
X1053465Y31242D03*
X1079627Y31242D03*
D37*
X938149Y31496D03*
X968883Y31496D03*
D39*
X992632Y31496D03*
D37*
X1023747Y31496D03*
D13*
X1053465Y31496D03*
X1079627Y31496D03*
D37*
X938149Y31750D03*
X968883Y31750D03*
D39*
X992632Y31750D03*
D37*
X1023747Y31750D03*
D13*
X1053465Y31750D03*
X1079627Y31750D03*
D37*
X938149Y32004D03*
X968883Y32004D03*
D39*
X992632Y32004D03*
D37*
X1023747Y32004D03*
D13*
X1053465Y32004D03*
X1079627Y32004D03*
D37*
X938149Y32258D03*
X968883Y32258D03*
D39*
X992632Y32258D03*
D37*
X1023747Y32258D03*
D13*
X1053465Y32258D03*
X1079627Y32258D03*
D37*
X938149Y32512D03*
X968883Y32512D03*
D39*
X992632Y32512D03*
D37*
X1023747Y32512D03*
D13*
X1053465Y32512D03*
X1079627Y32512D03*
D37*
X938149Y32766D03*
X968883Y32766D03*
D39*
X992632Y32766D03*
D37*
X1023747Y32766D03*
D13*
X1053465Y32766D03*
X1079627Y32766D03*
D37*
X938149Y33020D03*
X968883Y33020D03*
D39*
X992632Y33020D03*
D37*
X1023747Y33020D03*
D13*
X1053465Y33020D03*
X1079627Y33020D03*
D37*
X938149Y33274D03*
X968883Y33274D03*
D39*
X992632Y33274D03*
D37*
X1023747Y33274D03*
D13*
X1053465Y33274D03*
X1079627Y33274D03*
D37*
X938149Y33528D03*
X968883Y33528D03*
D39*
X992632Y33528D03*
D37*
X1023747Y33528D03*
D13*
X1053465Y33528D03*
X1079627Y33528D03*
D37*
X938149Y33782D03*
X968883Y33782D03*
D39*
X992632Y33782D03*
D37*
X1023747Y33782D03*
D13*
X1053465Y33782D03*
X1079627Y33782D03*
D37*
X938149Y34036D03*
X968883Y34036D03*
D39*
X992632Y34036D03*
D37*
X1023747Y34036D03*
D13*
X1053465Y34036D03*
X1079627Y34036D03*
D37*
X938149Y34290D03*
X968883Y34290D03*
D39*
X992632Y34290D03*
D37*
X1023747Y34290D03*
D13*
X1053465Y34290D03*
D50*
X1079754Y34290D03*
D37*
X938149Y34544D03*
X968883Y34544D03*
D39*
X992632Y34544D03*
D37*
X1023747Y34544D03*
D13*
X1053465Y34544D03*
D50*
X1079754Y34544D03*
D37*
X938149Y34798D03*
X968883Y34798D03*
D39*
X992632Y34798D03*
D37*
X1023747Y34798D03*
D13*
X1053465Y34798D03*
D50*
X1079754Y34798D03*
D37*
X938149Y35052D03*
X968883Y35052D03*
D39*
X992632Y35052D03*
D37*
X1023747Y35052D03*
D13*
X1053465Y35052D03*
D50*
X1079754Y35052D03*
D37*
X938149Y35306D03*
X968883Y35306D03*
D39*
X992632Y35306D03*
D37*
X1023747Y35306D03*
D13*
X1053465Y35306D03*
D39*
X1066546Y35306D03*
D50*
X1079754Y35306D03*
D37*
X938149Y35560D03*
X968883Y35560D03*
D39*
X992632Y35560D03*
D37*
X1023747Y35560D03*
D13*
X1053465Y35560D03*
D39*
X1066546Y35560D03*
D50*
X1079754Y35560D03*
D37*
X938149Y35814D03*
X968883Y35814D03*
D39*
X992632Y35814D03*
D37*
X1023747Y35814D03*
D13*
X1053465Y35814D03*
D37*
X1066419Y35814D03*
D50*
X1079754Y35814D03*
D37*
X938149Y36068D03*
X968883Y36068D03*
D39*
X992632Y36068D03*
D37*
X1023747Y36068D03*
D13*
X1053465Y36068D03*
D49*
X1066546Y36068D03*
D50*
X1079754Y36068D03*
D37*
X938149Y36322D03*
X968883Y36322D03*
D39*
X992632Y36322D03*
D37*
X1023747Y36322D03*
D13*
X1053465Y36322D03*
D49*
X1066546Y36322D03*
D50*
X1079754Y36322D03*
D37*
X938149Y36576D03*
X968883Y36576D03*
D39*
X992632Y36576D03*
D37*
X1023747Y36576D03*
D13*
X1053465Y36576D03*
D48*
X1066419Y36576D03*
D50*
X1079754Y36576D03*
D37*
X938149Y36830D03*
X968883Y36830D03*
D39*
X992632Y36830D03*
D37*
X1023747Y36830D03*
D13*
X1053465Y36830D03*
D47*
X1066546Y36830D03*
D50*
X1079754Y36830D03*
D37*
X938149Y37084D03*
X968883Y37084D03*
D39*
X992632Y37084D03*
D37*
X1023747Y37084D03*
D13*
X1053465Y37084D03*
D47*
X1066546Y37084D03*
D50*
X1079754Y37084D03*
D37*
X938149Y37338D03*
X968883Y37338D03*
D39*
X992632Y37338D03*
D37*
X1023747Y37338D03*
D50*
X1053338Y37338D03*
D46*
X1066419Y37338D03*
D50*
X1079754Y37338D03*
D37*
X938149Y37592D03*
X968883Y37592D03*
D39*
X992632Y37592D03*
D37*
X1023747Y37592D03*
D50*
X1053338Y37592D03*
D45*
X1066546Y37592D03*
D50*
X1079754Y37592D03*
D37*
X938149Y37846D03*
X968883Y37846D03*
D39*
X992632Y37846D03*
D37*
X1023747Y37846D03*
D50*
X1053338Y37846D03*
D45*
X1066546Y37846D03*
D50*
X1079754Y37846D03*
D37*
X938149Y38100D03*
X968883Y38100D03*
D39*
X992632Y38100D03*
D37*
X1023747Y38100D03*
D50*
X1053338Y38100D03*
D51*
X1066419Y38100D03*
D50*
X1079754Y38100D03*
D37*
X938149Y38354D03*
X968883Y38354D03*
D39*
X992632Y38354D03*
D37*
X1023747Y38354D03*
D50*
X1053338Y38354D03*
D44*
X1066546Y38354D03*
D50*
X1079754Y38354D03*
D37*
X938149Y38608D03*
X968883Y38608D03*
D39*
X992632Y38608D03*
D37*
X1023747Y38608D03*
D50*
X1053338Y38608D03*
D44*
X1066546Y38608D03*
D50*
X1079754Y38608D03*
D37*
X938149Y38862D03*
X968883Y38862D03*
D39*
X992632Y38862D03*
D37*
X1023747Y38862D03*
D50*
X1053338Y38862D03*
D43*
X1066419Y38862D03*
D50*
X1079754Y38862D03*
D37*
X938149Y39116D03*
X968883Y39116D03*
D39*
X992632Y39116D03*
D37*
X1023747Y39116D03*
D50*
X1053338Y39116D03*
D52*
X1066546Y39116D03*
D50*
X1079754Y39116D03*
D37*
X938149Y39370D03*
X968883Y39370D03*
D39*
X992632Y39370D03*
D37*
X1023747Y39370D03*
D50*
X1053338Y39370D03*
D52*
X1066546Y39370D03*
D53*
X1079881Y39370D03*
D37*
X938149Y39624D03*
X968883Y39624D03*
D39*
X992632Y39624D03*
D37*
X1023747Y39624D03*
D50*
X1053338Y39624D03*
D52*
X1066546Y39624D03*
D53*
X1079881Y39624D03*
D37*
X938149Y39878D03*
X968883Y39878D03*
D39*
X992632Y39878D03*
D37*
X1023747Y39878D03*
D50*
X1053338Y39878D03*
D54*
X1063752Y39878D03*
D55*
X1069213Y39878D03*
D53*
X1079881Y39878D03*
D37*
X938149Y40132D03*
X968883Y40132D03*
D39*
X992632Y40132D03*
D37*
X1023747Y40132D03*
D50*
X1053338Y40132D03*
D54*
X1063752Y40132D03*
D55*
X1069213Y40132D03*
D53*
X1079881Y40132D03*
D37*
X938149Y40386D03*
X968883Y40386D03*
D39*
X992632Y40386D03*
D37*
X1023747Y40386D03*
D50*
X1053338Y40386D03*
D54*
X1063752Y40386D03*
D56*
X1069340Y40386D03*
D53*
X1079881Y40386D03*
D37*
X938149Y40640D03*
X968883Y40640D03*
D39*
X992632Y40640D03*
D37*
X1023747Y40640D03*
D50*
X1053338Y40640D03*
D55*
X1063625Y40640D03*
X1069467Y40640D03*
D53*
X1079881Y40640D03*
D37*
X938149Y40894D03*
X968883Y40894D03*
D39*
X992632Y40894D03*
D37*
X1023747Y40894D03*
D50*
X1053338Y40894D03*
D54*
X1063498Y40894D03*
D55*
X1069467Y40894D03*
D53*
X1079881Y40894D03*
D37*
X938149Y41148D03*
X968883Y41148D03*
D39*
X992632Y41148D03*
D37*
X1023747Y41148D03*
D50*
X1053338Y41148D03*
D54*
X1063498Y41148D03*
D56*
X1069594Y41148D03*
D53*
X1079881Y41148D03*
D37*
X938149Y41402D03*
X968883Y41402D03*
D39*
X992632Y41402D03*
D37*
X1023747Y41402D03*
D50*
X1053338Y41402D03*
D55*
X1063371Y41402D03*
D56*
X1069594Y41402D03*
D53*
X1079881Y41402D03*
D37*
X938149Y41656D03*
X968883Y41656D03*
D39*
X992632Y41656D03*
D37*
X1023747Y41656D03*
D53*
X1053211Y41656D03*
D55*
X1063371Y41656D03*
X1069721Y41656D03*
D53*
X1079881Y41656D03*
D37*
X938149Y41910D03*
X968883Y41910D03*
D39*
X992632Y41910D03*
D37*
X1023747Y41910D03*
D53*
X1053211Y41910D03*
D54*
X1063244Y41910D03*
D56*
X1069848Y41910D03*
D53*
X1079881Y41910D03*
D37*
X938149Y42164D03*
X968883Y42164D03*
D39*
X992632Y42164D03*
D37*
X1023747Y42164D03*
D53*
X1053211Y42164D03*
D55*
X1063117Y42164D03*
D56*
X1069848Y42164D03*
D53*
X1079881Y42164D03*
D37*
X938149Y42418D03*
X968883Y42418D03*
D39*
X992632Y42418D03*
D37*
X1023747Y42418D03*
D53*
X1053211Y42418D03*
D55*
X1063117Y42418D03*
D56*
X1069848Y42418D03*
D53*
X1079881Y42418D03*
D37*
X938149Y42672D03*
X968883Y42672D03*
D39*
X992632Y42672D03*
D37*
X1023747Y42672D03*
D53*
X1053211Y42672D03*
D54*
X1062990Y42672D03*
D56*
X1070102Y42672D03*
D53*
X1079881Y42672D03*
D37*
X938149Y42926D03*
X968883Y42926D03*
D39*
X992632Y42926D03*
D37*
X1023747Y42926D03*
D53*
X1053211Y42926D03*
D55*
X1062863Y42926D03*
D56*
X1070102Y42926D03*
D53*
X1079881Y42926D03*
D37*
X938149Y43180D03*
X968883Y43180D03*
D39*
X992632Y43180D03*
D37*
X1023747Y43180D03*
D53*
X1053211Y43180D03*
D55*
X1062863Y43180D03*
D56*
X1070102Y43180D03*
D57*
X1080008Y43180D03*
D37*
X938149Y43434D03*
X968883Y43434D03*
D39*
X992632Y43434D03*
D37*
X1023747Y43434D03*
D53*
X1053211Y43434D03*
D55*
X1062863Y43434D03*
D56*
X1070356Y43434D03*
D57*
X1080008Y43434D03*
D37*
X938149Y43688D03*
X968883Y43688D03*
D39*
X992632Y43688D03*
D37*
X1023747Y43688D03*
D53*
X1053211Y43688D03*
D55*
X1062609Y43688D03*
D56*
X1070356Y43688D03*
D57*
X1080008Y43688D03*
D37*
X938149Y43942D03*
X968883Y43942D03*
D39*
X992632Y43942D03*
D37*
X1023747Y43942D03*
D53*
X1053211Y43942D03*
D55*
X1062609Y43942D03*
D56*
X1070356Y43942D03*
D57*
X1080008Y43942D03*
D37*
X938149Y44196D03*
X968883Y44196D03*
D39*
X992632Y44196D03*
D37*
X1023747Y44196D03*
D53*
X1053211Y44196D03*
D55*
X1062609Y44196D03*
D56*
X1070610Y44196D03*
D57*
X1080008Y44196D03*
D37*
X938149Y44450D03*
X968883Y44450D03*
D39*
X992632Y44450D03*
D37*
X1023747Y44450D03*
D53*
X1053211Y44450D03*
D55*
X1062355Y44450D03*
D56*
X1070610Y44450D03*
D57*
X1080008Y44450D03*
D37*
X938149Y44704D03*
X968883Y44704D03*
D39*
X992632Y44704D03*
D37*
X1023747Y44704D03*
D57*
X1053084Y44704D03*
D55*
X1062355Y44704D03*
D56*
X1070610Y44704D03*
D57*
X1080008Y44704D03*
D37*
X938149Y44958D03*
X968883Y44958D03*
D39*
X992632Y44958D03*
D37*
X1023747Y44958D03*
D57*
X1053084Y44958D03*
D55*
X1062355Y44958D03*
D56*
X1070864Y44958D03*
D57*
X1080008Y44958D03*
D37*
X938149Y45212D03*
X968883Y45212D03*
D39*
X992632Y45212D03*
D37*
X1023747Y45212D03*
D57*
X1053084Y45212D03*
D56*
X1062228Y45212D03*
X1070864Y45212D03*
D57*
X1080008Y45212D03*
D37*
X938149Y45466D03*
X968883Y45466D03*
D39*
X992632Y45466D03*
D37*
X1023747Y45466D03*
D57*
X1053084Y45466D03*
D55*
X1062101Y45466D03*
D56*
X1070864Y45466D03*
D57*
X1080008Y45466D03*
D37*
X938149Y45720D03*
X968883Y45720D03*
D39*
X992632Y45720D03*
D37*
X1023747Y45720D03*
D57*
X1053084Y45720D03*
D55*
X1062101Y45720D03*
D56*
X1071118Y45720D03*
D57*
X1080008Y45720D03*
D37*
X938149Y45974D03*
X968883Y45974D03*
D39*
X992632Y45974D03*
D37*
X1023747Y45974D03*
D57*
X1053084Y45974D03*
D56*
X1061974Y45974D03*
X1071118Y45974D03*
D57*
X1080008Y45974D03*
D37*
X938149Y46228D03*
X968883Y46228D03*
D39*
X992632Y46228D03*
D37*
X1023747Y46228D03*
D57*
X1053084Y46228D03*
D55*
X1061847Y46228D03*
D56*
X1071118Y46228D03*
D57*
X1080008Y46228D03*
D37*
X938149Y46482D03*
X968883Y46482D03*
D39*
X992632Y46482D03*
D37*
X1023747Y46482D03*
D57*
X1053084Y46482D03*
D55*
X1061847Y46482D03*
D56*
X1071372Y46482D03*
D57*
X1080008Y46482D03*
D37*
X938149Y46736D03*
X968883Y46736D03*
D39*
X992632Y46736D03*
D37*
X1023747Y46736D03*
D57*
X1053084Y46736D03*
D56*
X1061720Y46736D03*
X1071372Y46736D03*
D58*
X1080135Y46736D03*
D37*
X938149Y46990D03*
X968883Y46990D03*
D39*
X992632Y46990D03*
D37*
X1023747Y46990D03*
D57*
X1053084Y46990D03*
D55*
X1061593Y46990D03*
D56*
X1071372Y46990D03*
D58*
X1080135Y46990D03*
D37*
X938149Y47244D03*
X968883Y47244D03*
D39*
X992632Y47244D03*
D37*
X1023747Y47244D03*
D57*
X1053084Y47244D03*
D55*
X1061593Y47244D03*
D56*
X1071626Y47244D03*
D58*
X1080135Y47244D03*
D37*
X938149Y47498D03*
X968883Y47498D03*
D39*
X992632Y47498D03*
D37*
X1023747Y47498D03*
D58*
X1052957Y47498D03*
D56*
X1061466Y47498D03*
X1071626Y47498D03*
D58*
X1080135Y47498D03*
D37*
X938149Y47752D03*
X968883Y47752D03*
D39*
X992632Y47752D03*
D37*
X1023747Y47752D03*
D58*
X1052957Y47752D03*
D55*
X1061339Y47752D03*
D56*
X1071626Y47752D03*
D58*
X1080135Y47752D03*
D37*
X938149Y48006D03*
X968883Y48006D03*
D39*
X992632Y48006D03*
D37*
X1023747Y48006D03*
D58*
X1052957Y48006D03*
D55*
X1061339Y48006D03*
D56*
X1071880Y48006D03*
D58*
X1080135Y48006D03*
D37*
X938149Y48260D03*
X968883Y48260D03*
D39*
X992632Y48260D03*
D37*
X1023747Y48260D03*
D58*
X1052957Y48260D03*
D56*
X1061212Y48260D03*
X1071880Y48260D03*
D58*
X1080135Y48260D03*
D37*
X938149Y48514D03*
X968883Y48514D03*
D39*
X992632Y48514D03*
D37*
X1023747Y48514D03*
D58*
X1052957Y48514D03*
D55*
X1061085Y48514D03*
D56*
X1071880Y48514D03*
D58*
X1080135Y48514D03*
D37*
X938149Y48768D03*
X968883Y48768D03*
D39*
X992632Y48768D03*
D37*
X1023747Y48768D03*
D58*
X1052957Y48768D03*
D55*
X1061085Y48768D03*
D56*
X1072134Y48768D03*
D58*
X1080135Y48768D03*
D37*
X938149Y49022D03*
D39*
X969010Y49022D03*
X992632Y49022D03*
D37*
X1023747Y49022D03*
D58*
X1052957Y49022D03*
D56*
X1060958Y49022D03*
X1072134Y49022D03*
D58*
X1080135Y49022D03*
D37*
X938149Y49276D03*
D39*
X969010Y49276D03*
X992632Y49276D03*
D37*
X1023747Y49276D03*
D58*
X1052957Y49276D03*
D55*
X1060831Y49276D03*
D56*
X1072134Y49276D03*
D58*
X1080135Y49276D03*
D37*
X938149Y49530D03*
D39*
X969010Y49530D03*
X992632Y49530D03*
D37*
X1023747Y49530D03*
D58*
X1052957Y49530D03*
D55*
X1060831Y49530D03*
D56*
X1072388Y49530D03*
D58*
X1080135Y49530D03*
D37*
X938149Y49784D03*
X969137Y49784D03*
D39*
X992632Y49784D03*
D37*
X1023747Y49784D03*
D58*
X1052957Y49784D03*
D56*
X1060704Y49784D03*
X1072388Y49784D03*
D59*
X1080262Y49784D03*
D37*
X938149Y50038D03*
X969137Y50038D03*
D39*
X992632Y50038D03*
D37*
X1023747Y50038D03*
D59*
X1052830Y50038D03*
D55*
X1060577Y50038D03*
D56*
X1072388Y50038D03*
D59*
X1080262Y50038D03*
D37*
X938149Y50292D03*
X969137Y50292D03*
D39*
X992632Y50292D03*
D37*
X1023747Y50292D03*
D59*
X1052830Y50292D03*
D55*
X1060577Y50292D03*
D56*
X1072642Y50292D03*
D59*
X1080262Y50292D03*
D37*
X938149Y50546D03*
X969137Y50546D03*
D39*
X992632Y50546D03*
D37*
X1023747Y50546D03*
D59*
X1052830Y50546D03*
D56*
X1060450Y50546D03*
X1072642Y50546D03*
D59*
X1080262Y50546D03*
D37*
X938149Y50800D03*
D49*
X969264Y50800D03*
D39*
X992632Y50800D03*
D37*
X1023747Y50800D03*
D59*
X1052830Y50800D03*
D56*
X1060450Y50800D03*
X1072642Y50800D03*
D59*
X1080262Y50800D03*
D37*
X938149Y51054D03*
X969391Y51054D03*
D39*
X992632Y51054D03*
D37*
X1023747Y51054D03*
D59*
X1052830Y51054D03*
D55*
X1060323Y51054D03*
D56*
X1072896Y51054D03*
D59*
X1080262Y51054D03*
D37*
X938149Y51308D03*
X969391Y51308D03*
D39*
X992632Y51308D03*
D37*
X1023747Y51308D03*
D59*
X1052830Y51308D03*
D56*
X1060196Y51308D03*
X1072896Y51308D03*
D59*
X1080262Y51308D03*
D37*
X938149Y51562D03*
D49*
X969518Y51562D03*
D39*
X992632Y51562D03*
D37*
X1023747Y51562D03*
D59*
X1052830Y51562D03*
D56*
X1060196Y51562D03*
X1072896Y51562D03*
D59*
X1080262Y51562D03*
D37*
X938149Y51816D03*
D49*
X969518Y51816D03*
D39*
X992632Y51816D03*
D37*
X1023747Y51816D03*
D59*
X1052830Y51816D03*
D55*
X1060069Y51816D03*
D56*
X1073150Y51816D03*
D59*
X1080262Y51816D03*
D37*
X938149Y52070D03*
D49*
X969772Y52070D03*
D39*
X992632Y52070D03*
D37*
X1023747Y52070D03*
D59*
X1052830Y52070D03*
D56*
X1059942Y52070D03*
X1073150Y52070D03*
D59*
X1080262Y52070D03*
D37*
X938149Y52324D03*
D48*
X969899Y52324D03*
D39*
X992632Y52324D03*
D37*
X1023747Y52324D03*
D59*
X1052830Y52324D03*
D56*
X1059942Y52324D03*
X1073150Y52324D03*
D60*
X1080389Y52324D03*
D37*
X938149Y52578D03*
D48*
X969899Y52578D03*
D39*
X992632Y52578D03*
D37*
X1023747Y52578D03*
D60*
X1052703Y52578D03*
D55*
X1059815Y52578D03*
D56*
X1073404Y52578D03*
D60*
X1080389Y52578D03*
D37*
X938149Y52832D03*
D48*
X970153Y52832D03*
D39*
X992632Y52832D03*
D37*
X1023747Y52832D03*
D60*
X1052703Y52832D03*
D56*
X1059688Y52832D03*
X1073404Y52832D03*
D60*
X1080389Y52832D03*
D37*
X938149Y53086D03*
D47*
X970280Y53086D03*
D39*
X992632Y53086D03*
D37*
X1023747Y53086D03*
D60*
X1052703Y53086D03*
D56*
X1059688Y53086D03*
X1073404Y53086D03*
D60*
X1080389Y53086D03*
D37*
X938149Y53340D03*
D47*
X970534Y53340D03*
D39*
X992632Y53340D03*
D37*
X1023747Y53340D03*
D60*
X1052703Y53340D03*
D55*
X1059561Y53340D03*
D56*
X1073658Y53340D03*
D60*
X1080389Y53340D03*
D37*
X938149Y53594D03*
D46*
X970661Y53594D03*
D39*
X992632Y53594D03*
D37*
X1023747Y53594D03*
D60*
X1052703Y53594D03*
D56*
X1059434Y53594D03*
X1073658Y53594D03*
D60*
X1080389Y53594D03*
D37*
X938149Y53848D03*
D45*
X970788Y53848D03*
D39*
X992632Y53848D03*
D37*
X1023747Y53848D03*
D60*
X1052703Y53848D03*
D56*
X1059434Y53848D03*
X1073658Y53848D03*
D60*
X1080389Y53848D03*
D37*
X938149Y54102D03*
D45*
X971042Y54102D03*
D39*
X992632Y54102D03*
D37*
X1023747Y54102D03*
D60*
X1052703Y54102D03*
D55*
X1059307Y54102D03*
D56*
X1073912Y54102D03*
D60*
X1080389Y54102D03*
D37*
X938149Y54356D03*
D51*
X971169Y54356D03*
D39*
X992632Y54356D03*
D37*
X1023747Y54356D03*
D60*
X1052703Y54356D03*
D56*
X1059180Y54356D03*
X1073912Y54356D03*
D60*
X1080389Y54356D03*
D37*
X938149Y54610D03*
D44*
X971550Y54610D03*
D39*
X992632Y54610D03*
D37*
X1023747Y54610D03*
D60*
X1052703Y54610D03*
D56*
X1059180Y54610D03*
X1073912Y54610D03*
X1080516Y54610D03*
D37*
X938149Y54864D03*
D43*
X971677Y54864D03*
D39*
X992632Y54864D03*
D37*
X1023747Y54864D03*
D60*
X1052703Y54864D03*
D55*
X1059053Y54864D03*
D56*
X1074166Y54864D03*
X1080516Y54864D03*
D37*
X938149Y55118D03*
D42*
X972185Y55118D03*
D39*
X992632Y55118D03*
D37*
X1023747Y55118D03*
D56*
X1052576Y55118D03*
D55*
X1059053Y55118D03*
D56*
X1074166Y55118D03*
X1080516Y55118D03*
D37*
X938149Y55372D03*
D41*
X972566Y55372D03*
D39*
X992632Y55372D03*
D37*
X1023747Y55372D03*
D56*
X1052576Y55372D03*
X1058926Y55372D03*
X1074166Y55372D03*
X1080516Y55372D03*
D37*
X938149Y55626D03*
D40*
X972947Y55626D03*
D39*
X992632Y55626D03*
D37*
X1023747Y55626D03*
D56*
X1052576Y55626D03*
D55*
X1058799Y55626D03*
D56*
X1074420Y55626D03*
X1080516Y55626D03*
D37*
X938149Y55880D03*
D61*
X973709Y55880D03*
D39*
X992632Y55880D03*
D37*
X1023747Y55880D03*
D56*
X1052576Y55880D03*
D55*
X1058799Y55880D03*
D56*
X1074420Y55880D03*
X1080516Y55880D03*
D37*
X938149Y56134D03*
D36*
X982091Y56134D03*
D37*
X1023747Y56134D03*
D56*
X1052576Y56134D03*
X1058672Y56134D03*
X1074420Y56134D03*
X1080516Y56134D03*
D11*
X938276Y56388D03*
D36*
X982091Y56388D03*
D11*
X1023874Y56388D03*
D56*
X1052576Y56388D03*
D55*
X1058545Y56388D03*
D56*
X1074674Y56388D03*
X1080516Y56388D03*
D11*
X938276Y56642D03*
D35*
X982218Y56642D03*
D11*
X1023874Y56642D03*
D56*
X1052576Y56642D03*
D55*
X1058545Y56642D03*
D56*
X1074674Y56642D03*
X1080516Y56642D03*
D11*
X938276Y56896D03*
D34*
X982345Y56896D03*
D11*
X1023874Y56896D03*
D56*
X1052576Y56896D03*
X1058418Y56896D03*
X1074674Y56896D03*
D55*
X1080643Y56896D03*
D11*
X938276Y57150D03*
D33*
X982472Y57150D03*
D11*
X1023874Y57150D03*
D56*
X1052576Y57150D03*
D55*
X1058291Y57150D03*
D56*
X1074928Y57150D03*
D55*
X1080643Y57150D03*
D11*
X938276Y57404D03*
D32*
X982599Y57404D03*
D11*
X1023874Y57404D03*
D56*
X1052576Y57404D03*
D55*
X1058291Y57404D03*
D56*
X1074928Y57404D03*
D55*
X1080643Y57404D03*
D11*
X938276Y57658D03*
D31*
X982726Y57658D03*
D11*
X1023874Y57658D03*
D55*
X1052449Y57658D03*
D56*
X1058164Y57658D03*
X1074928Y57658D03*
D55*
X1080643Y57658D03*
D11*
X938276Y57912D03*
D30*
X982853Y57912D03*
D11*
X1023874Y57912D03*
D55*
X1052449Y57912D03*
X1058037Y57912D03*
D56*
X1075182Y57912D03*
D55*
X1080643Y57912D03*
D11*
X938276Y58166D03*
D29*
X982980Y58166D03*
D11*
X1023874Y58166D03*
D55*
X1052449Y58166D03*
X1058037Y58166D03*
D56*
X1075182Y58166D03*
D55*
X1080643Y58166D03*
D11*
X938276Y58420D03*
D28*
X983107Y58420D03*
D11*
X1023874Y58420D03*
D55*
X1052449Y58420D03*
D56*
X1057910Y58420D03*
X1075182Y58420D03*
D55*
X1080643Y58420D03*
D11*
X938276Y58674D03*
D62*
X983234Y58674D03*
D11*
X1023874Y58674D03*
D63*
X1055243Y58674D03*
D41*
X1077976Y58674D03*
D11*
X938276Y58928D03*
D26*
X983488Y58928D03*
D11*
X1023874Y58928D03*
D41*
X1055116Y58928D03*
X1077976Y58928D03*
D11*
X938276Y59182D03*
D25*
X983615Y59182D03*
D11*
X1023874Y59182D03*
D41*
X1055116Y59182D03*
X1077976Y59182D03*
D11*
X938276Y59436D03*
D24*
X983869Y59436D03*
D11*
X1023874Y59436D03*
D41*
X1055116Y59436D03*
D42*
X1078103Y59436D03*
D11*
X938276Y59690D03*
D23*
X983996Y59690D03*
D11*
X1023874Y59690D03*
D42*
X1054989Y59690D03*
X1078103Y59690D03*
D11*
X938276Y59944D03*
D22*
X984250Y59944D03*
D11*
X1023874Y59944D03*
D42*
X1054989Y59944D03*
X1078103Y59944D03*
D11*
X938276Y60198D03*
D21*
X984504Y60198D03*
D11*
X1023874Y60198D03*
D42*
X1054989Y60198D03*
D52*
X1078230Y60198D03*
D11*
X938276Y60452D03*
D20*
X984758Y60452D03*
D11*
X1023874Y60452D03*
D52*
X1054862Y60452D03*
X1078230Y60452D03*
D11*
X938276Y60706D03*
D19*
X985012Y60706D03*
D11*
X1023874Y60706D03*
D52*
X1054862Y60706D03*
X1078230Y60706D03*
D11*
X938276Y60960D03*
D64*
X985266Y60960D03*
D11*
X1023874Y60960D03*
D52*
X1054862Y60960D03*
D43*
X1078357Y60960D03*
D11*
X938276Y61214D03*
D17*
X985647Y61214D03*
D11*
X1023874Y61214D03*
D43*
X1054735Y61214D03*
X1078357Y61214D03*
D11*
X938276Y61468D03*
D65*
X986028Y61468D03*
D11*
X1023874Y61468D03*
D43*
X1054735Y61468D03*
X1078357Y61468D03*
D11*
X938276Y61722D03*
D66*
X986536Y61722D03*
D11*
X1023874Y61722D03*
D43*
X1054735Y61722D03*
D44*
X1078484Y61722D03*
D11*
X938276Y61976D03*
D67*
X987171Y61976D03*
D11*
X1023874Y61976D03*
D44*
X1054608Y61976D03*
X1078484Y61976D03*
D11*
X938276Y62230D03*
D68*
X988441Y62230D03*
D11*
X1023874Y62230D03*
D44*
X1054608Y62230D03*
X1078484Y62230D03*
D60*
X980821Y70866D03*
D45*
X980694Y71120D03*
D69*
X937641Y71374D03*
D70*
X980694Y71374D03*
D69*
X1023239Y71374D03*
D11*
X1066546Y71374D03*
D69*
X937641Y71628D03*
D71*
X980821Y71628D03*
D69*
X1023239Y71628D03*
D11*
X1066546Y71628D03*
D69*
X937641Y71882D03*
D72*
X980821Y71882D03*
D69*
X1023239Y71882D03*
D11*
X1066546Y71882D03*
D69*
X937641Y72136D03*
D73*
X980694Y72136D03*
D69*
X1023239Y72136D03*
D11*
X1066546Y72136D03*
D69*
X937641Y72390D03*
D74*
X980821Y72390D03*
D69*
X1023239Y72390D03*
D11*
X1066546Y72390D03*
D69*
X937641Y72644D03*
D75*
X980821Y72644D03*
D69*
X1023239Y72644D03*
D11*
X1066546Y72644D03*
D69*
X937641Y72898D03*
D76*
X980694Y72898D03*
D69*
X1023239Y72898D03*
D11*
X1066546Y72898D03*
D69*
X937641Y73152D03*
D15*
X980821Y73152D03*
D69*
X1023239Y73152D03*
D11*
X1066546Y73152D03*
D69*
X937641Y73406D03*
D16*
X980821Y73406D03*
D69*
X1023239Y73406D03*
D11*
X1066546Y73406D03*
D69*
X937641Y73660D03*
D77*
X980821Y73660D03*
D69*
X1023239Y73660D03*
D11*
X1066546Y73660D03*
D69*
X937641Y73914D03*
D18*
X980821Y73914D03*
D69*
X1023239Y73914D03*
D11*
X1066546Y73914D03*
D69*
X937641Y74168D03*
D78*
X980821Y74168D03*
D69*
X1023239Y74168D03*
D11*
X1066546Y74168D03*
D69*
X937641Y74422D03*
D79*
X980821Y74422D03*
D69*
X1023239Y74422D03*
D11*
X1066546Y74422D03*
D69*
X937641Y74676D03*
D80*
X980821Y74676D03*
D69*
X1023239Y74676D03*
D11*
X1066546Y74676D03*
D69*
X937641Y74930D03*
D81*
X980821Y74930D03*
D69*
X1023239Y74930D03*
D11*
X1066546Y74930D03*
D69*
X937641Y75184D03*
D82*
X980821Y75184D03*
D69*
X1023239Y75184D03*
D11*
X1066546Y75184D03*
D69*
X937641Y75438D03*
D24*
X980821Y75438D03*
D69*
X1023239Y75438D03*
D11*
X1066546Y75438D03*
D69*
X937641Y75692D03*
D25*
X980821Y75692D03*
D69*
X1023239Y75692D03*
D11*
X1066546Y75692D03*
D69*
X937641Y75946D03*
D27*
X980821Y75946D03*
D69*
X1023239Y75946D03*
D11*
X1066546Y75946D03*
D69*
X937641Y76200D03*
D62*
X980694Y76200D03*
D69*
X1023239Y76200D03*
D11*
X1066546Y76200D03*
D69*
X937641Y76454D03*
D29*
X980694Y76454D03*
D69*
X1023239Y76454D03*
D11*
X1066546Y76454D03*
D69*
X937641Y76708D03*
D30*
X980821Y76708D03*
D69*
X1023239Y76708D03*
D11*
X1066546Y76708D03*
D69*
X937641Y76962D03*
D83*
X972947Y76962D03*
X988695Y76962D03*
D69*
X1023239Y76962D03*
D11*
X1066546Y76962D03*
D69*
X937641Y77216D03*
D63*
X972185Y77216D03*
X989203Y77216D03*
D69*
X1023239Y77216D03*
D11*
X1066546Y77216D03*
D69*
X937641Y77470D03*
D52*
X971804Y77470D03*
D42*
X989711Y77470D03*
D69*
X1023239Y77470D03*
D11*
X1066546Y77470D03*
D45*
X948944Y77724D03*
D43*
X971423Y77724D03*
X989965Y77724D03*
D45*
X1034542Y77724D03*
D37*
X1066673Y77724D03*
D45*
X948944Y77978D03*
D51*
X971169Y77978D03*
D44*
X990346Y77978D03*
D45*
X1034542Y77978D03*
D37*
X1066673Y77978D03*
D51*
X948817Y78232D03*
D45*
X970788Y78232D03*
X990600Y78232D03*
D51*
X1034415Y78232D03*
D37*
X1066673Y78232D03*
D51*
X948563Y78486D03*
D46*
X970661Y78486D03*
D45*
X990854Y78486D03*
D51*
X1034161Y78486D03*
D37*
X1066673Y78486D03*
D51*
X948309Y78740D03*
D46*
X970407Y78740D03*
D47*
X991108Y78740D03*
D51*
X1033907Y78740D03*
D37*
X1066673Y78740D03*
D44*
X947928Y78994D03*
D47*
X970280Y78994D03*
X991362Y78994D03*
D44*
X1033526Y78994D03*
D37*
X1066673Y78994D03*
D44*
X947674Y79248D03*
D47*
X970026Y79248D03*
D48*
X991489Y79248D03*
D44*
X1033272Y79248D03*
D37*
X1066673Y79248D03*
D44*
X947420Y79502D03*
D48*
X969899Y79502D03*
D47*
X991616Y79502D03*
D44*
X1033018Y79502D03*
D37*
X1066673Y79502D03*
D44*
X947166Y79756D03*
D49*
X969772Y79756D03*
D48*
X991743Y79756D03*
D44*
X1032764Y79756D03*
D37*
X1066673Y79756D03*
D44*
X946912Y80010D03*
D48*
X969645Y80010D03*
D49*
X991870Y80010D03*
D44*
X1032510Y80010D03*
D37*
X1066673Y80010D03*
D44*
X946658Y80264D03*
D49*
X969518Y80264D03*
X992124Y80264D03*
D44*
X1032256Y80264D03*
D37*
X1066673Y80264D03*
D44*
X946404Y80518D03*
D37*
X969391Y80518D03*
D49*
X992124Y80518D03*
D44*
X1032002Y80518D03*
D37*
X1066673Y80518D03*
D44*
X946150Y80772D03*
D49*
X969264Y80772D03*
D37*
X992251Y80772D03*
D44*
X1031748Y80772D03*
D37*
X1066673Y80772D03*
D44*
X945896Y81026D03*
D37*
X969137Y81026D03*
X992251Y81026D03*
D44*
X1031494Y81026D03*
D37*
X1066673Y81026D03*
D44*
X945642Y81280D03*
D37*
X969137Y81280D03*
D49*
X992378Y81280D03*
D44*
X1031240Y81280D03*
D37*
X1066673Y81280D03*
D44*
X945388Y81534D03*
D37*
X969137Y81534D03*
X992505Y81534D03*
D44*
X1030986Y81534D03*
D37*
X1066673Y81534D03*
D44*
X945134Y81788D03*
D37*
X968883Y81788D03*
X992505Y81788D03*
D44*
X1030732Y81788D03*
D37*
X1066673Y81788D03*
D51*
X944753Y82042D03*
D37*
X968883Y82042D03*
X992505Y82042D03*
D51*
X1030351Y82042D03*
D37*
X1066673Y82042D03*
D51*
X944499Y82296D03*
D37*
X968883Y82296D03*
D39*
X992632Y82296D03*
D51*
X1030097Y82296D03*
D37*
X1066673Y82296D03*
D51*
X944245Y82550D03*
D37*
X968883Y82550D03*
X992759Y82550D03*
D51*
X1029843Y82550D03*
D37*
X1066673Y82550D03*
D51*
X943991Y82804D03*
D39*
X968756Y82804D03*
D37*
X992759Y82804D03*
D51*
X1029589Y82804D03*
D37*
X1066673Y82804D03*
D44*
X943610Y83058D03*
D39*
X968756Y83058D03*
D37*
X992759Y83058D03*
D44*
X1029208Y83058D03*
D37*
X1066673Y83058D03*
D44*
X943356Y83312D03*
D39*
X968756Y83312D03*
D37*
X992759Y83312D03*
D44*
X1028954Y83312D03*
D37*
X1066673Y83312D03*
D44*
X943102Y83566D03*
D39*
X968756Y83566D03*
D37*
X992759Y83566D03*
D44*
X1028700Y83566D03*
D37*
X1066673Y83566D03*
D44*
X942848Y83820D03*
D39*
X968756Y83820D03*
X992886Y83820D03*
D44*
X1028446Y83820D03*
D37*
X1066673Y83820D03*
D44*
X942594Y84074D03*
D39*
X968756Y84074D03*
X992886Y84074D03*
D44*
X1028192Y84074D03*
D37*
X1066673Y84074D03*
D44*
X942340Y84328D03*
D37*
X968629Y84328D03*
D39*
X992886Y84328D03*
D44*
X1027938Y84328D03*
D37*
X1066673Y84328D03*
D44*
X942086Y84582D03*
D39*
X992886Y84582D03*
D44*
X1027684Y84582D03*
D37*
X1066673Y84582D03*
D44*
X941832Y84836D03*
D39*
X992886Y84836D03*
D44*
X1027430Y84836D03*
D37*
X1066673Y84836D03*
D44*
X941578Y85090D03*
D39*
X992886Y85090D03*
D44*
X1027176Y85090D03*
D37*
X1066673Y85090D03*
D44*
X941324Y85344D03*
D39*
X992886Y85344D03*
D44*
X1026922Y85344D03*
D37*
X1066673Y85344D03*
D44*
X941070Y85598D03*
D39*
X992886Y85598D03*
D44*
X1026668Y85598D03*
D37*
X1066673Y85598D03*
D44*
X940816Y85852D03*
D39*
X992886Y85852D03*
D44*
X1026414Y85852D03*
D37*
X1066673Y85852D03*
D44*
X940562Y86106D03*
D39*
X992886Y86106D03*
D44*
X1026160Y86106D03*
D37*
X1066673Y86106D03*
D44*
X940308Y86360D03*
D39*
X992886Y86360D03*
D44*
X1025906Y86360D03*
D37*
X1066673Y86360D03*
D44*
X940054Y86614D03*
D39*
X992886Y86614D03*
D44*
X1025652Y86614D03*
D37*
X1066673Y86614D03*
D43*
X939673Y86868D03*
D39*
X992886Y86868D03*
D43*
X1025271Y86868D03*
D37*
X1066673Y86868D03*
D43*
X939419Y87122D03*
D39*
X992886Y87122D03*
D43*
X1025017Y87122D03*
D37*
X1066673Y87122D03*
D43*
X939165Y87376D03*
D39*
X992886Y87376D03*
D43*
X1024763Y87376D03*
D37*
X1066673Y87376D03*
D44*
X938784Y87630D03*
D39*
X992886Y87630D03*
D44*
X1024382Y87630D03*
D37*
X1066673Y87630D03*
D44*
X938530Y87884D03*
D39*
X992886Y87884D03*
D44*
X1024128Y87884D03*
D37*
X1066673Y87884D03*
D44*
X938276Y88138D03*
D39*
X992886Y88138D03*
D44*
X1023874Y88138D03*
D37*
X1066673Y88138D03*
D44*
X938022Y88392D03*
D39*
X992886Y88392D03*
D44*
X1023620Y88392D03*
D37*
X1066673Y88392D03*
D44*
X937768Y88646D03*
D39*
X992886Y88646D03*
D44*
X1023366Y88646D03*
D37*
X1066673Y88646D03*
D44*
X937514Y88900D03*
D39*
X992886Y88900D03*
D44*
X1023112Y88900D03*
D37*
X1066673Y88900D03*
D44*
X937260Y89154D03*
D39*
X992886Y89154D03*
D44*
X1022858Y89154D03*
D37*
X1066673Y89154D03*
D44*
X937006Y89408D03*
D39*
X992886Y89408D03*
D44*
X1022604Y89408D03*
D37*
X1066673Y89408D03*
D44*
X936752Y89662D03*
D39*
X992886Y89662D03*
D44*
X1022350Y89662D03*
D37*
X1066673Y89662D03*
D44*
X936498Y89916D03*
D39*
X992886Y89916D03*
D44*
X1022096Y89916D03*
D37*
X1066673Y89916D03*
D44*
X936244Y90170D03*
D39*
X992886Y90170D03*
D44*
X1021842Y90170D03*
D37*
X1066673Y90170D03*
D44*
X935990Y90424D03*
D39*
X992886Y90424D03*
D44*
X1021588Y90424D03*
D37*
X1066673Y90424D03*
D44*
X935736Y90678D03*
D39*
X992886Y90678D03*
D44*
X1021334Y90678D03*
D37*
X1066673Y90678D03*
D44*
X935482Y90932D03*
D39*
X992886Y90932D03*
D44*
X1021080Y90932D03*
D37*
X1066673Y90932D03*
D44*
X935228Y91186D03*
D39*
X992886Y91186D03*
D44*
X1020826Y91186D03*
D37*
X1066673Y91186D03*
D44*
X934974Y91440D03*
D39*
X992886Y91440D03*
D44*
X1020572Y91440D03*
D37*
X1066673Y91440D03*
D44*
X934720Y91694D03*
D39*
X992886Y91694D03*
D44*
X1020318Y91694D03*
D37*
X1066673Y91694D03*
D44*
X934466Y91948D03*
D39*
X992886Y91948D03*
D44*
X1020064Y91948D03*
D37*
X1066673Y91948D03*
D44*
X934212Y92202D03*
D39*
X992886Y92202D03*
D44*
X1019810Y92202D03*
D37*
X1066673Y92202D03*
D44*
X933958Y92456D03*
D39*
X992886Y92456D03*
D44*
X1019556Y92456D03*
D37*
X1066673Y92456D03*
D44*
X933704Y92710D03*
D39*
X992886Y92710D03*
D44*
X1019302Y92710D03*
D37*
X1066673Y92710D03*
D51*
X933323Y92964D03*
D39*
X992886Y92964D03*
D51*
X1018921Y92964D03*
D37*
X1066673Y92964D03*
D51*
X933069Y93218D03*
D39*
X992886Y93218D03*
D51*
X1018667Y93218D03*
D37*
X1066673Y93218D03*
D51*
X932815Y93472D03*
D39*
X992886Y93472D03*
D51*
X1018413Y93472D03*
D37*
X1066673Y93472D03*
D51*
X932561Y93726D03*
D39*
X992886Y93726D03*
D51*
X1018159Y93726D03*
D37*
X1066673Y93726D03*
D45*
X932434Y93980D03*
D39*
X992886Y93980D03*
D45*
X1018032Y93980D03*
D37*
X1066673Y93980D03*
D45*
X932180Y94234D03*
D39*
X992886Y94234D03*
D45*
X1017778Y94234D03*
D37*
X1066673Y94234D03*
D45*
X931926Y94488D03*
D39*
X992886Y94488D03*
D45*
X1017524Y94488D03*
D37*
X1066673Y94488D03*
D45*
X931672Y94742D03*
D39*
X992886Y94742D03*
D45*
X1017270Y94742D03*
D37*
X1066673Y94742D03*
D45*
X931418Y94996D03*
D39*
X992886Y94996D03*
D45*
X1017016Y94996D03*
D37*
X1066673Y94996D03*
D46*
X931291Y95250D03*
D39*
X992886Y95250D03*
D46*
X1016889Y95250D03*
D37*
X1066673Y95250D03*
D46*
X931037Y95504D03*
D39*
X992886Y95504D03*
D46*
X1016635Y95504D03*
D37*
X1066673Y95504D03*
D45*
X930910Y95758D03*
D39*
X992886Y95758D03*
D45*
X1016508Y95758D03*
D37*
X1066673Y95758D03*
D45*
X930656Y96012D03*
D39*
X992886Y96012D03*
D45*
X1016254Y96012D03*
D37*
X1066673Y96012D03*
D46*
X930529Y96266D03*
D39*
X992886Y96266D03*
D46*
X1016127Y96266D03*
D37*
X1066673Y96266D03*
D46*
X930275Y96520D03*
D39*
X992886Y96520D03*
D46*
X1015873Y96520D03*
D37*
X1066673Y96520D03*
D46*
X930021Y96774D03*
D39*
X992886Y96774D03*
D46*
X1015619Y96774D03*
D37*
X1066673Y96774D03*
D47*
X929894Y97028D03*
D39*
X992886Y97028D03*
D47*
X1015492Y97028D03*
D37*
X1066673Y97028D03*
D47*
X929640Y97282D03*
D39*
X992886Y97282D03*
D47*
X1015238Y97282D03*
D37*
X1066673Y97282D03*
D47*
X929386Y97536D03*
D39*
X992886Y97536D03*
D47*
X1014984Y97536D03*
D37*
X1066673Y97536D03*
D47*
X929386Y97790D03*
D39*
X992886Y97790D03*
D47*
X1014984Y97790D03*
D37*
X1066673Y97790D03*
D47*
X929132Y98044D03*
D39*
X992886Y98044D03*
D47*
X1014730Y98044D03*
D37*
X1066673Y98044D03*
D48*
X929005Y98298D03*
D39*
X992886Y98298D03*
D48*
X1014603Y98298D03*
D37*
X1066673Y98298D03*
D48*
X928751Y98552D03*
D39*
X992886Y98552D03*
D48*
X1014349Y98552D03*
D37*
X1066673Y98552D03*
D48*
X928751Y98806D03*
D39*
X992886Y98806D03*
D48*
X1014349Y98806D03*
D37*
X1066673Y98806D03*
D48*
X928497Y99060D03*
D39*
X992886Y99060D03*
D48*
X1014095Y99060D03*
D37*
X1066673Y99060D03*
D49*
X928370Y99314D03*
D39*
X992886Y99314D03*
D49*
X1013968Y99314D03*
D37*
X1066673Y99314D03*
D48*
X928243Y99568D03*
D39*
X992886Y99568D03*
D48*
X1013841Y99568D03*
D37*
X1066673Y99568D03*
D49*
X928116Y99822D03*
D39*
X992886Y99822D03*
D49*
X1013714Y99822D03*
D37*
X1066673Y99822D03*
D49*
X927862Y100076D03*
D39*
X992886Y100076D03*
D49*
X1013460Y100076D03*
D37*
X1066673Y100076D03*
D49*
X927862Y100330D03*
D39*
X992886Y100330D03*
D49*
X1013460Y100330D03*
D37*
X1066673Y100330D03*
D49*
X927608Y100584D03*
D39*
X992886Y100584D03*
D49*
X1013206Y100584D03*
D37*
X1066673Y100584D03*
D49*
X927608Y100838D03*
D39*
X992886Y100838D03*
D49*
X1013206Y100838D03*
D37*
X1066673Y100838D03*
X927481Y101092D03*
D39*
X992886Y101092D03*
D37*
X1013079Y101092D03*
X1066673Y101092D03*
D49*
X927354Y101346D03*
D39*
X992886Y101346D03*
D49*
X1012952Y101346D03*
D37*
X1066673Y101346D03*
X927227Y101600D03*
D39*
X992886Y101600D03*
D37*
X1012825Y101600D03*
X1066673Y101600D03*
X927227Y101854D03*
D39*
X992886Y101854D03*
D37*
X1012825Y101854D03*
X1066673Y101854D03*
X926973Y102108D03*
D39*
X992886Y102108D03*
D37*
X1012571Y102108D03*
X1066673Y102108D03*
X926973Y102362D03*
D39*
X992886Y102362D03*
D37*
X1012571Y102362D03*
X1066673Y102362D03*
X926973Y102616D03*
D39*
X992886Y102616D03*
D37*
X1012571Y102616D03*
X1066673Y102616D03*
D39*
X926846Y102870D03*
X992886Y102870D03*
X1012444Y102870D03*
D37*
X1066673Y102870D03*
X926719Y103124D03*
D39*
X992886Y103124D03*
D37*
X1012317Y103124D03*
X1066673Y103124D03*
X926719Y103378D03*
D39*
X992886Y103378D03*
D37*
X1012317Y103378D03*
X1066673Y103378D03*
D39*
X926592Y103632D03*
X992886Y103632D03*
X1012190Y103632D03*
D37*
X1066673Y103632D03*
D39*
X926592Y103886D03*
X992886Y103886D03*
X1012190Y103886D03*
D37*
X1066673Y103886D03*
D39*
X926592Y104140D03*
X992886Y104140D03*
X1012190Y104140D03*
D37*
X1066673Y104140D03*
X926465Y104394D03*
D39*
X992886Y104394D03*
D37*
X1012063Y104394D03*
X1066673Y104394D03*
X926465Y104648D03*
D39*
X992886Y104648D03*
D37*
X1012063Y104648D03*
X1066673Y104648D03*
X926465Y104902D03*
D39*
X992886Y104902D03*
D37*
X1012063Y104902D03*
X1066673Y104902D03*
D39*
X926338Y105156D03*
X992886Y105156D03*
X1011936Y105156D03*
D37*
X1066673Y105156D03*
D39*
X926338Y105410D03*
X992886Y105410D03*
X1011936Y105410D03*
D37*
X1066673Y105410D03*
D39*
X926338Y105664D03*
X992886Y105664D03*
X1011936Y105664D03*
D37*
X1066673Y105664D03*
D39*
X926338Y105918D03*
D37*
X951103Y105918D03*
D39*
X992886Y105918D03*
X1011936Y105918D03*
D37*
X1036701Y105918D03*
X1066673Y105918D03*
D39*
X926338Y106172D03*
D37*
X951103Y106172D03*
D39*
X992886Y106172D03*
X1011936Y106172D03*
D37*
X1036701Y106172D03*
X1066673Y106172D03*
D39*
X926338Y106426D03*
D37*
X951103Y106426D03*
X968629Y106426D03*
D39*
X992886Y106426D03*
X1011936Y106426D03*
D37*
X1036701Y106426D03*
X1066673Y106426D03*
D39*
X926338Y106680D03*
D37*
X951103Y106680D03*
X968629Y106680D03*
D39*
X992886Y106680D03*
X1011936Y106680D03*
D37*
X1036701Y106680D03*
X1066673Y106680D03*
D39*
X926338Y106934D03*
X950976Y106934D03*
X968756Y106934D03*
X992886Y106934D03*
X1011936Y106934D03*
X1036574Y106934D03*
D37*
X1066673Y106934D03*
X926465Y107188D03*
D39*
X950976Y107188D03*
X968756Y107188D03*
D37*
X992759Y107188D03*
X1012063Y107188D03*
D39*
X1036574Y107188D03*
D37*
X1066673Y107188D03*
X926465Y107442D03*
D39*
X950976Y107442D03*
X968756Y107442D03*
D37*
X992759Y107442D03*
X1012063Y107442D03*
D39*
X1036574Y107442D03*
D37*
X1066673Y107442D03*
X926465Y107696D03*
D39*
X950976Y107696D03*
X968756Y107696D03*
D37*
X992759Y107696D03*
X1012063Y107696D03*
D39*
X1036574Y107696D03*
D37*
X1066673Y107696D03*
X926465Y107950D03*
X950849Y107950D03*
D39*
X968756Y107950D03*
D37*
X992759Y107950D03*
X1012063Y107950D03*
X1036447Y107950D03*
X1066673Y107950D03*
X926465Y108204D03*
X950849Y108204D03*
X968883Y108204D03*
X992759Y108204D03*
X1012063Y108204D03*
X1036447Y108204D03*
X1066673Y108204D03*
X926465Y108458D03*
D39*
X950722Y108458D03*
D37*
X968883Y108458D03*
D39*
X992632Y108458D03*
D37*
X1012063Y108458D03*
D39*
X1036320Y108458D03*
D37*
X1066673Y108458D03*
X926719Y108712D03*
D39*
X950722Y108712D03*
D37*
X968883Y108712D03*
D39*
X992632Y108712D03*
D37*
X1012317Y108712D03*
D39*
X1036320Y108712D03*
D37*
X1066673Y108712D03*
X926719Y108966D03*
X950595Y108966D03*
X968883Y108966D03*
X992505Y108966D03*
X1012317Y108966D03*
X1036193Y108966D03*
X1066673Y108966D03*
X926719Y109220D03*
X950595Y109220D03*
X969137Y109220D03*
X992505Y109220D03*
X1012317Y109220D03*
X1036193Y109220D03*
X1066673Y109220D03*
D49*
X926846Y109474D03*
X950468Y109474D03*
D37*
X969137Y109474D03*
X992505Y109474D03*
D49*
X1012444Y109474D03*
X1036066Y109474D03*
D37*
X1066673Y109474D03*
D49*
X926846Y109728D03*
D37*
X950341Y109728D03*
X969137Y109728D03*
X992251Y109728D03*
D49*
X1012444Y109728D03*
D37*
X1035939Y109728D03*
X1066673Y109728D03*
D49*
X927100Y109982D03*
X950214Y109982D03*
X969264Y109982D03*
D37*
X992251Y109982D03*
D49*
X1012698Y109982D03*
X1035812Y109982D03*
D37*
X1066673Y109982D03*
D49*
X927100Y110236D03*
X950214Y110236D03*
D37*
X969391Y110236D03*
D49*
X992124Y110236D03*
X1012698Y110236D03*
X1035812Y110236D03*
D37*
X1066673Y110236D03*
D48*
X927227Y110490D03*
D49*
X949960Y110490D03*
X969518Y110490D03*
X992124Y110490D03*
D48*
X1012825Y110490D03*
D49*
X1035558Y110490D03*
D37*
X1066673Y110490D03*
D48*
X927227Y110744D03*
X949833Y110744D03*
D49*
X969518Y110744D03*
X991870Y110744D03*
D48*
X1012825Y110744D03*
X1035431Y110744D03*
D37*
X1066673Y110744D03*
D48*
X927481Y110998D03*
X949833Y110998D03*
X969645Y110998D03*
X991743Y110998D03*
X1013079Y110998D03*
X1035431Y110998D03*
D37*
X1066673Y110998D03*
D47*
X927608Y111252D03*
D48*
X949579Y111252D03*
X969899Y111252D03*
X991743Y111252D03*
D47*
X1013206Y111252D03*
D48*
X1035177Y111252D03*
D37*
X1066673Y111252D03*
D47*
X927862Y111506D03*
X949452Y111506D03*
X970026Y111506D03*
D48*
X991489Y111506D03*
D47*
X1013460Y111506D03*
X1035050Y111506D03*
D37*
X1066673Y111506D03*
D46*
X927989Y111760D03*
D47*
X949198Y111760D03*
X970280Y111760D03*
X991362Y111760D03*
D46*
X1013587Y111760D03*
D47*
X1034796Y111760D03*
D37*
X1066673Y111760D03*
D45*
X928116Y112014D03*
D46*
X949071Y112014D03*
X970407Y112014D03*
X991235Y112014D03*
D45*
X1013714Y112014D03*
D46*
X1034669Y112014D03*
D37*
X1066673Y112014D03*
D45*
X928370Y112268D03*
X948690Y112268D03*
D46*
X970661Y112268D03*
X990981Y112268D03*
D45*
X1013968Y112268D03*
X1034288Y112268D03*
D37*
X1066673Y112268D03*
D51*
X928497Y112522D03*
X948563Y112522D03*
D45*
X970788Y112522D03*
D51*
X990727Y112522D03*
X1014095Y112522D03*
X1034161Y112522D03*
D37*
X1066673Y112522D03*
D44*
X928878Y112776D03*
X948182Y112776D03*
X971042Y112776D03*
D51*
X990473Y112776D03*
D44*
X1014476Y112776D03*
X1033780Y112776D03*
D37*
X1066673Y112776D03*
D52*
X929132Y113030D03*
X947928Y113030D03*
D43*
X971423Y113030D03*
X990219Y113030D03*
D52*
X1014730Y113030D03*
X1033526Y113030D03*
D37*
X1066673Y113030D03*
D42*
X929513Y113284D03*
X947547Y113284D03*
D52*
X971804Y113284D03*
X989838Y113284D03*
D42*
X1015111Y113284D03*
X1033145Y113284D03*
D37*
X1066673Y113284D03*
D70*
X929894Y113538D03*
D63*
X947039Y113538D03*
X972185Y113538D03*
D41*
X989330Y113538D03*
D70*
X1015492Y113538D03*
D63*
X1032637Y113538D03*
D11*
X1066546Y113538D03*
D83*
X930529Y113792D03*
D84*
X946404Y113792D03*
D85*
X972820Y113792D03*
D83*
X988695Y113792D03*
X1016127Y113792D03*
D84*
X1032002Y113792D03*
D11*
X1066546Y113792D03*
D31*
X938530Y114046D03*
D30*
X980821Y114046D03*
D31*
X1024128Y114046D03*
D11*
X1066546Y114046D03*
D30*
X938403Y114300D03*
D29*
X980694Y114300D03*
D30*
X1024001Y114300D03*
D11*
X1066546Y114300D03*
D28*
X938403Y114554D03*
X980821Y114554D03*
X1024001Y114554D03*
D11*
X1066546Y114554D03*
D62*
X938530Y114808D03*
D27*
X980821Y114808D03*
D62*
X1024128Y114808D03*
D11*
X1066546Y114808D03*
D26*
X938530Y115062D03*
D25*
X980821Y115062D03*
D26*
X1024128Y115062D03*
D11*
X1066546Y115062D03*
D86*
X938530Y115316D03*
D24*
X980821Y115316D03*
D86*
X1024128Y115316D03*
D11*
X1066546Y115316D03*
D23*
X938530Y115570D03*
X980694Y115570D03*
X1024128Y115570D03*
D11*
X1066546Y115570D03*
D22*
X938530Y115824D03*
X980694Y115824D03*
X1024128Y115824D03*
D11*
X1066546Y115824D03*
D21*
X938530Y116078D03*
X980694Y116078D03*
X1024128Y116078D03*
D11*
X1066546Y116078D03*
D79*
X938403Y116332D03*
X980821Y116332D03*
X1024001Y116332D03*
D11*
X1066546Y116332D03*
D78*
X938403Y116586D03*
X980821Y116586D03*
X1024001Y116586D03*
D11*
X1066546Y116586D03*
D18*
X938403Y116840D03*
X980821Y116840D03*
X1024001Y116840D03*
D11*
X1066546Y116840D03*
D87*
X938530Y117094D03*
X980694Y117094D03*
X1024128Y117094D03*
D11*
X1066546Y117094D03*
D16*
X938403Y117348D03*
X980821Y117348D03*
X1024001Y117348D03*
D11*
X1066546Y117348D03*
D15*
X938403Y117602D03*
D66*
X980694Y117602D03*
D15*
X1024001Y117602D03*
D11*
X1066546Y117602D03*
D88*
X938403Y117856D03*
X980821Y117856D03*
X1024001Y117856D03*
D11*
X1066546Y117856D03*
D75*
X938403Y118110D03*
X980821Y118110D03*
X1024001Y118110D03*
D11*
X1066546Y118110D03*
D74*
X938403Y118364D03*
X980821Y118364D03*
X1024001Y118364D03*
D11*
X1066546Y118364D03*
D68*
X938403Y118618D03*
X980821Y118618D03*
X1024001Y118618D03*
D11*
X1066546Y118618D03*
D72*
X938403Y118872D03*
X980821Y118872D03*
X1024001Y118872D03*
D11*
X1066546Y118872D03*
D89*
X938276Y119126D03*
X980694Y119126D03*
X1023874Y119126D03*
D11*
X1066546Y119126D03*
D40*
X938403Y119380D03*
X980821Y119380D03*
X1024001Y119380D03*
D11*
X1066546Y119380D03*
D51*
X938403Y119634D03*
X980821Y119634D03*
X1024001Y119634D03*
D59*
X938276Y119888D03*
D58*
X980821Y119888D03*
D59*
X1023874Y119888D03*
D60*
X1063117Y128524D03*
X1079373Y128524D03*
D56*
X1062990Y128778D03*
D60*
X1079373Y128778D03*
X1062863Y129032D03*
X1079373Y129032D03*
X1062863Y129286D03*
X1079373Y129286D03*
X1062863Y129540D03*
D56*
X1079246Y129540D03*
D60*
X1062863Y129794D03*
D56*
X1079246Y129794D03*
X1062736Y130048D03*
D60*
X1079119Y130048D03*
D56*
X1062736Y130302D03*
D60*
X1079119Y130302D03*
X1062609Y130556D03*
X1079119Y130556D03*
X1062609Y130810D03*
D56*
X1078992Y130810D03*
D60*
X1062609Y131064D03*
D56*
X1078992Y131064D03*
X1062482Y131318D03*
D60*
X1078865Y131318D03*
D56*
X1062482Y131572D03*
D60*
X1078865Y131572D03*
X1062355Y131826D03*
X1078865Y131826D03*
X1062355Y132080D03*
D56*
X1078738Y132080D03*
D60*
X1062355Y132334D03*
D56*
X1078738Y132334D03*
X1062228Y132588D03*
D60*
X1078611Y132588D03*
D56*
X1062228Y132842D03*
D60*
X1078611Y132842D03*
X1062101Y133096D03*
X1078611Y133096D03*
X1062101Y133350D03*
D56*
X1078484Y133350D03*
D60*
X1062101Y133604D03*
D56*
X1078484Y133604D03*
X1061974Y133858D03*
D60*
X1078357Y133858D03*
D56*
X1061974Y134112D03*
D60*
X1078357Y134112D03*
X1061847Y134366D03*
X1078357Y134366D03*
X1061847Y134620D03*
D56*
X1078230Y134620D03*
D60*
X1061847Y134874D03*
D56*
X1078230Y134874D03*
X1061720Y135128D03*
D60*
X1078103Y135128D03*
D56*
X1061720Y135382D03*
D60*
X1078103Y135382D03*
X1061593Y135636D03*
X1078103Y135636D03*
X1061593Y135890D03*
D56*
X1077976Y135890D03*
D60*
X1061593Y136144D03*
D56*
X1077976Y136144D03*
X1061466Y136398D03*
X1077976Y136398D03*
X1061466Y136652D03*
D60*
X1077849Y136652D03*
D56*
X1061466Y136906D03*
D60*
X1077849Y136906D03*
X1061339Y137160D03*
D56*
X1077722Y137160D03*
D60*
X1061339Y137414D03*
D56*
X1077722Y137414D03*
X1061212Y137668D03*
X1077722Y137668D03*
X1061212Y137922D03*
D60*
X1077595Y137922D03*
D56*
X1061212Y138176D03*
D60*
X1077595Y138176D03*
X1061085Y138430D03*
D56*
X1077468Y138430D03*
D60*
X1061085Y138684D03*
D56*
X1077468Y138684D03*
X1060958Y138938D03*
X1077468Y138938D03*
X1060958Y139192D03*
D60*
X1077341Y139192D03*
D56*
X1060958Y139446D03*
D60*
X1077341Y139446D03*
X1060831Y139700D03*
X1077341Y139700D03*
X1060831Y139954D03*
D56*
X1077214Y139954D03*
D60*
X1060831Y140208D03*
D56*
X1077214Y140208D03*
X1060704Y140462D03*
D60*
X1077087Y140462D03*
D56*
X1060704Y140716D03*
D60*
X1077087Y140716D03*
X1060577Y140970D03*
X1077087Y140970D03*
D90*
X1067816Y141224D03*
X1067816Y141478D03*
X1067816Y141732D03*
X1067816Y141986D03*
X1067816Y142240D03*
X1067816Y142494D03*
X1067816Y142748D03*
X1067816Y143002D03*
X1067816Y143256D03*
X1067816Y143510D03*
X1067816Y143764D03*
X1067816Y144018D03*
X1067816Y144272D03*
X1067816Y144526D03*
X1067816Y144780D03*
X1067816Y145034D03*
X1067816Y145288D03*
X1067816Y145542D03*
X1067816Y145796D03*
D60*
X1059561Y146050D03*
X1076071Y146050D03*
X1059561Y146304D03*
X1076071Y146304D03*
X1059561Y146558D03*
D56*
X1075944Y146558D03*
D60*
X1059561Y146812D03*
X1075817Y146812D03*
D56*
X1059434Y147066D03*
D60*
X1075817Y147066D03*
X1059307Y147320D03*
X1075817Y147320D03*
X1059307Y147574D03*
X1075817Y147574D03*
X1059307Y147828D03*
D56*
X1075690Y147828D03*
D60*
X1059307Y148082D03*
D56*
X1075690Y148082D03*
X1059180Y148336D03*
D60*
X1075563Y148336D03*
D56*
X1059180Y148590D03*
D60*
X1075563Y148590D03*
X1059053Y148844D03*
X1075563Y148844D03*
X1059053Y149098D03*
D56*
X1075436Y149098D03*
D60*
X1059053Y149352D03*
D56*
X1075436Y149352D03*
D60*
X1059053Y149606D03*
X1075309Y149606D03*
D56*
X1058926Y149860D03*
D60*
X1075309Y149860D03*
X1058799Y150114D03*
X1075309Y150114D03*
X1058799Y150368D03*
X1075309Y150368D03*
X1058799Y150622D03*
D56*
X1075182Y150622D03*
D60*
X1058799Y150876D03*
X1075055Y150876D03*
D56*
X1058672Y151130D03*
D60*
X1075055Y151130D03*
X1058545Y151384D03*
X1075055Y151384D03*
X1058545Y151638D03*
X1075055Y151638D03*
X1058545Y151892D03*
D56*
X1074928Y151892D03*
D60*
X1058545Y152146D03*
X1074801Y152146D03*
D56*
X1058418Y152400D03*
D60*
X1074801Y152400D03*
X1058291Y152654D03*
X1074801Y152654D03*
X1058291Y152908D03*
X1074801Y152908D03*
X1058291Y153162D03*
D56*
X1074674Y153162D03*
D60*
X1058291Y153416D03*
D56*
X1074674Y153416D03*
X1058164Y153670D03*
D60*
X1074547Y153670D03*
D56*
X1058164Y153924D03*
D60*
X1074547Y153924D03*
X1058037Y154178D03*
X1074547Y154178D03*
X1058037Y154432D03*
D56*
X1074420Y154432D03*
D60*
X1058037Y154686D03*
D56*
X1074420Y154686D03*
X1057910Y154940D03*
D60*
X1074293Y154940D03*
D56*
X1057910Y155194D03*
D60*
X1074293Y155194D03*
X1057783Y155448D03*
X1074293Y155448D03*
X1057783Y155702D03*
X1074293Y155702D03*
X1057783Y155956D03*
D56*
X1074166Y155956D03*
D60*
X1057783Y156210D03*
X1074039Y156210D03*
D56*
X1057656Y156464D03*
D60*
X1074039Y156464D03*
X1057529Y156718D03*
X1074039Y156718D03*
X1057529Y156972D03*
X1074039Y156972D03*
X1057529Y157226D03*
D56*
X1073912Y157226D03*
D60*
X1057529Y157480D03*
X1073785Y157480D03*
D56*
X1057402Y157734D03*
D60*
X1073785Y157734D03*
X1057275Y157988D03*
X1073785Y157988D03*
X1057275Y158242D03*
X1073785Y158242D03*
X1057275Y158496D03*
D56*
X1073658Y158496D03*
D60*
X1057275Y158750D03*
D56*
X1073658Y158750D03*
X1057148Y159004D03*
D60*
X1073531Y159004D03*
D90*
X1065530Y159258D03*
X1065530Y159512D03*
X1065530Y159766D03*
X1065530Y160020D03*
X1065530Y160274D03*
X1065530Y160528D03*
X1065530Y160782D03*
X1065530Y161036D03*
X1065530Y161290D03*
X1065530Y161544D03*
X1065530Y161798D03*
X1065530Y162052D03*
X1065530Y162306D03*
X1065530Y162560D03*
X1065530Y162814D03*
X1065530Y163068D03*
X1065530Y163322D03*
X1065530Y163576D03*
X1065530Y163830D03*
D56*
X1056132Y164084D03*
X1072642Y164084D03*
X1056132Y164338D03*
D60*
X1072515Y164338D03*
D56*
X1056132Y164592D03*
D60*
X1072515Y164592D03*
X1056005Y164846D03*
D56*
X1072388Y164846D03*
D60*
X1056005Y165100D03*
D56*
X1072388Y165100D03*
X1055878Y165354D03*
X1072388Y165354D03*
X1055878Y165608D03*
D60*
X1072261Y165608D03*
D56*
X1055878Y165862D03*
D60*
X1072261Y165862D03*
X1055751Y166116D03*
D56*
X1072134Y166116D03*
D60*
X1055751Y166370D03*
D56*
X1072134Y166370D03*
D60*
X1055751Y166624D03*
D56*
X1072134Y166624D03*
X1055624Y166878D03*
D60*
X1072007Y166878D03*
D56*
X1055624Y167132D03*
D60*
X1072007Y167132D03*
X1055497Y167386D03*
X1072007Y167386D03*
X1055497Y167640D03*
D56*
X1071880Y167640D03*
D60*
X1055497Y167894D03*
D56*
X1071880Y167894D03*
X1055370Y168148D03*
D60*
X1071753Y168148D03*
D56*
X1055370Y168402D03*
D60*
X1071753Y168402D03*
X1055243Y168656D03*
X1071753Y168656D03*
X1055243Y168910D03*
D56*
X1071626Y168910D03*
D60*
X1055243Y169164D03*
D56*
X1071626Y169164D03*
X1055116Y169418D03*
D60*
X1071499Y169418D03*
D56*
X1055116Y169672D03*
D60*
X1071499Y169672D03*
X1054989Y169926D03*
X1071499Y169926D03*
X1054989Y170180D03*
D56*
X1071372Y170180D03*
D60*
X1054989Y170434D03*
D56*
X1071372Y170434D03*
X1054862Y170688D03*
D60*
X1071245Y170688D03*
D56*
X1054862Y170942D03*
D60*
X1071245Y170942D03*
X1054735Y171196D03*
X1071245Y171196D03*
X1054735Y171450D03*
D56*
X1071118Y171450D03*
D60*
X1054735Y171704D03*
D56*
X1071118Y171704D03*
X1054608Y171958D03*
D60*
X1070991Y171958D03*
D56*
X1054608Y172212D03*
D60*
X1070991Y172212D03*
X1054481Y172466D03*
X1070991Y172466D03*
X1054481Y172720D03*
X1070991Y172720D03*
X1054481Y172974D03*
D56*
X1070864Y172974D03*
D60*
X1054481Y173228D03*
X1070737Y173228D03*
D56*
X1054354Y173482D03*
D60*
X1070737Y173482D03*
X1054227Y173736D03*
X1070737Y173736D03*
X1054227Y173990D03*
X1070737Y173990D03*
X1054227Y174244D03*
D56*
X1070610Y174244D03*
D60*
X1054227Y174498D03*
X1070483Y174498D03*
D56*
X1054100Y174752D03*
D60*
X1070483Y174752D03*
X1053973Y175006D03*
X1070483Y175006D03*
X1053973Y175260D03*
X1070483Y175260D03*
X1053973Y175514D03*
D56*
X1070356Y175514D03*
D60*
X1053973Y175768D03*
X1070229Y175768D03*
D56*
X1053846Y176022D03*
D60*
X1070229Y176022D03*
D56*
X1053846Y176276D03*
D60*
X1070229Y176276D03*
X1053719Y176530D03*
X1070229Y176530D03*
D91*
X406400Y95250D02*
X400050Y88900D01*
X406400Y95250D02*
X412750Y88900D01*
X425450Y88900D02*
X431800Y95250D01*
X438150Y88900D01*
X450850Y88900D02*
X457200Y95250D01*
X463550Y88900D01*
X406400Y95250D02*
X406400Y69850D01*
X431800Y69850D02*
X431800Y95250D01*
X457200Y95250D02*
X457200Y69850D01*
D92*
X844550Y19050D02*
X869950Y19050D01*
X850900Y25400D02*
X844550Y19050D01*
X850900Y12700D01*
X749300Y107950D02*
X742950Y107950D01*
X749300Y107950D02*
X749300Y82550D01*
X742950Y82550D01*
X728980Y148590D02*
X728980Y168910D01*
X726440Y146050D02*
X657860Y146050D01*
X655320Y148590D02*
X655320Y168910D01*
X657860Y171450D02*
X726440Y171450D01*
X657860Y171450D02*
X657760Y171448D01*
X657661Y171442D01*
X657561Y171432D01*
X657463Y171419D01*
X657364Y171401D01*
X657267Y171380D01*
X657171Y171355D01*
X657075Y171326D01*
X656981Y171293D01*
X656888Y171257D01*
X656797Y171217D01*
X656707Y171173D01*
X656619Y171126D01*
X656533Y171076D01*
X656449Y171022D01*
X656367Y170965D01*
X656288Y170905D01*
X656210Y170841D01*
X656136Y170775D01*
X656064Y170706D01*
X655995Y170634D01*
X655929Y170560D01*
X655865Y170482D01*
X655805Y170403D01*
X655748Y170321D01*
X655694Y170237D01*
X655644Y170151D01*
X655597Y170063D01*
X655553Y169973D01*
X655513Y169882D01*
X655477Y169789D01*
X655444Y169695D01*
X655415Y169599D01*
X655390Y169503D01*
X655369Y169406D01*
X655351Y169307D01*
X655338Y169209D01*
X655328Y169109D01*
X655322Y169010D01*
X655320Y168910D01*
X655320Y148590D02*
X655322Y148490D01*
X655328Y148391D01*
X655338Y148291D01*
X655351Y148193D01*
X655369Y148094D01*
X655390Y147997D01*
X655415Y147901D01*
X655444Y147805D01*
X655477Y147711D01*
X655513Y147618D01*
X655553Y147527D01*
X655597Y147437D01*
X655644Y147349D01*
X655694Y147263D01*
X655748Y147179D01*
X655805Y147097D01*
X655865Y147018D01*
X655929Y146940D01*
X655995Y146866D01*
X656064Y146794D01*
X656136Y146725D01*
X656210Y146659D01*
X656288Y146595D01*
X656367Y146535D01*
X656449Y146478D01*
X656533Y146424D01*
X656619Y146374D01*
X656707Y146327D01*
X656797Y146283D01*
X656888Y146243D01*
X656981Y146207D01*
X657075Y146174D01*
X657171Y146145D01*
X657267Y146120D01*
X657364Y146099D01*
X657463Y146081D01*
X657561Y146068D01*
X657661Y146058D01*
X657760Y146052D01*
X657860Y146050D01*
X726440Y146050D02*
X726540Y146052D01*
X726639Y146058D01*
X726739Y146068D01*
X726837Y146081D01*
X726936Y146099D01*
X727033Y146120D01*
X727129Y146145D01*
X727225Y146174D01*
X727319Y146207D01*
X727412Y146243D01*
X727503Y146283D01*
X727593Y146327D01*
X727681Y146374D01*
X727767Y146424D01*
X727851Y146478D01*
X727933Y146535D01*
X728012Y146595D01*
X728090Y146659D01*
X728164Y146725D01*
X728236Y146794D01*
X728305Y146866D01*
X728371Y146940D01*
X728435Y147018D01*
X728495Y147097D01*
X728552Y147179D01*
X728606Y147263D01*
X728656Y147349D01*
X728703Y147437D01*
X728747Y147527D01*
X728787Y147618D01*
X728823Y147711D01*
X728856Y147805D01*
X728885Y147901D01*
X728910Y147997D01*
X728931Y148094D01*
X728949Y148193D01*
X728962Y148291D01*
X728972Y148391D01*
X728978Y148490D01*
X728980Y148590D01*
X728980Y168910D02*
X728978Y169010D01*
X728972Y169109D01*
X728962Y169209D01*
X728949Y169307D01*
X728931Y169406D01*
X728910Y169503D01*
X728885Y169599D01*
X728856Y169695D01*
X728823Y169789D01*
X728787Y169882D01*
X728747Y169973D01*
X728703Y170063D01*
X728656Y170151D01*
X728606Y170237D01*
X728552Y170321D01*
X728495Y170403D01*
X728435Y170482D01*
X728371Y170560D01*
X728305Y170634D01*
X728236Y170706D01*
X728164Y170775D01*
X728090Y170841D01*
X728012Y170905D01*
X727933Y170965D01*
X727851Y171022D01*
X727767Y171076D01*
X727681Y171126D01*
X727593Y171173D01*
X727503Y171217D01*
X727412Y171257D01*
X727319Y171293D01*
X727225Y171326D01*
X727129Y171355D01*
X727033Y171380D01*
X726936Y171401D01*
X726837Y171419D01*
X726739Y171432D01*
X726639Y171442D01*
X726540Y171448D01*
X726440Y171450D01*
D91*
X696483Y154178D02*
X694451Y154178D01*
X696483Y154178D02*
X696572Y154180D01*
X696660Y154186D01*
X696748Y154195D01*
X696836Y154209D01*
X696923Y154226D01*
X697009Y154247D01*
X697094Y154272D01*
X697178Y154301D01*
X697261Y154333D01*
X697342Y154368D01*
X697421Y154408D01*
X697499Y154450D01*
X697575Y154496D01*
X697649Y154545D01*
X697720Y154598D01*
X697789Y154653D01*
X697856Y154712D01*
X697920Y154773D01*
X697981Y154837D01*
X698040Y154904D01*
X698095Y154973D01*
X698148Y155044D01*
X698197Y155118D01*
X698243Y155194D01*
X698285Y155272D01*
X698325Y155351D01*
X698360Y155432D01*
X698392Y155515D01*
X698421Y155599D01*
X698446Y155684D01*
X698467Y155770D01*
X698484Y155857D01*
X698498Y155945D01*
X698507Y156033D01*
X698513Y156121D01*
X698515Y156210D01*
X698515Y161290D01*
X698513Y161379D01*
X698507Y161467D01*
X698498Y161555D01*
X698484Y161643D01*
X698467Y161730D01*
X698446Y161816D01*
X698421Y161901D01*
X698392Y161985D01*
X698360Y162068D01*
X698325Y162149D01*
X698285Y162228D01*
X698243Y162306D01*
X698197Y162382D01*
X698148Y162456D01*
X698095Y162527D01*
X698040Y162596D01*
X697981Y162663D01*
X697920Y162727D01*
X697856Y162788D01*
X697789Y162847D01*
X697720Y162902D01*
X697649Y162955D01*
X697575Y163004D01*
X697499Y163050D01*
X697421Y163092D01*
X697342Y163132D01*
X697261Y163167D01*
X697178Y163199D01*
X697094Y163228D01*
X697009Y163253D01*
X696923Y163274D01*
X696836Y163291D01*
X696748Y163305D01*
X696660Y163314D01*
X696572Y163320D01*
X696483Y163322D01*
X694451Y163322D01*
X690865Y161290D02*
X688325Y163322D01*
X688325Y154178D01*
X690865Y154178D02*
X685785Y154178D01*
D92*
X655320Y35560D02*
X655320Y15240D01*
X657860Y38100D02*
X726440Y38100D01*
X728980Y35560D02*
X728980Y15240D01*
X726440Y12700D02*
X657860Y12700D01*
X726440Y12700D02*
X726540Y12702D01*
X726639Y12708D01*
X726739Y12718D01*
X726837Y12731D01*
X726936Y12749D01*
X727033Y12770D01*
X727129Y12795D01*
X727225Y12824D01*
X727319Y12857D01*
X727412Y12893D01*
X727503Y12933D01*
X727593Y12977D01*
X727681Y13024D01*
X727767Y13074D01*
X727851Y13128D01*
X727933Y13185D01*
X728012Y13245D01*
X728090Y13309D01*
X728164Y13375D01*
X728236Y13444D01*
X728305Y13516D01*
X728371Y13590D01*
X728435Y13668D01*
X728495Y13747D01*
X728552Y13829D01*
X728606Y13913D01*
X728656Y13999D01*
X728703Y14087D01*
X728747Y14177D01*
X728787Y14268D01*
X728823Y14361D01*
X728856Y14455D01*
X728885Y14551D01*
X728910Y14647D01*
X728931Y14744D01*
X728949Y14843D01*
X728962Y14941D01*
X728972Y15041D01*
X728978Y15140D01*
X728980Y15240D01*
X728980Y35560D02*
X728978Y35660D01*
X728972Y35759D01*
X728962Y35859D01*
X728949Y35957D01*
X728931Y36056D01*
X728910Y36153D01*
X728885Y36249D01*
X728856Y36345D01*
X728823Y36439D01*
X728787Y36532D01*
X728747Y36623D01*
X728703Y36713D01*
X728656Y36801D01*
X728606Y36887D01*
X728552Y36971D01*
X728495Y37053D01*
X728435Y37132D01*
X728371Y37210D01*
X728305Y37284D01*
X728236Y37356D01*
X728164Y37425D01*
X728090Y37491D01*
X728012Y37555D01*
X727933Y37615D01*
X727851Y37672D01*
X727767Y37726D01*
X727681Y37776D01*
X727593Y37823D01*
X727503Y37867D01*
X727412Y37907D01*
X727319Y37943D01*
X727225Y37976D01*
X727129Y38005D01*
X727033Y38030D01*
X726936Y38051D01*
X726837Y38069D01*
X726739Y38082D01*
X726639Y38092D01*
X726540Y38098D01*
X726440Y38100D01*
X657860Y38100D02*
X657760Y38098D01*
X657661Y38092D01*
X657561Y38082D01*
X657463Y38069D01*
X657364Y38051D01*
X657267Y38030D01*
X657171Y38005D01*
X657075Y37976D01*
X656981Y37943D01*
X656888Y37907D01*
X656797Y37867D01*
X656707Y37823D01*
X656619Y37776D01*
X656533Y37726D01*
X656449Y37672D01*
X656367Y37615D01*
X656288Y37555D01*
X656210Y37491D01*
X656136Y37425D01*
X656064Y37356D01*
X655995Y37284D01*
X655929Y37210D01*
X655865Y37132D01*
X655805Y37053D01*
X655748Y36971D01*
X655694Y36887D01*
X655644Y36801D01*
X655597Y36713D01*
X655553Y36623D01*
X655513Y36532D01*
X655477Y36439D01*
X655444Y36345D01*
X655415Y36249D01*
X655390Y36153D01*
X655369Y36056D01*
X655351Y35957D01*
X655338Y35859D01*
X655328Y35759D01*
X655322Y35660D01*
X655320Y35560D01*
X655320Y15240D02*
X655322Y15140D01*
X655328Y15041D01*
X655338Y14941D01*
X655351Y14843D01*
X655369Y14744D01*
X655390Y14647D01*
X655415Y14551D01*
X655444Y14455D01*
X655477Y14361D01*
X655513Y14268D01*
X655553Y14177D01*
X655597Y14087D01*
X655644Y13999D01*
X655694Y13913D01*
X655748Y13829D01*
X655805Y13747D01*
X655865Y13668D01*
X655929Y13590D01*
X655995Y13516D01*
X656064Y13444D01*
X656136Y13375D01*
X656210Y13309D01*
X656288Y13245D01*
X656367Y13185D01*
X656449Y13128D01*
X656533Y13074D01*
X656619Y13024D01*
X656707Y12977D01*
X656797Y12933D01*
X656888Y12893D01*
X656981Y12857D01*
X657075Y12824D01*
X657171Y12795D01*
X657267Y12770D01*
X657364Y12749D01*
X657463Y12731D01*
X657561Y12718D01*
X657661Y12708D01*
X657760Y12702D01*
X657860Y12700D01*
D91*
X694451Y20828D02*
X696483Y20828D01*
X696572Y20830D01*
X696660Y20836D01*
X696748Y20845D01*
X696836Y20859D01*
X696923Y20876D01*
X697009Y20897D01*
X697094Y20922D01*
X697178Y20951D01*
X697261Y20983D01*
X697342Y21018D01*
X697421Y21058D01*
X697499Y21100D01*
X697575Y21146D01*
X697649Y21195D01*
X697720Y21248D01*
X697789Y21303D01*
X697856Y21362D01*
X697920Y21423D01*
X697981Y21487D01*
X698040Y21554D01*
X698095Y21623D01*
X698148Y21694D01*
X698197Y21768D01*
X698243Y21844D01*
X698285Y21922D01*
X698325Y22001D01*
X698360Y22082D01*
X698392Y22165D01*
X698421Y22249D01*
X698446Y22334D01*
X698467Y22420D01*
X698484Y22507D01*
X698498Y22595D01*
X698507Y22683D01*
X698513Y22771D01*
X698515Y22860D01*
X698515Y27940D01*
X698513Y28029D01*
X698507Y28117D01*
X698498Y28205D01*
X698484Y28293D01*
X698467Y28380D01*
X698446Y28466D01*
X698421Y28551D01*
X698392Y28635D01*
X698360Y28718D01*
X698325Y28799D01*
X698285Y28878D01*
X698243Y28956D01*
X698197Y29032D01*
X698148Y29106D01*
X698095Y29177D01*
X698040Y29246D01*
X697981Y29313D01*
X697920Y29377D01*
X697856Y29438D01*
X697789Y29497D01*
X697720Y29552D01*
X697649Y29605D01*
X697575Y29654D01*
X697499Y29700D01*
X697421Y29742D01*
X697342Y29782D01*
X697261Y29817D01*
X697178Y29849D01*
X697094Y29878D01*
X697009Y29903D01*
X696923Y29924D01*
X696836Y29941D01*
X696748Y29955D01*
X696660Y29964D01*
X696572Y29970D01*
X696483Y29972D01*
X694451Y29972D01*
X688071Y29972D02*
X687977Y29970D01*
X687882Y29964D01*
X687788Y29954D01*
X687695Y29941D01*
X687602Y29923D01*
X687510Y29902D01*
X687419Y29877D01*
X687329Y29848D01*
X687240Y29816D01*
X687153Y29779D01*
X687067Y29740D01*
X686983Y29696D01*
X686901Y29650D01*
X686821Y29600D01*
X686743Y29546D01*
X686667Y29490D01*
X686594Y29430D01*
X686523Y29368D01*
X686455Y29302D01*
X686389Y29234D01*
X686327Y29163D01*
X686267Y29090D01*
X686211Y29014D01*
X686157Y28936D01*
X686107Y28856D01*
X686061Y28774D01*
X686017Y28690D01*
X685978Y28604D01*
X685941Y28517D01*
X685909Y28428D01*
X685880Y28338D01*
X685855Y28247D01*
X685834Y28155D01*
X685816Y28062D01*
X685803Y27969D01*
X685793Y27875D01*
X685787Y27780D01*
X685785Y27686D01*
X688071Y29972D02*
X688177Y29970D01*
X688282Y29964D01*
X688387Y29955D01*
X688492Y29942D01*
X688596Y29925D01*
X688699Y29904D01*
X688802Y29880D01*
X688904Y29851D01*
X689004Y29820D01*
X689104Y29784D01*
X689202Y29746D01*
X689298Y29703D01*
X689394Y29657D01*
X689487Y29608D01*
X689578Y29556D01*
X689668Y29500D01*
X689756Y29441D01*
X689841Y29379D01*
X689924Y29314D01*
X690005Y29246D01*
X690083Y29175D01*
X690158Y29101D01*
X690231Y29025D01*
X690301Y28946D01*
X690368Y28865D01*
X690433Y28781D01*
X690494Y28695D01*
X690552Y28607D01*
X690607Y28517D01*
X690658Y28425D01*
X690707Y28331D01*
X690752Y28235D01*
X690793Y28138D01*
X690831Y28040D01*
X690865Y27940D01*
X686547Y25908D02*
X686480Y25975D01*
X686415Y26044D01*
X686353Y26116D01*
X686294Y26189D01*
X686238Y26266D01*
X686184Y26344D01*
X686134Y26424D01*
X686087Y26506D01*
X686043Y26590D01*
X686003Y26676D01*
X685965Y26763D01*
X685931Y26851D01*
X685901Y26941D01*
X685874Y27031D01*
X685850Y27123D01*
X685830Y27216D01*
X685814Y27309D01*
X685801Y27403D01*
X685792Y27497D01*
X685787Y27591D01*
X685785Y27686D01*
X686547Y25908D02*
X690865Y20828D01*
X685785Y20828D01*
D93*
X19050Y82550D02*
X19050Y107950D01*
X19050Y82550D02*
X6350Y82550D01*
X6350Y6350D01*
X361950Y6350D01*
X361950Y184150D01*
X6350Y184150D01*
X6350Y107950D01*
X19050Y107950D01*
X742950Y6350D02*
X831850Y6350D01*
X742950Y6350D02*
X742950Y184150D01*
X831850Y184150D01*
X831850Y6350D01*
D94*
X809400Y23250D02*
X765400Y23250D01*
D92*
X412750Y107950D02*
X400050Y107950D01*
X412750Y107950D02*
X419100Y114300D01*
X425450Y107950D01*
X438150Y107950D01*
X444500Y114300D01*
X400050Y107950D02*
X393700Y114300D01*
X444500Y114300D02*
X450850Y107950D01*
X463550Y107950D01*
X469900Y114300D01*
X469900Y152400D01*
X419100Y152400D02*
X412750Y158750D01*
X438150Y158750D02*
X444500Y152400D01*
X438150Y158750D02*
X425450Y158750D01*
X419100Y152400D01*
X393700Y152400D02*
X393700Y114300D01*
X393700Y152400D02*
X400050Y158750D01*
X412750Y158750D01*
X463550Y158750D02*
X469900Y152400D01*
X463550Y158750D02*
X450850Y158750D01*
X444500Y152400D01*
M02*
