G04 EAGLE Gerber RS-274X export*
G75*
%MOMM*%
%FSLAX34Y34*%
%LPD*%
%INSoldermask Top*%
%IPPOS*%
%AMOC8*
5,1,8,0,0,1.08239X$1,22.5*%
G01*
%ADD10C,3.403200*%
%ADD11P,1.649562X8X202.500000*%
%ADD12P,1.649562X8X22.500000*%
%ADD13P,2.034460X8X292.500000*%
%ADD14C,1.879600*%
%ADD15C,3.505200*%
%ADD16P,1.649562X8X292.500000*%
%ADD17P,1.649562X8X112.500000*%
%ADD18C,1.676400*%
%ADD19C,1.853200*%
%ADD20P,2.254402X8X112.500000*%
%ADD21C,1.727200*%
%ADD22P,1.869504X8X22.500000*%
%ADD23P,2.034460X8X112.500000*%


D10*
X44450Y95250D03*
D11*
X717550Y158750D03*
X666750Y158750D03*
D12*
X666750Y25400D03*
X717550Y25400D03*
D13*
X939800Y139700D03*
X939800Y114300D03*
D14*
X713232Y120650D02*
X696468Y120650D01*
X696468Y95250D02*
X713232Y95250D01*
X713232Y69850D02*
X696468Y69850D01*
D15*
X554990Y95250D03*
D12*
X381000Y82550D03*
X482600Y82550D03*
X381000Y57150D03*
X482600Y57150D03*
D16*
X882650Y146050D03*
X882650Y44450D03*
D17*
X857250Y44450D03*
X857250Y146050D03*
D16*
X908050Y146050D03*
X908050Y44450D03*
D18*
X19050Y171450D03*
X44450Y171450D03*
X69850Y171450D03*
X95250Y171450D03*
X120650Y171450D03*
X146050Y171450D03*
X171450Y171450D03*
X196850Y171450D03*
X222250Y171450D03*
X247650Y171450D03*
X273050Y171450D03*
X298450Y171450D03*
X323850Y171450D03*
X349250Y171450D03*
X349250Y19050D03*
X323850Y19050D03*
X298450Y19050D03*
X273050Y19050D03*
X247650Y19050D03*
X222250Y19050D03*
X196850Y19050D03*
X171450Y19050D03*
X146050Y19050D03*
X120650Y19050D03*
X95250Y19050D03*
X69850Y19050D03*
X44450Y19050D03*
X19050Y19050D03*
D19*
X1041400Y145250D03*
X1041400Y60250D03*
X1041400Y30250D03*
D20*
X775970Y44450D03*
X773430Y69850D03*
X775970Y95250D03*
X773430Y120650D03*
X775970Y146050D03*
X801370Y44450D03*
X798830Y69850D03*
X801370Y95250D03*
X798830Y120650D03*
X801370Y146050D03*
D21*
X406400Y146050D03*
D22*
X431800Y146050D03*
X457200Y146050D03*
X406400Y120650D03*
X431800Y120650D03*
X457200Y120650D03*
D23*
X939800Y50800D03*
X939800Y76200D03*
D16*
X971550Y146050D03*
X971550Y44450D03*
M02*
