M48
;GenerationSoftware,Autodesk,EAGLE,9.6.2*%
;CreationDate,2021-04-26T18:43:46Z*%
FMAT,2
ICI,OFF
METRIC,TZ,000.000
T7C0.813
T6C0.965
T5C1.016
T4C1.100
T3C1.118
T2C3.200
T1C3.302
%
G90
M71
T1
X55499Y9525
T2
X4445Y9525
T3
X70485Y12065
X70485Y9525
X70485Y6985
T4
X104140Y3025
X104140Y6025
X104140Y14525
T5
X45720Y12065
X43180Y12065
X40640Y12065
X45720Y14605
X43180Y14605
X40640Y14605
X80137Y14605
X79883Y12065
X80137Y9525
X79883Y6985
X80137Y4445
X77597Y14605
X77343Y12065
X77597Y9525
X77343Y6985
X77597Y4445
T6
X9525Y17145
X12065Y17145
X14605Y17145
X17145Y17145
X19685Y17145
X22225Y17145
X24765Y17145
X27305Y17145
X29845Y17145
X32385Y17145
X34925Y17145
X34925Y1905
X32385Y1905
X29845Y1905
X27305Y1905
X24765Y1905
X22225Y1905
X19685Y1905
X17145Y1905
X14605Y1905
X12065Y1905
X9525Y1905
X6985Y1905
X4445Y1905
X1905Y1905
X6985Y17145
X4445Y17145
X1905Y17145
T7
X90805Y4445
X90805Y14605
X85725Y14605
X85725Y4445
X88265Y4445
X88265Y14605
X48260Y5715
X38100Y5715
X48260Y8255
X38100Y8255
X93980Y11430
X93980Y13970
X71755Y2540
X66675Y2540
X66675Y15875
X71755Y15875
X93980Y5080
X93980Y7620
X97155Y14605
X97155Y4445
M30