G04 EAGLE Gerber RS-274X export*
G75*
%MOMM*%
%FSLAX34Y34*%
%LPD*%
%INSilkscreen Top*%
%IPPOS*%
%AMOC8*
5,1,8,0,0,1.08239X$1,22.5*%
G01*
%ADD10R,0.234694X0.008381*%
%ADD11R,0.083819X0.008381*%
%ADD12R,0.217931X0.008381*%
%ADD13R,0.293369X0.008381*%
%ADD14R,0.352044X0.008381*%
%ADD15R,0.402331X0.008381*%
%ADD16R,0.226312X0.008381*%
%ADD17R,0.444244X0.008381*%
%ADD18R,0.486150X0.008381*%
%ADD19R,0.511300X0.008381*%
%ADD20R,0.544825X0.008381*%
%ADD21R,0.578356X0.008381*%
%ADD22R,0.603500X0.008381*%
%ADD23R,0.637031X0.008381*%
%ADD24R,0.662175X0.008381*%
%ADD25R,0.678944X0.008381*%
%ADD26R,0.704088X0.008381*%
%ADD27R,0.729231X0.008381*%
%ADD28R,0.754381X0.008381*%
%ADD29R,0.771144X0.008381*%
%ADD30R,0.787906X0.008381*%
%ADD31R,0.804669X0.008381*%
%ADD32R,0.821438X0.008381*%
%ADD33R,0.846581X0.008381*%
%ADD34R,0.863344X0.008381*%
%ADD35R,0.871725X0.008381*%
%ADD36R,0.888488X0.008381*%
%ADD37R,0.913637X0.008381*%
%ADD38R,0.922019X0.008381*%
%ADD39R,0.938781X0.008381*%
%ADD40R,0.955544X0.008381*%
%ADD41R,0.963931X0.008381*%
%ADD42R,0.980694X0.008381*%
%ADD43R,0.461006X0.008381*%
%ADD44R,0.377188X0.008381*%
%ADD45R,0.435863X0.008381*%
%ADD46R,0.419100X0.008381*%
%ADD47R,0.326894X0.008381*%
%ADD48R,0.318513X0.008381*%
%ADD49R,0.393950X0.008381*%
%ADD50R,0.301750X0.008381*%
%ADD51R,0.385575X0.008381*%
%ADD52R,0.284988X0.008381*%
%ADD53R,0.368806X0.008381*%
%ADD54R,0.276606X0.008381*%
%ADD55R,0.268225X0.008381*%
%ADD56R,0.360425X0.008381*%
%ADD57R,0.268219X0.008381*%
%ADD58R,0.259837X0.008381*%
%ADD59R,0.251456X0.008381*%
%ADD60R,0.343663X0.008381*%
%ADD61R,0.243075X0.008381*%
%ADD62R,1.760219X0.008381*%
%ADD63R,0.335275X0.008381*%
%ADD64R,0.335281X0.008381*%
%ADD65R,0.326900X0.008381*%
%ADD66R,0.318519X0.008381*%
%ADD67R,0.561594X0.008381*%
%ADD68R,0.553212X0.008381*%
%ADD69R,0.536444X0.008381*%
%ADD70R,0.528062X0.008381*%
%ADD71R,0.519681X0.008381*%
%ADD72R,0.502919X0.008381*%
%ADD73R,0.310131X0.008381*%
%ADD74R,0.494538X0.008381*%
%ADD75R,0.486156X0.008381*%
%ADD76R,0.477769X0.008381*%
%ADD77R,0.469388X0.008381*%
%ADD78R,0.452625X0.008381*%
%ADD79R,0.427481X0.008381*%
%ADD80R,0.410719X0.008381*%
%ADD81R,0.385569X0.008381*%
%ADD82R,0.192781X0.008381*%
%ADD83R,0.167637X0.008381*%
%ADD84R,0.142494X0.008381*%
%ADD85R,0.100581X0.008381*%
%ADD86R,0.033525X0.008381*%
%ADD87R,0.041906X0.008381*%
%ADD88R,0.796288X0.008381*%
%ADD89R,0.108963X0.008381*%
%ADD90R,0.930400X0.008381*%
%ADD91R,0.997456X0.008381*%
%ADD92R,0.176019X0.008381*%
%ADD93R,1.047750X0.008381*%
%ADD94R,0.201169X0.008381*%
%ADD95R,0.201163X0.008381*%
%ADD96R,1.098044X0.008381*%
%ADD97R,1.148331X0.008381*%
%ADD98R,1.181863X0.008381*%
%ADD99R,1.215388X0.008381*%
%ADD100R,1.248919X0.008381*%
%ADD101R,0.276600X0.008381*%
%ADD102R,1.265681X0.008381*%
%ADD103R,1.299213X0.008381*%
%ADD104R,1.315975X0.008381*%
%ADD105R,1.349500X0.008381*%
%ADD106R,1.366263X0.008381*%
%ADD107R,1.383031X0.008381*%
%ADD108R,0.343656X0.008381*%
%ADD109R,1.408175X0.008381*%
%ADD110R,1.424937X0.008381*%
%ADD111R,1.441700X0.008381*%
%ADD112R,1.458469X0.008381*%
%ADD113R,1.475231X0.008381*%
%ADD114R,1.491994X0.008381*%
%ADD115R,0.393956X0.008381*%
%ADD116R,1.500375X0.008381*%
%ADD117R,0.402338X0.008381*%
%ADD118R,1.517144X0.008381*%
%ADD119R,1.533906X0.008381*%
%ADD120R,0.410713X0.008381*%
%ADD121R,1.542288X0.008381*%
%ADD122R,1.550669X0.008381*%
%ADD123R,1.567431X0.008381*%
%ADD124R,1.575813X0.008381*%
%ADD125R,1.584200X0.008381*%
%ADD126R,1.600963X0.008381*%
%ADD127R,0.259844X0.008381*%
%ADD128R,0.251463X0.008381*%
%ADD129R,1.684781X0.008381*%
%ADD130R,1.668019X0.008381*%
%ADD131R,1.659638X0.008381*%
%ADD132R,1.651256X0.008381*%
%ADD133R,1.642875X0.008381*%
%ADD134R,1.634488X0.008381*%
%ADD135R,1.617725X0.008381*%
%ADD136R,1.609344X0.008381*%
%ADD137R,1.592581X0.008381*%
%ADD138R,1.525525X0.008381*%
%ADD139R,1.508763X0.008381*%
%ADD140R,1.466850X0.008381*%
%ADD141R,1.450087X0.008381*%
%ADD142R,1.433319X0.008381*%
%ADD143R,1.399794X0.008381*%
%ADD144R,1.332738X0.008381*%
%ADD145R,1.299206X0.008381*%
%ADD146R,1.223775X0.008381*%
%ADD147R,1.131569X0.008381*%
%ADD148R,1.072894X0.008381*%
%ADD149R,0.016762X0.008381*%
%ADD150R,0.058669X0.008381*%
%ADD151R,0.150875X0.008381*%
%ADD152R,0.670556X0.008381*%
%ADD153R,0.712469X0.008381*%
%ADD154R,0.762756X0.008381*%
%ADD155R,0.134112X0.008381*%
%ADD156R,0.854963X0.008381*%
%ADD157R,1.357881X0.008381*%
%ADD158R,0.192788X0.008381*%
%ADD159R,0.905256X0.008381*%
%ADD160R,1.257300X0.008381*%
%ADD161R,0.947163X0.008381*%
%ADD162R,1.165094X0.008381*%
%ADD163R,1.064512X0.008381*%
%ADD164R,0.745994X0.008381*%
%ADD165R,1.207006X0.008381*%
%ADD166R,1.156713X0.008381*%
%ADD167R,1.114806X0.008381*%
%ADD168R,1.030981X0.008381*%
%ADD169R,1.039369X0.008381*%
%ADD170R,1.039362X0.008381*%
%ADD171R,1.098037X0.008381*%
%ADD172R,0.586738X0.008381*%
%ADD173R,1.139950X0.008381*%
%ADD174R,1.190244X0.008381*%
%ADD175R,1.014219X0.008381*%
%ADD176R,0.972313X0.008381*%
%ADD177R,0.829819X0.008381*%
%ADD178R,0.779525X0.008381*%
%ADD179R,0.687325X0.008381*%
%ADD180R,0.125731X0.008381*%
%ADD181R,0.075438X0.008381*%
%ADD182R,0.209550X0.008381*%
%ADD183R,0.092200X0.008381*%
%ADD184R,0.134106X0.008381*%
%ADD185R,0.645413X0.008381*%
%ADD186R,0.695706X0.008381*%
%ADD187R,0.838200X0.008381*%
%ADD188R,1.022600X0.008381*%
%ADD189R,1.223769X0.008381*%
%ADD190R,1.081275X0.008381*%
%ADD191R,0.477775X0.008381*%
%ADD192R,1.123188X0.008381*%
%ADD193R,0.963925X0.008381*%
%ADD194R,0.989075X0.008381*%
%ADD195R,1.315969X0.008381*%
%ADD196R,0.184400X0.008381*%
%ADD197R,0.896875X0.008381*%
%ADD198R,0.159256X0.008381*%
%ADD199R,0.653794X0.008381*%
%ADD200R,0.050288X0.008381*%
%ADD201R,0.008381X0.008381*%


D10*
X243929Y72768D03*
X243929Y72852D03*
X243929Y72936D03*
X243929Y73020D03*
D11*
X255580Y73020D03*
D10*
X243929Y73104D03*
D12*
X255580Y73104D03*
D10*
X243929Y73188D03*
D13*
X255622Y73188D03*
D10*
X243929Y73271D03*
D14*
X255580Y73271D03*
D10*
X243929Y73355D03*
D15*
X255580Y73355D03*
D16*
X216226Y73439D03*
X231565Y73439D03*
D10*
X243929Y73439D03*
D17*
X255538Y73439D03*
D16*
X216226Y73523D03*
X231565Y73523D03*
D10*
X243929Y73523D03*
D18*
X255580Y73523D03*
D16*
X216226Y73607D03*
X231565Y73607D03*
D10*
X243929Y73607D03*
D19*
X255538Y73607D03*
D16*
X216226Y73691D03*
X231565Y73691D03*
D10*
X243929Y73691D03*
D20*
X255538Y73691D03*
D16*
X216226Y73774D03*
X231565Y73774D03*
D10*
X243929Y73774D03*
D21*
X255538Y73774D03*
D16*
X216226Y73858D03*
X231565Y73858D03*
D10*
X243929Y73858D03*
D22*
X255496Y73858D03*
D16*
X216226Y73942D03*
X231565Y73942D03*
D10*
X243929Y73942D03*
D23*
X255496Y73942D03*
D16*
X216226Y74026D03*
X231565Y74026D03*
D10*
X243929Y74026D03*
D24*
X255454Y74026D03*
D16*
X216226Y74110D03*
X231565Y74110D03*
D10*
X243929Y74110D03*
D25*
X255454Y74110D03*
D16*
X216226Y74193D03*
X231565Y74193D03*
D10*
X243929Y74193D03*
D26*
X255412Y74193D03*
D16*
X216226Y74277D03*
X231565Y74277D03*
D10*
X243929Y74277D03*
D27*
X255454Y74277D03*
D16*
X216226Y74361D03*
X231565Y74361D03*
D10*
X243929Y74361D03*
D28*
X255412Y74361D03*
D16*
X216226Y74445D03*
X231565Y74445D03*
D10*
X243929Y74445D03*
D29*
X255412Y74445D03*
D16*
X216226Y74529D03*
X231565Y74529D03*
D10*
X243929Y74529D03*
D30*
X255328Y74529D03*
D16*
X216226Y74613D03*
X231565Y74613D03*
D10*
X243929Y74613D03*
D31*
X255328Y74613D03*
D16*
X216226Y74696D03*
X231565Y74696D03*
D10*
X243929Y74696D03*
D32*
X255328Y74696D03*
D16*
X216226Y74780D03*
X231565Y74780D03*
D10*
X243929Y74780D03*
D33*
X255287Y74780D03*
D16*
X216226Y74864D03*
X231565Y74864D03*
D10*
X243929Y74864D03*
D34*
X255287Y74864D03*
D16*
X216226Y74948D03*
X231565Y74948D03*
D10*
X243929Y74948D03*
D35*
X255245Y74948D03*
D16*
X216226Y75032D03*
X231565Y75032D03*
D10*
X243929Y75032D03*
D36*
X255245Y75032D03*
D16*
X216226Y75115D03*
X231565Y75115D03*
D10*
X243929Y75115D03*
D37*
X255203Y75115D03*
D16*
X216226Y75199D03*
X231565Y75199D03*
D10*
X243929Y75199D03*
D38*
X255161Y75199D03*
D16*
X216226Y75283D03*
X231565Y75283D03*
D10*
X243929Y75283D03*
D39*
X255161Y75283D03*
D16*
X216226Y75367D03*
X231565Y75367D03*
D10*
X243929Y75367D03*
D40*
X255161Y75367D03*
D16*
X216226Y75451D03*
X231565Y75451D03*
D10*
X243929Y75451D03*
D41*
X255119Y75451D03*
D16*
X216226Y75535D03*
X231565Y75535D03*
D10*
X243929Y75535D03*
D42*
X255119Y75535D03*
D16*
X216226Y75618D03*
X231565Y75618D03*
D10*
X243929Y75618D03*
D43*
X252353Y75618D03*
D44*
X258136Y75618D03*
D16*
X216226Y75702D03*
X231565Y75702D03*
D10*
X243929Y75702D03*
D45*
X252143Y75702D03*
D14*
X258346Y75702D03*
D16*
X216226Y75786D03*
X231565Y75786D03*
D10*
X243929Y75786D03*
D46*
X251976Y75786D03*
D47*
X258472Y75786D03*
D16*
X216226Y75870D03*
X231565Y75870D03*
D10*
X243929Y75870D03*
D15*
X251808Y75870D03*
D48*
X258597Y75870D03*
D16*
X216226Y75954D03*
X231565Y75954D03*
D10*
X243929Y75954D03*
D49*
X251682Y75954D03*
D50*
X258681Y75954D03*
D16*
X216226Y76037D03*
X231565Y76037D03*
D10*
X243929Y76037D03*
D51*
X251557Y76037D03*
D13*
X258723Y76037D03*
D16*
X216226Y76121D03*
X231565Y76121D03*
D10*
X243929Y76121D03*
D44*
X251431Y76121D03*
D52*
X258849Y76121D03*
D16*
X216226Y76205D03*
X231565Y76205D03*
D10*
X243929Y76205D03*
D53*
X251305Y76205D03*
D54*
X258891Y76205D03*
D16*
X216226Y76289D03*
X231565Y76289D03*
D10*
X243929Y76289D03*
D53*
X251221Y76289D03*
D55*
X258933Y76289D03*
D16*
X216226Y76373D03*
X231565Y76373D03*
D10*
X243929Y76373D03*
D56*
X251096Y76373D03*
D57*
X259017Y76373D03*
D16*
X216226Y76457D03*
X231565Y76457D03*
D10*
X243929Y76457D03*
D56*
X251012Y76457D03*
D58*
X259058Y76457D03*
D16*
X216226Y76540D03*
X231565Y76540D03*
D10*
X243929Y76540D03*
D14*
X250886Y76540D03*
D59*
X259100Y76540D03*
D16*
X216226Y76624D03*
X231565Y76624D03*
D10*
X243929Y76624D03*
D14*
X250802Y76624D03*
D59*
X259184Y76624D03*
D16*
X216226Y76708D03*
X231565Y76708D03*
D10*
X243929Y76708D03*
D14*
X250718Y76708D03*
D59*
X259184Y76708D03*
D16*
X216226Y76792D03*
X231565Y76792D03*
D10*
X243929Y76792D03*
D60*
X250593Y76792D03*
D61*
X259226Y76792D03*
D16*
X216226Y76876D03*
X231565Y76876D03*
D10*
X243929Y76876D03*
D60*
X250509Y76876D03*
D61*
X259226Y76876D03*
D16*
X216226Y76959D03*
X231565Y76959D03*
D10*
X243929Y76959D03*
D60*
X250425Y76959D03*
D61*
X259310Y76959D03*
D62*
X223896Y77043D03*
D10*
X243929Y77043D03*
D63*
X250299Y77043D03*
D61*
X259310Y77043D03*
D62*
X223896Y77127D03*
D10*
X243929Y77127D03*
D64*
X250215Y77127D03*
D10*
X259352Y77127D03*
D62*
X223896Y77211D03*
D10*
X243929Y77211D03*
D64*
X250132Y77211D03*
D10*
X259352Y77211D03*
D62*
X223896Y77295D03*
D10*
X243929Y77295D03*
D63*
X250048Y77295D03*
D10*
X259352Y77295D03*
D62*
X223896Y77379D03*
D10*
X243929Y77379D03*
D63*
X249964Y77379D03*
D16*
X259394Y77379D03*
D62*
X223896Y77462D03*
D10*
X243929Y77462D03*
D64*
X249880Y77462D03*
D16*
X259394Y77462D03*
D62*
X223896Y77546D03*
D10*
X243929Y77546D03*
D65*
X249754Y77546D03*
D10*
X259436Y77546D03*
D62*
X223896Y77630D03*
D10*
X243929Y77630D03*
D47*
X249671Y77630D03*
D16*
X259478Y77630D03*
D62*
X223896Y77714D03*
D10*
X243929Y77714D03*
D47*
X249587Y77714D03*
D16*
X259478Y77714D03*
D62*
X223896Y77798D03*
D10*
X243929Y77798D03*
D65*
X249503Y77798D03*
D16*
X259478Y77798D03*
D62*
X223896Y77882D03*
D10*
X243929Y77882D03*
D65*
X249419Y77882D03*
D16*
X259478Y77882D03*
D62*
X223896Y77965D03*
D10*
X243929Y77965D03*
D47*
X249335Y77965D03*
D16*
X259478Y77965D03*
D62*
X223896Y78049D03*
D10*
X243929Y78049D03*
D47*
X249251Y78049D03*
D16*
X259478Y78049D03*
D62*
X223896Y78133D03*
D10*
X243929Y78133D03*
D65*
X249168Y78133D03*
D16*
X259478Y78133D03*
D62*
X223896Y78217D03*
D10*
X243929Y78217D03*
D65*
X249084Y78217D03*
D16*
X259478Y78217D03*
D62*
X223896Y78301D03*
D10*
X243929Y78301D03*
D47*
X249000Y78301D03*
D16*
X259478Y78301D03*
D62*
X223896Y78384D03*
D10*
X243929Y78384D03*
D47*
X248916Y78384D03*
D16*
X259478Y78384D03*
D62*
X223896Y78468D03*
D10*
X243929Y78468D03*
D47*
X248832Y78468D03*
D16*
X259478Y78468D03*
D62*
X223896Y78552D03*
D10*
X243929Y78552D03*
D65*
X248749Y78552D03*
D16*
X259478Y78552D03*
D62*
X223896Y78636D03*
D10*
X243929Y78636D03*
D47*
X248665Y78636D03*
D16*
X259478Y78636D03*
D62*
X223896Y78720D03*
D10*
X243929Y78720D03*
D47*
X248581Y78720D03*
D16*
X259478Y78720D03*
D62*
X223896Y78804D03*
D10*
X243929Y78804D03*
D47*
X248497Y78804D03*
D16*
X259478Y78804D03*
D62*
X223896Y78887D03*
D10*
X243929Y78887D03*
D65*
X248413Y78887D03*
D16*
X259478Y78887D03*
D62*
X223896Y78971D03*
D10*
X243929Y78971D03*
D47*
X248329Y78971D03*
D16*
X259478Y78971D03*
D62*
X223896Y79055D03*
D10*
X243929Y79055D03*
D47*
X248246Y79055D03*
D16*
X259478Y79055D03*
D62*
X223896Y79139D03*
D10*
X243929Y79139D03*
D47*
X248162Y79139D03*
D10*
X259436Y79139D03*
D62*
X223896Y79223D03*
D10*
X243929Y79223D03*
D65*
X248078Y79223D03*
D16*
X259394Y79223D03*
D62*
X223896Y79306D03*
D10*
X243929Y79306D03*
D47*
X247994Y79306D03*
D16*
X259394Y79306D03*
D62*
X223896Y79390D03*
D10*
X243929Y79390D03*
D48*
X247868Y79390D03*
D16*
X259394Y79390D03*
D62*
X223896Y79474D03*
D10*
X243929Y79474D03*
D48*
X247785Y79474D03*
D10*
X259352Y79474D03*
D62*
X223896Y79558D03*
D10*
X243929Y79558D03*
D66*
X247701Y79558D03*
D10*
X259352Y79558D03*
D16*
X216226Y79642D03*
X231565Y79642D03*
D10*
X243929Y79642D03*
D47*
X247575Y79642D03*
D10*
X259352Y79642D03*
D16*
X216226Y79726D03*
X231565Y79726D03*
D10*
X243929Y79726D03*
D47*
X247491Y79726D03*
D10*
X259268Y79726D03*
D16*
X216226Y79809D03*
X231565Y79809D03*
D10*
X243929Y79809D03*
D65*
X247407Y79809D03*
D10*
X259268Y79809D03*
D16*
X216226Y79893D03*
X231565Y79893D03*
D10*
X243929Y79893D03*
D65*
X247324Y79893D03*
D61*
X259226Y79893D03*
D16*
X216226Y79977D03*
X231565Y79977D03*
D10*
X243929Y79977D03*
D47*
X247240Y79977D03*
D61*
X259226Y79977D03*
D16*
X216226Y80061D03*
X231565Y80061D03*
D10*
X243929Y80061D03*
D47*
X247156Y80061D03*
D59*
X259184Y80061D03*
D16*
X216226Y80145D03*
X231565Y80145D03*
D10*
X243929Y80145D03*
D65*
X247072Y80145D03*
D61*
X259142Y80145D03*
D16*
X216226Y80228D03*
X231565Y80228D03*
D10*
X243929Y80228D03*
D65*
X246988Y80228D03*
D59*
X259100Y80228D03*
D16*
X216226Y80312D03*
X231565Y80312D03*
D10*
X243929Y80312D03*
D47*
X246905Y80312D03*
D58*
X259058Y80312D03*
D16*
X216226Y80396D03*
X231565Y80396D03*
D10*
X243929Y80396D03*
D47*
X246821Y80396D03*
D59*
X259017Y80396D03*
D16*
X216226Y80480D03*
X231565Y80480D03*
D67*
X245563Y80480D03*
D58*
X258975Y80480D03*
D16*
X216226Y80564D03*
X231565Y80564D03*
D68*
X245522Y80564D03*
D55*
X258933Y80564D03*
D16*
X216226Y80648D03*
X231565Y80648D03*
D20*
X245480Y80648D03*
D55*
X258849Y80648D03*
D16*
X216226Y80731D03*
X231565Y80731D03*
D69*
X245438Y80731D03*
D54*
X258807Y80731D03*
D16*
X216226Y80815D03*
X231565Y80815D03*
D70*
X245396Y80815D03*
D13*
X258723Y80815D03*
D16*
X216226Y80899D03*
X231565Y80899D03*
D71*
X245354Y80899D03*
D13*
X258639Y80899D03*
D16*
X216226Y80983D03*
X231565Y80983D03*
D19*
X245312Y80983D03*
D50*
X258597Y80983D03*
D16*
X216226Y81067D03*
X231565Y81067D03*
D72*
X245270Y81067D03*
D73*
X258472Y81067D03*
D16*
X216226Y81150D03*
X231565Y81150D03*
D74*
X245228Y81150D03*
D47*
X258388Y81150D03*
D16*
X216226Y81234D03*
X231565Y81234D03*
D75*
X245186Y81234D03*
D60*
X258220Y81234D03*
D16*
X216226Y81318D03*
X231565Y81318D03*
D76*
X245144Y81318D03*
D44*
X258053Y81318D03*
D16*
X216226Y81402D03*
X231565Y81402D03*
D77*
X245102Y81402D03*
D78*
X257592Y81402D03*
D16*
X216226Y81486D03*
X231565Y81486D03*
D43*
X245060Y81486D03*
D78*
X257592Y81486D03*
D16*
X216226Y81570D03*
X231565Y81570D03*
D78*
X245019Y81570D03*
D17*
X257550Y81570D03*
D16*
X216226Y81653D03*
X231565Y81653D03*
D17*
X244977Y81653D03*
D45*
X257508Y81653D03*
D16*
X216226Y81737D03*
X231565Y81737D03*
D45*
X244935Y81737D03*
X257508Y81737D03*
D16*
X216226Y81821D03*
X231565Y81821D03*
D79*
X244893Y81821D03*
X257466Y81821D03*
D16*
X216226Y81905D03*
X231565Y81905D03*
D46*
X244851Y81905D03*
X257424Y81905D03*
D16*
X216226Y81989D03*
X231565Y81989D03*
D80*
X244809Y81989D03*
D46*
X257424Y81989D03*
D16*
X216226Y82073D03*
X231565Y82073D03*
D15*
X244767Y82073D03*
D80*
X257382Y82073D03*
D16*
X216226Y82156D03*
X231565Y82156D03*
D81*
X244683Y82156D03*
D15*
X257340Y82156D03*
D16*
X216226Y82240D03*
X231565Y82240D03*
D44*
X244641Y82240D03*
D49*
X257298Y82240D03*
D16*
X216226Y82324D03*
X231565Y82324D03*
D53*
X244599Y82324D03*
D81*
X257256Y82324D03*
D16*
X216226Y82408D03*
X231565Y82408D03*
D56*
X244558Y82408D03*
D44*
X257214Y82408D03*
D16*
X216226Y82492D03*
X231565Y82492D03*
D14*
X244516Y82492D03*
D53*
X257172Y82492D03*
D16*
X216226Y82575D03*
X231565Y82575D03*
D60*
X244474Y82575D03*
D56*
X257131Y82575D03*
D16*
X216226Y82659D03*
X231565Y82659D03*
D63*
X244432Y82659D03*
D14*
X257089Y82659D03*
D16*
X216226Y82743D03*
X231565Y82743D03*
D47*
X244390Y82743D03*
D60*
X257047Y82743D03*
D16*
X216226Y82827D03*
X231565Y82827D03*
D48*
X244348Y82827D03*
D63*
X257005Y82827D03*
D16*
X216226Y82911D03*
X231565Y82911D03*
D73*
X244306Y82911D03*
D48*
X256921Y82911D03*
D16*
X216226Y82995D03*
X231565Y82995D03*
D50*
X244264Y82995D03*
D73*
X256879Y82995D03*
D16*
X216226Y83078D03*
X231565Y83078D03*
D13*
X244222Y83078D03*
X256795Y83078D03*
D52*
X244180Y83162D03*
X256753Y83162D03*
D54*
X244138Y83246D03*
D57*
X256670Y83246D03*
X244097Y83330D03*
D59*
X256586Y83330D03*
D58*
X244055Y83414D03*
D10*
X256502Y83414D03*
D12*
X256418Y83497D03*
D82*
X256292Y83581D03*
D83*
X256167Y83665D03*
D84*
X256041Y83749D03*
D85*
X255831Y83833D03*
D86*
X255496Y83917D03*
D87*
X247407Y87353D03*
X255789Y87353D03*
D88*
X223938Y87437D03*
D89*
X247072Y87437D03*
X256125Y87437D03*
D90*
X223938Y87521D03*
D84*
X246905Y87521D03*
X256292Y87521D03*
D91*
X223938Y87605D03*
D92*
X246737Y87605D03*
X256460Y87605D03*
D93*
X223938Y87688D03*
D94*
X246611Y87688D03*
D95*
X256586Y87688D03*
D96*
X223938Y87772D03*
D12*
X246527Y87772D03*
X256670Y87772D03*
D97*
X223938Y87856D03*
D10*
X246444Y87856D03*
X256753Y87856D03*
D98*
X223938Y87940D03*
D59*
X246360Y87940D03*
X256837Y87940D03*
D99*
X223938Y88024D03*
D55*
X246276Y88024D03*
D57*
X256921Y88024D03*
D100*
X223938Y88108D03*
D52*
X246192Y88108D03*
D101*
X256963Y88108D03*
D102*
X223938Y88191D03*
D13*
X246150Y88191D03*
X257047Y88191D03*
D103*
X223938Y88275D03*
D73*
X246066Y88275D03*
D50*
X257089Y88275D03*
D104*
X223938Y88359D03*
D48*
X246024Y88359D03*
X257172Y88359D03*
D105*
X223938Y88443D03*
D65*
X245983Y88443D03*
D47*
X257214Y88443D03*
D106*
X223938Y88527D03*
D64*
X245941Y88527D03*
D63*
X257256Y88527D03*
D107*
X223938Y88610D03*
D14*
X245857Y88610D03*
D108*
X257298Y88610D03*
D109*
X223896Y88694D03*
D56*
X245815Y88694D03*
D14*
X257340Y88694D03*
D110*
X223896Y88778D03*
D53*
X245773Y88778D03*
D56*
X257382Y88778D03*
D111*
X223896Y88862D03*
D44*
X245731Y88862D03*
D53*
X257424Y88862D03*
D112*
X223896Y88946D03*
D44*
X245731Y88946D03*
X257466Y88946D03*
D113*
X223896Y89030D03*
D81*
X245689Y89030D03*
X257508Y89030D03*
D114*
X223896Y89113D03*
D115*
X245647Y89113D03*
D49*
X257550Y89113D03*
D116*
X223938Y89197D03*
D117*
X245605Y89197D03*
D15*
X257592Y89197D03*
D118*
X223938Y89281D03*
D80*
X245563Y89281D03*
D15*
X257592Y89281D03*
D119*
X223938Y89365D03*
D80*
X245563Y89365D03*
D120*
X257633Y89365D03*
D121*
X223896Y89449D03*
D46*
X245522Y89449D03*
X257675Y89449D03*
D122*
X223938Y89532D03*
D79*
X245480Y89532D03*
D46*
X257675Y89532D03*
D123*
X223938Y89616D03*
D79*
X245480Y89616D03*
X257717Y89616D03*
D124*
X223896Y89700D03*
D45*
X245438Y89700D03*
D79*
X257717Y89700D03*
D125*
X223938Y89784D03*
D45*
X245438Y89784D03*
X257759Y89784D03*
D126*
X223938Y89868D03*
D17*
X245396Y89868D03*
X257801Y89868D03*
D78*
X218112Y89952D03*
D17*
X229721Y89952D03*
D53*
X245019Y89952D03*
X258178Y89952D03*
D44*
X217735Y90035D03*
X230141Y90035D03*
D60*
X244809Y90035D03*
D108*
X258388Y90035D03*
D14*
X217526Y90119D03*
X230266Y90119D03*
D48*
X244683Y90119D03*
X258514Y90119D03*
D63*
X217442Y90203D03*
X230434Y90203D03*
D73*
X244558Y90203D03*
D50*
X258597Y90203D03*
D65*
X217316Y90287D03*
D48*
X230518Y90287D03*
D13*
X244474Y90287D03*
X258723Y90287D03*
D73*
X217232Y90371D03*
X230643Y90371D03*
D13*
X244390Y90371D03*
D52*
X258765Y90371D03*
D50*
X217107Y90455D03*
X230685Y90455D03*
D54*
X244306Y90455D03*
X258891Y90455D03*
D13*
X217065Y90538D03*
X230811Y90538D03*
D55*
X244264Y90538D03*
X258933Y90538D03*
D52*
X217023Y90622D03*
X230853Y90622D03*
D55*
X244180Y90622D03*
D58*
X258975Y90622D03*
D52*
X216939Y90706D03*
D54*
X230895Y90706D03*
D58*
X244138Y90706D03*
X259058Y90706D03*
D57*
X216855Y90790D03*
D54*
X230979Y90790D03*
D59*
X244097Y90790D03*
X259100Y90790D03*
D57*
X216855Y90874D03*
D55*
X231021Y90874D03*
D59*
X244013Y90874D03*
X259100Y90874D03*
D57*
X216771Y90957D03*
D58*
X231063Y90957D03*
D59*
X244013Y90957D03*
X259184Y90957D03*
D58*
X216729Y91041D03*
X231146Y91041D03*
D61*
X243971Y91041D03*
X259226Y91041D03*
D59*
X216687Y91125D03*
D58*
X231146Y91125D03*
D61*
X243971Y91125D03*
X259226Y91125D03*
D127*
X216646Y91209D03*
D59*
X231188Y91209D03*
D61*
X243887Y91209D03*
D10*
X259268Y91209D03*
D128*
X216604Y91293D03*
X231272Y91293D03*
D61*
X243887Y91293D03*
D10*
X259268Y91293D03*
D61*
X216562Y91377D03*
D128*
X231272Y91377D03*
D10*
X243845Y91377D03*
X259352Y91377D03*
D61*
X216562Y91460D03*
X231314Y91460D03*
D10*
X243845Y91460D03*
X259352Y91460D03*
D61*
X216478Y91544D03*
X231314Y91544D03*
D16*
X243803Y91544D03*
D10*
X259352Y91544D03*
D61*
X216478Y91628D03*
D10*
X231356Y91628D03*
X243761Y91628D03*
D16*
X259394Y91628D03*
D61*
X216478Y91712D03*
X231398Y91712D03*
D10*
X243761Y91712D03*
D16*
X259394Y91712D03*
D10*
X216436Y91796D03*
D61*
X231398Y91796D03*
D10*
X243761Y91796D03*
D16*
X259394Y91796D03*
D10*
X216436Y91879D03*
X231440Y91879D03*
D16*
X243719Y91879D03*
D10*
X259436Y91879D03*
D61*
X216394Y91963D03*
D10*
X231440Y91963D03*
D16*
X243719Y91963D03*
X259478Y91963D03*
D10*
X216352Y92047D03*
X231440Y92047D03*
D16*
X243719Y92047D03*
X259478Y92047D03*
D10*
X216352Y92131D03*
D16*
X231482Y92131D03*
X243719Y92131D03*
X259478Y92131D03*
D10*
X216352Y92215D03*
X231524Y92215D03*
D16*
X243719Y92215D03*
X259478Y92215D03*
D10*
X216352Y92299D03*
X231524Y92299D03*
D16*
X243719Y92299D03*
X259478Y92299D03*
X216310Y92382D03*
D10*
X231524Y92382D03*
D12*
X243677Y92382D03*
D16*
X259478Y92382D03*
X216310Y92466D03*
D10*
X231524Y92466D03*
D12*
X243677Y92466D03*
D16*
X259478Y92466D03*
X216310Y92550D03*
D10*
X231524Y92550D03*
D12*
X243677Y92550D03*
D16*
X259478Y92550D03*
X216310Y92634D03*
X231565Y92634D03*
D12*
X243677Y92634D03*
D16*
X259478Y92634D03*
X216310Y92718D03*
X231565Y92718D03*
D12*
X243677Y92718D03*
D16*
X259478Y92718D03*
X216310Y92801D03*
X231565Y92801D03*
D12*
X243677Y92801D03*
D16*
X259478Y92801D03*
X216310Y92885D03*
X231565Y92885D03*
D12*
X243677Y92885D03*
D16*
X259478Y92885D03*
D10*
X216268Y92969D03*
D16*
X231565Y92969D03*
D12*
X243677Y92969D03*
D16*
X259478Y92969D03*
D10*
X216268Y93053D03*
D16*
X231565Y93053D03*
X243719Y93053D03*
X259478Y93053D03*
D10*
X216268Y93137D03*
D16*
X231565Y93137D03*
X243719Y93137D03*
X259478Y93137D03*
D10*
X216268Y93221D03*
D16*
X231565Y93221D03*
X243719Y93221D03*
X259478Y93221D03*
D10*
X216268Y93304D03*
D16*
X231565Y93304D03*
X243719Y93304D03*
X259478Y93304D03*
D10*
X216268Y93388D03*
D16*
X231565Y93388D03*
X243719Y93388D03*
X259478Y93388D03*
D10*
X216268Y93472D03*
D16*
X231565Y93472D03*
X243719Y93472D03*
D10*
X259436Y93472D03*
X216268Y93556D03*
D16*
X231565Y93556D03*
X243719Y93556D03*
X259394Y93556D03*
D10*
X216268Y93640D03*
D16*
X231565Y93640D03*
D10*
X243761Y93640D03*
D16*
X259394Y93640D03*
D10*
X216268Y93723D03*
D16*
X231565Y93723D03*
D10*
X243761Y93723D03*
D16*
X259394Y93723D03*
D10*
X216268Y93807D03*
D16*
X231565Y93807D03*
X243803Y93807D03*
D10*
X259352Y93807D03*
X216268Y93891D03*
D16*
X231565Y93891D03*
D10*
X243845Y93891D03*
X259352Y93891D03*
X216268Y93975D03*
D16*
X231565Y93975D03*
D10*
X243845Y93975D03*
X259352Y93975D03*
X216268Y94059D03*
D16*
X231565Y94059D03*
D10*
X243845Y94059D03*
D61*
X259310Y94059D03*
D10*
X216268Y94143D03*
D16*
X231565Y94143D03*
D61*
X243887Y94143D03*
D10*
X259268Y94143D03*
X216268Y94226D03*
D16*
X231565Y94226D03*
D61*
X243887Y94226D03*
X259226Y94226D03*
D10*
X216268Y94310D03*
D16*
X231565Y94310D03*
D61*
X243971Y94310D03*
X259226Y94310D03*
D10*
X216268Y94394D03*
D16*
X231565Y94394D03*
D61*
X243971Y94394D03*
D59*
X259184Y94394D03*
D10*
X216268Y94478D03*
D16*
X231565Y94478D03*
D59*
X244013Y94478D03*
D61*
X259142Y94478D03*
D10*
X216268Y94562D03*
D16*
X231565Y94562D03*
D58*
X244055Y94562D03*
D59*
X259100Y94562D03*
D10*
X216268Y94646D03*
D16*
X231565Y94646D03*
D58*
X244138Y94646D03*
X259058Y94646D03*
D10*
X216268Y94729D03*
D16*
X231565Y94729D03*
D58*
X244138Y94729D03*
D57*
X259017Y94729D03*
D10*
X216268Y94813D03*
D16*
X231565Y94813D03*
D55*
X244180Y94813D03*
X258933Y94813D03*
D10*
X216268Y94897D03*
D16*
X231565Y94897D03*
D55*
X244264Y94897D03*
D54*
X258891Y94897D03*
D10*
X216268Y94981D03*
D16*
X231565Y94981D03*
D52*
X244348Y94981D03*
X258849Y94981D03*
D10*
X216268Y95065D03*
D16*
X231565Y95065D03*
D13*
X244390Y95065D03*
D52*
X258765Y95065D03*
D10*
X216268Y95148D03*
D16*
X231565Y95148D03*
D50*
X244516Y95148D03*
X258681Y95148D03*
D10*
X216268Y95232D03*
D16*
X231565Y95232D03*
D73*
X244558Y95232D03*
X258556Y95232D03*
D10*
X216268Y95316D03*
D16*
X231565Y95316D03*
D47*
X244725Y95316D03*
X258472Y95316D03*
D10*
X216268Y95400D03*
D16*
X231565Y95400D03*
D14*
X244851Y95400D03*
D60*
X258304Y95400D03*
D62*
X223896Y95484D03*
D44*
X245060Y95484D03*
X258136Y95484D03*
D62*
X223896Y95568D03*
D129*
X251598Y95568D03*
D62*
X223896Y95651D03*
D130*
X251598Y95651D03*
D62*
X223896Y95735D03*
D131*
X251557Y95735D03*
D62*
X223896Y95819D03*
D132*
X251598Y95819D03*
D62*
X223896Y95903D03*
D133*
X251557Y95903D03*
D62*
X223896Y95987D03*
D134*
X251598Y95987D03*
D62*
X223896Y96070D03*
D135*
X251598Y96070D03*
D62*
X223896Y96154D03*
D136*
X251557Y96154D03*
D62*
X223896Y96238D03*
D137*
X251557Y96238D03*
D62*
X223896Y96322D03*
D125*
X251598Y96322D03*
D62*
X223896Y96406D03*
D123*
X251598Y96406D03*
D62*
X223896Y96490D03*
D122*
X251598Y96490D03*
D62*
X223896Y96573D03*
D121*
X251557Y96573D03*
D62*
X223896Y96657D03*
D138*
X251557Y96657D03*
D62*
X223896Y96741D03*
D139*
X251557Y96741D03*
D62*
X223896Y96825D03*
D114*
X251557Y96825D03*
D62*
X223896Y96909D03*
D140*
X251598Y96909D03*
D62*
X223896Y96992D03*
D141*
X251598Y96992D03*
D62*
X223896Y97076D03*
D142*
X251598Y97076D03*
D62*
X223896Y97160D03*
D143*
X251598Y97160D03*
D62*
X223896Y97244D03*
D107*
X251598Y97244D03*
D62*
X223896Y97328D03*
D105*
X251598Y97328D03*
D62*
X223896Y97412D03*
D144*
X251598Y97412D03*
D62*
X223896Y97495D03*
D145*
X251598Y97495D03*
D62*
X223896Y97579D03*
D102*
X251598Y97579D03*
D62*
X223896Y97663D03*
D146*
X251557Y97663D03*
D62*
X223896Y97747D03*
D98*
X251598Y97747D03*
D62*
X223896Y97831D03*
D147*
X251598Y97831D03*
D62*
X223896Y97914D03*
D148*
X251557Y97914D03*
D62*
X223896Y97998D03*
D42*
X251598Y97998D03*
D10*
X243929Y101770D03*
X243929Y101854D03*
X243929Y101938D03*
X243929Y102022D03*
D11*
X255580Y102022D03*
D10*
X243929Y102105D03*
D12*
X255580Y102105D03*
D10*
X243929Y102189D03*
D13*
X255622Y102189D03*
D10*
X243929Y102273D03*
D14*
X255580Y102273D03*
D10*
X243929Y102357D03*
D15*
X255580Y102357D03*
D16*
X216226Y102441D03*
X231565Y102441D03*
D10*
X243929Y102441D03*
D17*
X255538Y102441D03*
D16*
X216226Y102525D03*
X231565Y102525D03*
D10*
X243929Y102525D03*
D18*
X255580Y102525D03*
D16*
X216226Y102608D03*
X231565Y102608D03*
D10*
X243929Y102608D03*
D19*
X255538Y102608D03*
D16*
X216226Y102692D03*
X231565Y102692D03*
D10*
X243929Y102692D03*
D20*
X255538Y102692D03*
D16*
X216226Y102776D03*
X231565Y102776D03*
D10*
X243929Y102776D03*
D21*
X255538Y102776D03*
D16*
X216226Y102860D03*
X231565Y102860D03*
D10*
X243929Y102860D03*
D22*
X255496Y102860D03*
D16*
X216226Y102944D03*
X231565Y102944D03*
D10*
X243929Y102944D03*
D23*
X255496Y102944D03*
D16*
X216226Y103028D03*
X231565Y103028D03*
D10*
X243929Y103028D03*
D24*
X255454Y103028D03*
D16*
X216226Y103111D03*
X231565Y103111D03*
D10*
X243929Y103111D03*
D25*
X255454Y103111D03*
D16*
X216226Y103195D03*
X231565Y103195D03*
D10*
X243929Y103195D03*
D26*
X255412Y103195D03*
D16*
X216226Y103279D03*
X231565Y103279D03*
D10*
X243929Y103279D03*
D27*
X255454Y103279D03*
D16*
X216226Y103363D03*
X231565Y103363D03*
D10*
X243929Y103363D03*
D28*
X255412Y103363D03*
D16*
X216226Y103447D03*
X231565Y103447D03*
D10*
X243929Y103447D03*
D29*
X255412Y103447D03*
D16*
X216226Y103530D03*
X231565Y103530D03*
D10*
X243929Y103530D03*
D30*
X255328Y103530D03*
D16*
X216226Y103614D03*
X231565Y103614D03*
D10*
X243929Y103614D03*
D31*
X255328Y103614D03*
D16*
X216226Y103698D03*
X231565Y103698D03*
D10*
X243929Y103698D03*
D32*
X255328Y103698D03*
D16*
X216226Y103782D03*
X231565Y103782D03*
D10*
X243929Y103782D03*
D33*
X255287Y103782D03*
D16*
X216226Y103866D03*
X231565Y103866D03*
D10*
X243929Y103866D03*
D34*
X255287Y103866D03*
D16*
X216226Y103950D03*
X231565Y103950D03*
D10*
X243929Y103950D03*
D35*
X255245Y103950D03*
D16*
X216226Y104033D03*
X231565Y104033D03*
D10*
X243929Y104033D03*
D36*
X255245Y104033D03*
D16*
X216226Y104117D03*
X231565Y104117D03*
D10*
X243929Y104117D03*
D37*
X255203Y104117D03*
D16*
X216226Y104201D03*
X231565Y104201D03*
D10*
X243929Y104201D03*
D38*
X255161Y104201D03*
D16*
X216226Y104285D03*
X231565Y104285D03*
D10*
X243929Y104285D03*
D39*
X255161Y104285D03*
D16*
X216226Y104369D03*
X231565Y104369D03*
D10*
X243929Y104369D03*
D40*
X255161Y104369D03*
D16*
X216226Y104452D03*
X231565Y104452D03*
D10*
X243929Y104452D03*
D41*
X255119Y104452D03*
D16*
X216226Y104536D03*
X231565Y104536D03*
D10*
X243929Y104536D03*
D42*
X255119Y104536D03*
D16*
X216226Y104620D03*
X231565Y104620D03*
D10*
X243929Y104620D03*
D43*
X252353Y104620D03*
D44*
X258136Y104620D03*
D16*
X216226Y104704D03*
X231565Y104704D03*
D10*
X243929Y104704D03*
D45*
X252143Y104704D03*
D14*
X258346Y104704D03*
D16*
X216226Y104788D03*
X231565Y104788D03*
D10*
X243929Y104788D03*
D46*
X251976Y104788D03*
D47*
X258472Y104788D03*
D16*
X216226Y104872D03*
X231565Y104872D03*
D10*
X243929Y104872D03*
D15*
X251808Y104872D03*
D48*
X258597Y104872D03*
D16*
X216226Y104955D03*
X231565Y104955D03*
D10*
X243929Y104955D03*
D49*
X251682Y104955D03*
D50*
X258681Y104955D03*
D16*
X216226Y105039D03*
X231565Y105039D03*
D10*
X243929Y105039D03*
D51*
X251557Y105039D03*
D13*
X258723Y105039D03*
D16*
X216226Y105123D03*
X231565Y105123D03*
D10*
X243929Y105123D03*
D44*
X251431Y105123D03*
D52*
X258849Y105123D03*
D16*
X216226Y105207D03*
X231565Y105207D03*
D10*
X243929Y105207D03*
D53*
X251305Y105207D03*
D54*
X258891Y105207D03*
D16*
X216226Y105291D03*
X231565Y105291D03*
D10*
X243929Y105291D03*
D53*
X251221Y105291D03*
D55*
X258933Y105291D03*
D16*
X216226Y105374D03*
X231565Y105374D03*
D10*
X243929Y105374D03*
D56*
X251096Y105374D03*
D57*
X259017Y105374D03*
D16*
X216226Y105458D03*
X231565Y105458D03*
D10*
X243929Y105458D03*
D56*
X251012Y105458D03*
D58*
X259058Y105458D03*
D16*
X216226Y105542D03*
X231565Y105542D03*
D10*
X243929Y105542D03*
D14*
X250886Y105542D03*
D59*
X259100Y105542D03*
D16*
X216226Y105626D03*
X231565Y105626D03*
D10*
X243929Y105626D03*
D14*
X250802Y105626D03*
D59*
X259184Y105626D03*
D16*
X216226Y105710D03*
X231565Y105710D03*
D10*
X243929Y105710D03*
D14*
X250718Y105710D03*
D59*
X259184Y105710D03*
D16*
X216226Y105794D03*
X231565Y105794D03*
D10*
X243929Y105794D03*
D60*
X250593Y105794D03*
D61*
X259226Y105794D03*
D16*
X216226Y105877D03*
X231565Y105877D03*
D10*
X243929Y105877D03*
D60*
X250509Y105877D03*
D61*
X259226Y105877D03*
D16*
X216226Y105961D03*
X231565Y105961D03*
D10*
X243929Y105961D03*
D60*
X250425Y105961D03*
D61*
X259310Y105961D03*
D62*
X223896Y106045D03*
D10*
X243929Y106045D03*
D63*
X250299Y106045D03*
D61*
X259310Y106045D03*
D62*
X223896Y106129D03*
D10*
X243929Y106129D03*
D64*
X250215Y106129D03*
D10*
X259352Y106129D03*
D62*
X223896Y106213D03*
D10*
X243929Y106213D03*
D64*
X250132Y106213D03*
D10*
X259352Y106213D03*
D62*
X223896Y106296D03*
D10*
X243929Y106296D03*
D63*
X250048Y106296D03*
D10*
X259352Y106296D03*
D62*
X223896Y106380D03*
D10*
X243929Y106380D03*
D63*
X249964Y106380D03*
D16*
X259394Y106380D03*
D62*
X223896Y106464D03*
D10*
X243929Y106464D03*
D64*
X249880Y106464D03*
D16*
X259394Y106464D03*
D62*
X223896Y106548D03*
D10*
X243929Y106548D03*
D65*
X249754Y106548D03*
D10*
X259436Y106548D03*
D62*
X223896Y106632D03*
D10*
X243929Y106632D03*
D47*
X249671Y106632D03*
D16*
X259478Y106632D03*
D62*
X223896Y106716D03*
D10*
X243929Y106716D03*
D47*
X249587Y106716D03*
D16*
X259478Y106716D03*
D62*
X223896Y106799D03*
D10*
X243929Y106799D03*
D65*
X249503Y106799D03*
D16*
X259478Y106799D03*
D62*
X223896Y106883D03*
D10*
X243929Y106883D03*
D65*
X249419Y106883D03*
D16*
X259478Y106883D03*
D62*
X223896Y106967D03*
D10*
X243929Y106967D03*
D47*
X249335Y106967D03*
D16*
X259478Y106967D03*
D62*
X223896Y107051D03*
D10*
X243929Y107051D03*
D47*
X249251Y107051D03*
D16*
X259478Y107051D03*
D62*
X223896Y107135D03*
D10*
X243929Y107135D03*
D65*
X249168Y107135D03*
D16*
X259478Y107135D03*
D62*
X223896Y107219D03*
D10*
X243929Y107219D03*
D65*
X249084Y107219D03*
D16*
X259478Y107219D03*
D62*
X223896Y107302D03*
D10*
X243929Y107302D03*
D47*
X249000Y107302D03*
D16*
X259478Y107302D03*
D62*
X223896Y107386D03*
D10*
X243929Y107386D03*
D47*
X248916Y107386D03*
D16*
X259478Y107386D03*
D62*
X223896Y107470D03*
D10*
X243929Y107470D03*
D47*
X248832Y107470D03*
D16*
X259478Y107470D03*
D62*
X223896Y107554D03*
D10*
X243929Y107554D03*
D65*
X248749Y107554D03*
D16*
X259478Y107554D03*
D62*
X223896Y107638D03*
D10*
X243929Y107638D03*
D47*
X248665Y107638D03*
D16*
X259478Y107638D03*
D62*
X223896Y107721D03*
D10*
X243929Y107721D03*
D47*
X248581Y107721D03*
D16*
X259478Y107721D03*
D62*
X223896Y107805D03*
D10*
X243929Y107805D03*
D47*
X248497Y107805D03*
D16*
X259478Y107805D03*
D62*
X223896Y107889D03*
D10*
X243929Y107889D03*
D65*
X248413Y107889D03*
D16*
X259478Y107889D03*
D62*
X223896Y107973D03*
D10*
X243929Y107973D03*
D47*
X248329Y107973D03*
D16*
X259478Y107973D03*
D62*
X223896Y108057D03*
D10*
X243929Y108057D03*
D47*
X248246Y108057D03*
D16*
X259478Y108057D03*
D62*
X223896Y108141D03*
D10*
X243929Y108141D03*
D47*
X248162Y108141D03*
D10*
X259436Y108141D03*
D62*
X223896Y108224D03*
D10*
X243929Y108224D03*
D65*
X248078Y108224D03*
D16*
X259394Y108224D03*
D62*
X223896Y108308D03*
D10*
X243929Y108308D03*
D47*
X247994Y108308D03*
D16*
X259394Y108308D03*
D62*
X223896Y108392D03*
D10*
X243929Y108392D03*
D48*
X247868Y108392D03*
D16*
X259394Y108392D03*
D62*
X223896Y108476D03*
D10*
X243929Y108476D03*
D48*
X247785Y108476D03*
D10*
X259352Y108476D03*
D62*
X223896Y108560D03*
D10*
X243929Y108560D03*
D66*
X247701Y108560D03*
D10*
X259352Y108560D03*
D16*
X216226Y108643D03*
X231565Y108643D03*
D10*
X243929Y108643D03*
D47*
X247575Y108643D03*
D10*
X259352Y108643D03*
D16*
X216226Y108727D03*
X231565Y108727D03*
D10*
X243929Y108727D03*
D47*
X247491Y108727D03*
D10*
X259268Y108727D03*
D16*
X216226Y108811D03*
X231565Y108811D03*
D10*
X243929Y108811D03*
D65*
X247407Y108811D03*
D10*
X259268Y108811D03*
D16*
X216226Y108895D03*
X231565Y108895D03*
D10*
X243929Y108895D03*
D65*
X247324Y108895D03*
D61*
X259226Y108895D03*
D16*
X216226Y108979D03*
X231565Y108979D03*
D10*
X243929Y108979D03*
D47*
X247240Y108979D03*
D61*
X259226Y108979D03*
D16*
X216226Y109063D03*
X231565Y109063D03*
D10*
X243929Y109063D03*
D47*
X247156Y109063D03*
D59*
X259184Y109063D03*
D16*
X216226Y109146D03*
X231565Y109146D03*
D10*
X243929Y109146D03*
D65*
X247072Y109146D03*
D61*
X259142Y109146D03*
D16*
X216226Y109230D03*
X231565Y109230D03*
D10*
X243929Y109230D03*
D65*
X246988Y109230D03*
D59*
X259100Y109230D03*
D16*
X216226Y109314D03*
X231565Y109314D03*
D10*
X243929Y109314D03*
D47*
X246905Y109314D03*
D58*
X259058Y109314D03*
D16*
X216226Y109398D03*
X231565Y109398D03*
D10*
X243929Y109398D03*
D47*
X246821Y109398D03*
D59*
X259017Y109398D03*
D16*
X216226Y109482D03*
X231565Y109482D03*
D67*
X245563Y109482D03*
D58*
X258975Y109482D03*
D16*
X216226Y109565D03*
X231565Y109565D03*
D68*
X245522Y109565D03*
D55*
X258933Y109565D03*
D16*
X216226Y109649D03*
X231565Y109649D03*
D20*
X245480Y109649D03*
D55*
X258849Y109649D03*
D16*
X216226Y109733D03*
X231565Y109733D03*
D69*
X245438Y109733D03*
D54*
X258807Y109733D03*
D16*
X216226Y109817D03*
X231565Y109817D03*
D70*
X245396Y109817D03*
D13*
X258723Y109817D03*
D16*
X216226Y109901D03*
X231565Y109901D03*
D71*
X245354Y109901D03*
D13*
X258639Y109901D03*
D16*
X216226Y109985D03*
X231565Y109985D03*
D19*
X245312Y109985D03*
D50*
X258597Y109985D03*
D16*
X216226Y110068D03*
X231565Y110068D03*
D72*
X245270Y110068D03*
D73*
X258472Y110068D03*
D16*
X216226Y110152D03*
X231565Y110152D03*
D74*
X245228Y110152D03*
D47*
X258388Y110152D03*
D16*
X216226Y110236D03*
X231565Y110236D03*
D75*
X245186Y110236D03*
D60*
X258220Y110236D03*
D16*
X216226Y110320D03*
X231565Y110320D03*
D76*
X245144Y110320D03*
D44*
X258053Y110320D03*
D16*
X216226Y110404D03*
X231565Y110404D03*
D77*
X245102Y110404D03*
D78*
X257592Y110404D03*
D16*
X216226Y110487D03*
X231565Y110487D03*
D43*
X245060Y110487D03*
D78*
X257592Y110487D03*
D16*
X216226Y110571D03*
X231565Y110571D03*
D78*
X245019Y110571D03*
D17*
X257550Y110571D03*
D16*
X216226Y110655D03*
X231565Y110655D03*
D17*
X244977Y110655D03*
D45*
X257508Y110655D03*
D16*
X216226Y110739D03*
X231565Y110739D03*
D45*
X244935Y110739D03*
X257508Y110739D03*
D16*
X216226Y110823D03*
X231565Y110823D03*
D79*
X244893Y110823D03*
X257466Y110823D03*
D16*
X216226Y110907D03*
X231565Y110907D03*
D46*
X244851Y110907D03*
X257424Y110907D03*
D16*
X216226Y110990D03*
X231565Y110990D03*
D80*
X244809Y110990D03*
D46*
X257424Y110990D03*
D16*
X216226Y111074D03*
X231565Y111074D03*
D15*
X244767Y111074D03*
D80*
X257382Y111074D03*
D16*
X216226Y111158D03*
X231565Y111158D03*
D81*
X244683Y111158D03*
D15*
X257340Y111158D03*
D16*
X216226Y111242D03*
X231565Y111242D03*
D44*
X244641Y111242D03*
D49*
X257298Y111242D03*
D16*
X216226Y111326D03*
X231565Y111326D03*
D53*
X244599Y111326D03*
D81*
X257256Y111326D03*
D16*
X216226Y111410D03*
X231565Y111410D03*
D56*
X244558Y111410D03*
D44*
X257214Y111410D03*
D16*
X216226Y111493D03*
X231565Y111493D03*
D14*
X244516Y111493D03*
D53*
X257172Y111493D03*
D16*
X216226Y111577D03*
X231565Y111577D03*
D60*
X244474Y111577D03*
D56*
X257131Y111577D03*
D16*
X216226Y111661D03*
X231565Y111661D03*
D63*
X244432Y111661D03*
D14*
X257089Y111661D03*
D16*
X216226Y111745D03*
X231565Y111745D03*
D47*
X244390Y111745D03*
D60*
X257047Y111745D03*
D16*
X216226Y111829D03*
X231565Y111829D03*
D48*
X244348Y111829D03*
D63*
X257005Y111829D03*
D16*
X216226Y111912D03*
X231565Y111912D03*
D73*
X244306Y111912D03*
D48*
X256921Y111912D03*
D16*
X216226Y111996D03*
X231565Y111996D03*
D50*
X244264Y111996D03*
D73*
X256879Y111996D03*
D16*
X216226Y112080D03*
X231565Y112080D03*
D13*
X244222Y112080D03*
X256795Y112080D03*
D52*
X244180Y112164D03*
X256753Y112164D03*
D54*
X244138Y112248D03*
D57*
X256670Y112248D03*
X244097Y112332D03*
D59*
X256586Y112332D03*
D58*
X244055Y112415D03*
D10*
X256502Y112415D03*
D12*
X256418Y112499D03*
D82*
X256292Y112583D03*
D83*
X256167Y112667D03*
D84*
X256041Y112751D03*
D85*
X255831Y112834D03*
D86*
X255496Y112918D03*
D92*
X282528Y115349D03*
X282528Y115433D03*
X282528Y115517D03*
X282528Y115601D03*
X282528Y115684D03*
X282528Y115768D03*
X282528Y115852D03*
X282528Y115936D03*
X282528Y116020D03*
X282528Y116103D03*
D62*
X223896Y116187D03*
D92*
X275906Y116187D03*
X282528Y116187D03*
D62*
X223896Y116271D03*
D92*
X275906Y116271D03*
X282528Y116271D03*
D62*
X223896Y116355D03*
D92*
X275906Y116355D03*
X282528Y116355D03*
D62*
X223896Y116439D03*
D92*
X275906Y116439D03*
X282528Y116439D03*
D62*
X223896Y116523D03*
D92*
X275906Y116523D03*
X282528Y116523D03*
D149*
X287934Y116523D03*
D62*
X223896Y116606D03*
D92*
X275906Y116606D03*
X282528Y116606D03*
D150*
X287725Y116606D03*
D62*
X223896Y116690D03*
D92*
X275906Y116690D03*
X282528Y116690D03*
D89*
X287473Y116690D03*
D62*
X223896Y116774D03*
D92*
X275906Y116774D03*
X282528Y116774D03*
D151*
X287264Y116774D03*
D62*
X223896Y116858D03*
D92*
X275906Y116858D03*
X282528Y116858D03*
D95*
X287012Y116858D03*
D62*
X223896Y116942D03*
D16*
X243887Y116942D03*
X259226Y116942D03*
D92*
X275906Y116942D03*
X282528Y116942D03*
D61*
X286803Y116942D03*
D62*
X223896Y117025D03*
D16*
X243887Y117025D03*
X259226Y117025D03*
D92*
X275906Y117025D03*
X282528Y117025D03*
D13*
X286551Y117025D03*
D62*
X223896Y117109D03*
D16*
X243887Y117109D03*
X259226Y117109D03*
D92*
X275906Y117109D03*
X282528Y117109D03*
D63*
X286342Y117109D03*
D62*
X223896Y117193D03*
D16*
X243887Y117193D03*
X259226Y117193D03*
D92*
X275906Y117193D03*
X282528Y117193D03*
D81*
X286090Y117193D03*
D62*
X223896Y117277D03*
D16*
X243887Y117277D03*
X259226Y117277D03*
D92*
X275906Y117277D03*
X282528Y117277D03*
D79*
X285881Y117277D03*
D62*
X223896Y117361D03*
D16*
X243887Y117361D03*
X259226Y117361D03*
D92*
X275906Y117361D03*
D23*
X284833Y117361D03*
D62*
X223896Y117445D03*
D16*
X243887Y117445D03*
X259226Y117445D03*
D92*
X275906Y117445D03*
D23*
X284833Y117445D03*
D62*
X223896Y117528D03*
D16*
X243887Y117528D03*
X259226Y117528D03*
D92*
X275906Y117528D03*
D23*
X284833Y117528D03*
D62*
X223896Y117612D03*
D16*
X243887Y117612D03*
X259226Y117612D03*
D92*
X275906Y117612D03*
D23*
X284833Y117612D03*
D62*
X223896Y117696D03*
D16*
X243887Y117696D03*
X259226Y117696D03*
D92*
X275906Y117696D03*
D152*
X284665Y117696D03*
D62*
X223896Y117780D03*
D16*
X243887Y117780D03*
X259226Y117780D03*
D92*
X275906Y117780D03*
D153*
X284456Y117780D03*
D62*
X223896Y117864D03*
D16*
X243887Y117864D03*
X259226Y117864D03*
D92*
X275906Y117864D03*
D154*
X284204Y117864D03*
D119*
X222764Y117947D03*
D155*
X232026Y117947D03*
D16*
X243887Y117947D03*
X259226Y117947D03*
D92*
X275906Y117947D03*
D31*
X283995Y117947D03*
D111*
X222303Y118031D03*
D83*
X231859Y118031D03*
D16*
X243887Y118031D03*
X259226Y118031D03*
D92*
X275906Y118031D03*
D156*
X283743Y118031D03*
D157*
X221884Y118115D03*
D158*
X231733Y118115D03*
D16*
X243887Y118115D03*
X259226Y118115D03*
D92*
X275906Y118115D03*
D159*
X283492Y118115D03*
D160*
X221381Y118199D03*
D12*
X231607Y118199D03*
D16*
X243887Y118199D03*
X259226Y118199D03*
D92*
X275906Y118199D03*
D161*
X283282Y118199D03*
D162*
X220920Y118283D03*
D61*
X231482Y118283D03*
D16*
X243887Y118283D03*
X259226Y118283D03*
D92*
X275906Y118283D03*
D91*
X283031Y118283D03*
D163*
X220417Y118367D03*
D54*
X231314Y118367D03*
D16*
X243887Y118367D03*
X259226Y118367D03*
D92*
X275906Y118367D03*
D93*
X282779Y118367D03*
D39*
X219789Y118450D03*
D50*
X231188Y118450D03*
D16*
X243887Y118450D03*
X259226Y118450D03*
D92*
X275906Y118450D03*
D93*
X282360Y118450D03*
D164*
X218825Y118534D03*
D47*
X231063Y118534D03*
D16*
X243887Y118534D03*
X259226Y118534D03*
D165*
X281061Y118534D03*
D56*
X230895Y118618D03*
D16*
X243887Y118618D03*
X259226Y118618D03*
D166*
X280810Y118618D03*
D81*
X230769Y118702D03*
D16*
X243887Y118702D03*
X259226Y118702D03*
D167*
X280600Y118702D03*
D80*
X230643Y118786D03*
D16*
X243887Y118786D03*
X259226Y118786D03*
D163*
X280349Y118786D03*
D45*
X230518Y118869D03*
D16*
X243887Y118869D03*
X259226Y118869D03*
D168*
X280013Y118869D03*
D77*
X230350Y118953D03*
D16*
X243887Y118953D03*
X259226Y118953D03*
D169*
X279552Y118953D03*
D74*
X230224Y119037D03*
D16*
X243887Y119037D03*
X259226Y119037D03*
D169*
X279050Y119037D03*
D71*
X230099Y119121D03*
D16*
X243887Y119121D03*
X259226Y119121D03*
D170*
X278630Y119121D03*
D68*
X229931Y119205D03*
D16*
X243887Y119205D03*
X259226Y119205D03*
D93*
X278169Y119205D03*
D21*
X229805Y119289D03*
D16*
X243887Y119289D03*
X259226Y119289D03*
D171*
X277918Y119289D03*
D172*
X229596Y119372D03*
D16*
X243887Y119372D03*
X259226Y119372D03*
D173*
X277708Y119372D03*
D172*
X229344Y119456D03*
D16*
X243887Y119456D03*
X259226Y119456D03*
D174*
X277457Y119456D03*
D172*
X229009Y119540D03*
D16*
X243887Y119540D03*
X259226Y119540D03*
D93*
X276325Y119540D03*
D92*
X282528Y119540D03*
D172*
X228757Y119624D03*
D16*
X243887Y119624D03*
X259226Y119624D03*
D93*
X275822Y119624D03*
D92*
X282528Y119624D03*
D172*
X228506Y119708D03*
D16*
X243887Y119708D03*
X259226Y119708D03*
D175*
X275487Y119708D03*
D92*
X282528Y119708D03*
D172*
X228171Y119792D03*
D16*
X243887Y119792D03*
X259226Y119792D03*
D176*
X275278Y119792D03*
D92*
X282528Y119792D03*
D172*
X227919Y119875D03*
D16*
X243887Y119875D03*
X259226Y119875D03*
D38*
X275026Y119875D03*
D92*
X282528Y119875D03*
D172*
X227668Y119959D03*
D16*
X243887Y119959D03*
X259226Y119959D03*
D35*
X274775Y119959D03*
D92*
X282528Y119959D03*
D21*
X227374Y120043D03*
D16*
X243887Y120043D03*
X259226Y120043D03*
D177*
X274565Y120043D03*
D92*
X282528Y120043D03*
D172*
X227081Y120127D03*
D16*
X243887Y120127D03*
X259226Y120127D03*
D178*
X274314Y120127D03*
D92*
X282528Y120127D03*
D21*
X226788Y120211D03*
D16*
X243887Y120211D03*
X259226Y120211D03*
D27*
X274062Y120211D03*
D92*
X282528Y120211D03*
D21*
X226536Y120294D03*
D16*
X243887Y120294D03*
X259226Y120294D03*
D179*
X273853Y120294D03*
D92*
X282528Y120294D03*
D172*
X226243Y120378D03*
D16*
X243887Y120378D03*
X259226Y120378D03*
D23*
X273601Y120378D03*
D92*
X282528Y120378D03*
D21*
X225950Y120462D03*
D16*
X243887Y120462D03*
X259226Y120462D03*
D23*
X273601Y120462D03*
D92*
X282528Y120462D03*
D21*
X225698Y120546D03*
D62*
X251557Y120546D03*
D23*
X273601Y120546D03*
D92*
X282528Y120546D03*
D68*
X225572Y120630D03*
D62*
X251557Y120630D03*
D23*
X273601Y120630D03*
D92*
X282528Y120630D03*
D71*
X225405Y120714D03*
D62*
X251557Y120714D03*
D17*
X272637Y120714D03*
D92*
X275906Y120714D03*
X282528Y120714D03*
D74*
X225279Y120797D03*
D62*
X251557Y120797D03*
D117*
X272428Y120797D03*
D92*
X275906Y120797D03*
X282528Y120797D03*
D77*
X225153Y120881D03*
D62*
X251557Y120881D03*
D14*
X272176Y120881D03*
D92*
X275906Y120881D03*
X282528Y120881D03*
D45*
X224986Y120965D03*
D62*
X251557Y120965D03*
D73*
X271967Y120965D03*
D92*
X275906Y120965D03*
X282528Y120965D03*
D120*
X224860Y121049D03*
D62*
X251557Y121049D03*
D58*
X271715Y121049D03*
D92*
X275906Y121049D03*
X282528Y121049D03*
D81*
X224734Y121133D03*
D62*
X251557Y121133D03*
D12*
X271506Y121133D03*
D92*
X275906Y121133D03*
X282528Y121133D03*
D14*
X224567Y121216D03*
D62*
X251557Y121216D03*
D83*
X271254Y121216D03*
D92*
X275906Y121216D03*
X282528Y121216D03*
D48*
X224399Y121300D03*
D62*
X251557Y121300D03*
D180*
X271045Y121300D03*
D92*
X275906Y121300D03*
X282528Y121300D03*
D13*
X224273Y121384D03*
D62*
X251557Y121384D03*
D181*
X270793Y121384D03*
D92*
X275906Y121384D03*
X282528Y121384D03*
D58*
X224105Y121468D03*
D62*
X251557Y121468D03*
D86*
X270584Y121468D03*
D92*
X275906Y121468D03*
X282528Y121468D03*
D16*
X223938Y121552D03*
D62*
X251557Y121552D03*
D92*
X275906Y121552D03*
X282528Y121552D03*
D82*
X223770Y121636D03*
D62*
X251557Y121636D03*
D92*
X275906Y121636D03*
X282528Y121636D03*
D83*
X223644Y121719D03*
D62*
X251557Y121719D03*
D92*
X275906Y121719D03*
X282528Y121719D03*
D83*
X223644Y121803D03*
D62*
X251557Y121803D03*
D92*
X275906Y121803D03*
X282528Y121803D03*
D182*
X223854Y121887D03*
D62*
X251557Y121887D03*
D92*
X275906Y121887D03*
X282528Y121887D03*
D61*
X224022Y121971D03*
D62*
X251557Y121971D03*
D92*
X275906Y121971D03*
X282528Y121971D03*
D54*
X224189Y122055D03*
D62*
X251557Y122055D03*
D92*
X275906Y122055D03*
X282528Y122055D03*
D50*
X224315Y122138D03*
D62*
X251557Y122138D03*
D92*
X275906Y122138D03*
X282528Y122138D03*
D87*
X287809Y122138D03*
D63*
X224483Y122222D03*
D62*
X251557Y122222D03*
D92*
X275906Y122222D03*
X282528Y122222D03*
D183*
X287557Y122222D03*
D56*
X224608Y122306D03*
D62*
X251557Y122306D03*
D92*
X275906Y122306D03*
X282528Y122306D03*
D184*
X287348Y122306D03*
D81*
X224734Y122390D03*
D62*
X251557Y122390D03*
D92*
X275906Y122390D03*
X282528Y122390D03*
X287138Y122390D03*
D120*
X224860Y122474D03*
D62*
X251557Y122474D03*
D92*
X275906Y122474D03*
X282528Y122474D03*
D16*
X286887Y122474D03*
D17*
X225028Y122558D03*
D62*
X251557Y122558D03*
D92*
X275906Y122558D03*
X282528Y122558D03*
D57*
X286677Y122558D03*
D77*
X225153Y122641D03*
D62*
X251557Y122641D03*
D92*
X275906Y122641D03*
X282528Y122641D03*
D48*
X286426Y122641D03*
D74*
X225279Y122725D03*
D62*
X251557Y122725D03*
D92*
X275906Y122725D03*
X282528Y122725D03*
D56*
X286216Y122725D03*
D71*
X225405Y122809D03*
D62*
X251557Y122809D03*
D92*
X275906Y122809D03*
X282528Y122809D03*
D120*
X285965Y122809D03*
D20*
X225530Y122893D03*
D62*
X251557Y122893D03*
D92*
X275906Y122893D03*
D23*
X284833Y122893D03*
D21*
X225698Y122977D03*
D62*
X251557Y122977D03*
D92*
X275906Y122977D03*
D23*
X284833Y122977D03*
D21*
X225950Y123060D03*
D62*
X251557Y123060D03*
D92*
X275906Y123060D03*
D23*
X284833Y123060D03*
D21*
X226201Y123144D03*
D16*
X243887Y123144D03*
X259226Y123144D03*
D92*
X275906Y123144D03*
D23*
X284833Y123144D03*
D21*
X226452Y123228D03*
D16*
X243887Y123228D03*
X259226Y123228D03*
D92*
X275906Y123228D03*
D185*
X284791Y123228D03*
D21*
X226704Y123312D03*
D16*
X243887Y123312D03*
X259226Y123312D03*
D92*
X275906Y123312D03*
D186*
X284540Y123312D03*
D172*
X226997Y123396D03*
D16*
X243887Y123396D03*
X259226Y123396D03*
D92*
X275906Y123396D03*
D164*
X284288Y123396D03*
D21*
X227291Y123480D03*
D16*
X243887Y123480D03*
X259226Y123480D03*
D92*
X275906Y123480D03*
D30*
X284079Y123480D03*
D21*
X227542Y123563D03*
D16*
X243887Y123563D03*
X259226Y123563D03*
D92*
X275906Y123563D03*
D187*
X283827Y123563D03*
D21*
X227794Y123647D03*
D16*
X243887Y123647D03*
X259226Y123647D03*
D92*
X275906Y123647D03*
D36*
X283576Y123647D03*
D172*
X228087Y123731D03*
D16*
X243887Y123731D03*
X259226Y123731D03*
D92*
X275906Y123731D03*
D90*
X283366Y123731D03*
D21*
X228380Y123815D03*
D16*
X243887Y123815D03*
X259226Y123815D03*
D92*
X275906Y123815D03*
D42*
X283115Y123815D03*
D21*
X228632Y123899D03*
D16*
X243887Y123899D03*
X259226Y123899D03*
D92*
X275906Y123899D03*
D188*
X282905Y123899D03*
D21*
X228883Y123983D03*
D16*
X243887Y123983D03*
X259226Y123983D03*
D92*
X275906Y123983D03*
D93*
X282528Y123983D03*
D21*
X229135Y124066D03*
D16*
X243887Y124066D03*
X259226Y124066D03*
D189*
X281145Y124066D03*
D172*
X229428Y124150D03*
D16*
X243887Y124150D03*
X259226Y124150D03*
D98*
X280935Y124150D03*
D21*
X229721Y124234D03*
D16*
X243887Y124234D03*
X259226Y124234D03*
D147*
X280684Y124234D03*
D67*
X229889Y124318D03*
D16*
X243887Y124318D03*
X259226Y124318D03*
D190*
X280433Y124318D03*
D69*
X230015Y124402D03*
D16*
X243887Y124402D03*
X259226Y124402D03*
D169*
X280223Y124402D03*
D19*
X230141Y124485D03*
D16*
X243887Y124485D03*
X259226Y124485D03*
D169*
X279720Y124485D03*
D191*
X230308Y124569D03*
D16*
X243887Y124569D03*
X259226Y124569D03*
D170*
X279301Y124569D03*
D78*
X230434Y124653D03*
D16*
X243887Y124653D03*
X259226Y124653D03*
D169*
X278798Y124653D03*
D79*
X230560Y124737D03*
D16*
X243887Y124737D03*
X259226Y124737D03*
D170*
X278295Y124737D03*
D117*
X230685Y124821D03*
D16*
X243887Y124821D03*
X259226Y124821D03*
D148*
X278044Y124821D03*
D44*
X230811Y124905D03*
D16*
X243887Y124905D03*
X259226Y124905D03*
D192*
X277792Y124905D03*
D60*
X230979Y124988D03*
D16*
X243887Y124988D03*
X259226Y124988D03*
D162*
X277583Y124988D03*
D31*
X219118Y125072D03*
D48*
X231104Y125072D03*
D16*
X243887Y125072D03*
X259226Y125072D03*
D99*
X277331Y125072D03*
D193*
X219914Y125156D03*
D13*
X231230Y125156D03*
D16*
X243887Y125156D03*
X259226Y125156D03*
D93*
X275990Y125156D03*
D92*
X282528Y125156D03*
D171*
X220585Y125240D03*
D55*
X231356Y125240D03*
D16*
X243887Y125240D03*
X259226Y125240D03*
D169*
X275613Y125240D03*
D92*
X282528Y125240D03*
D99*
X221172Y125324D03*
D10*
X231524Y125324D03*
D16*
X243887Y125324D03*
X259226Y125324D03*
D194*
X275361Y125324D03*
D92*
X282528Y125324D03*
D195*
X221675Y125407D03*
D182*
X231649Y125407D03*
D16*
X243887Y125407D03*
X259226Y125407D03*
D39*
X275110Y125407D03*
D92*
X282528Y125407D03*
D109*
X222136Y125491D03*
D196*
X231775Y125491D03*
D16*
X243887Y125491D03*
X259226Y125491D03*
D197*
X274900Y125491D03*
D92*
X282528Y125491D03*
D114*
X222555Y125575D03*
D198*
X231901Y125575D03*
D16*
X243887Y125575D03*
X259226Y125575D03*
D33*
X274649Y125575D03*
D92*
X282528Y125575D03*
D123*
X222932Y125659D03*
D155*
X232026Y125659D03*
D16*
X243887Y125659D03*
X259226Y125659D03*
D88*
X274397Y125659D03*
D92*
X282528Y125659D03*
D62*
X223896Y125743D03*
D16*
X243887Y125743D03*
X259226Y125743D03*
D28*
X274188Y125743D03*
D92*
X282528Y125743D03*
D62*
X223896Y125827D03*
D16*
X243887Y125827D03*
X259226Y125827D03*
D26*
X273936Y125827D03*
D92*
X282528Y125827D03*
D62*
X223896Y125910D03*
D16*
X243887Y125910D03*
X259226Y125910D03*
D199*
X273685Y125910D03*
D92*
X282528Y125910D03*
D62*
X223896Y125994D03*
D16*
X243887Y125994D03*
X259226Y125994D03*
D23*
X273601Y125994D03*
D92*
X282528Y125994D03*
D62*
X223896Y126078D03*
D16*
X243887Y126078D03*
X259226Y126078D03*
D23*
X273601Y126078D03*
D92*
X282528Y126078D03*
D62*
X223896Y126162D03*
D16*
X243887Y126162D03*
X259226Y126162D03*
D23*
X273601Y126162D03*
D92*
X282528Y126162D03*
D62*
X223896Y126246D03*
D16*
X243887Y126246D03*
X259226Y126246D03*
D23*
X273601Y126246D03*
D92*
X282528Y126246D03*
D62*
X223896Y126329D03*
D16*
X243887Y126329D03*
X259226Y126329D03*
D46*
X272512Y126329D03*
D92*
X275906Y126329D03*
X282528Y126329D03*
D62*
X223896Y126413D03*
D16*
X243887Y126413D03*
X259226Y126413D03*
D53*
X272260Y126413D03*
D92*
X275906Y126413D03*
X282528Y126413D03*
D62*
X223896Y126497D03*
D16*
X243887Y126497D03*
X259226Y126497D03*
D47*
X272051Y126497D03*
D92*
X275906Y126497D03*
X282528Y126497D03*
D62*
X223896Y126581D03*
D16*
X243887Y126581D03*
X259226Y126581D03*
D54*
X271799Y126581D03*
D92*
X275906Y126581D03*
X282528Y126581D03*
D62*
X223896Y126665D03*
D10*
X271590Y126665D03*
D92*
X275906Y126665D03*
X282528Y126665D03*
D62*
X223896Y126749D03*
D158*
X271380Y126749D03*
D92*
X275906Y126749D03*
X282528Y126749D03*
D62*
X223896Y126832D03*
D84*
X271129Y126832D03*
D92*
X275906Y126832D03*
X282528Y126832D03*
D62*
X223896Y126916D03*
D85*
X270919Y126916D03*
D92*
X275906Y126916D03*
X282528Y126916D03*
D62*
X223896Y127000D03*
D200*
X270667Y127000D03*
D92*
X275906Y127000D03*
X282528Y127000D03*
D62*
X223896Y127084D03*
D201*
X270458Y127084D03*
D92*
X275906Y127084D03*
X282528Y127084D03*
D62*
X223896Y127168D03*
D92*
X275906Y127168D03*
X282528Y127168D03*
D62*
X223896Y127251D03*
D92*
X275906Y127251D03*
X282528Y127251D03*
D62*
X223896Y127335D03*
D92*
X275906Y127335D03*
X282528Y127335D03*
D62*
X223896Y127419D03*
D92*
X275906Y127419D03*
X282528Y127419D03*
X275906Y127503D03*
X275906Y127587D03*
X275906Y127671D03*
X275906Y127754D03*
X275906Y127838D03*
X275906Y127922D03*
X275906Y128006D03*
X275906Y128090D03*
X275906Y128174D03*
X275906Y128257D03*
M02*
